<svg width="494" height="330" viewBox="0 0 494 330" fill="none" xmlns="http://www.w3.org/2000/svg">
<path d="M22.821 109.213C34.3772 106.936 36.6085 94.5448 36.8351 93.0542C36.8521 92.953 36.8329 92.8607 36.7867 92.7672L36.0394 91.2787L33.3693 85.9683L30.7026 80.6573L29.9553 79.1677C29.908 79.0753 29.8453 79.005 29.7524 78.9571C28.4223 78.2489 17.1471 72.6393 8.4215 80.5495C8.09654 80.8448 8.29173 81.3858 8.73271 81.4117C10.6665 81.5233 14.5501 81.8504 16.352 82.7225C16.7644 82.9226 16.6687 83.5423 16.2189 83.6468C13.6467 84.2511 6.81099 86.4489 3.31228 93.2076C-1.05354 101.637 0.152837 102.648 0.152837 102.648C0.152837 102.648 0.253461 104.222 9.61413 105.752C17.1262 106.982 22.9695 102.81 24.9913 101.108C25.3437 100.812 25.8991 101.103 25.8122 101.556C25.4372 103.52 23.3813 106.829 22.3135 108.449C22.0721 108.816 22.3899 109.297 22.821 109.213Z" fill="#FFAE44"/>
<path d="M26.5631 103.405C34.7702 102.038 35.9667 92.633 36.0827 91.5003C36.0915 91.4223 36.0755 91.3508 36.0393 91.2788L33.3692 85.9683L30.7024 80.6573C30.6661 80.5858 30.6172 80.5297 30.5517 80.4879C29.5725 79.9034 21.3121 75.25 15.3154 81.0174C15.0921 81.2297 15.2494 81.652 15.5667 81.6849C16.9561 81.8329 19.7494 82.2084 21.0679 82.9359C21.372 83.1008 21.3214 83.5709 21.0047 83.6375C19.1797 84.0169 14.3526 85.4762 12.0625 90.5326C9.20818 96.8372 10.1061 97.6493 10.1061 97.6493C10.1061 97.6493 10.2111 98.7094 15.7937 100.057C16.166 100.146 16.5635 100.237 16.9842 100.33C22.4079 101.513 26.4592 98.5126 27.8553 97.2754C28.0967 97.0604 28.5058 97.3007 28.4574 97.6444C28.2523 99.135 26.8859 101.599 26.1733 102.803C26.0149 103.078 26.2569 103.454 26.5631 103.405Z" fill="#FCE25E"/>
<path d="M13.6662 63.3056C18.0568 63.895 27.8045 66.2671 33.2475 70.0385C33.3421 70.1468 33.4477 70.2425 33.5433 70.3475L53.4248 52.6291C49.9811 50.9834 38.4705 46.3025 26.6658 50.808C12.5665 56.1894 8.38599 62.5963 13.6662 63.3056Z" fill="#FB5A21"/>
<path d="M57.4033 112.189C67.9742 105.508 71.1689 93.659 71.9557 89.7853L45.6068 95.0678C45.7091 95.0524 45.8119 95.0348 45.9131 95.0172C45.929 95.0892 45.9329 95.1656 45.9488 95.2371C45.7685 101.864 41.7832 111.209 39.6074 115.108C37.0132 119.762 44.6479 120.251 57.4033 112.189Z" fill="#CCAF5D"/>
<path d="M37.0821 84.0185C37.0408 83.9377 37.0051 83.8607 36.966 83.7777L36.9518 83.7848C33.0923 75.9901 33.2238 71.9405 33.4844 70.5081C31.9278 72.001 30.3277 73.54 28.6693 75.1313C28.6693 75.1313 27.2524 78.3347 31.4994 86.8172C35.7454 95.2993 39.183 96.1312 39.183 96.1312C41.3951 95.7628 43.5296 95.4125 45.607 95.0683L45.7571 95.0392C45.7549 95.0386 45.7505 95.0353 45.7483 95.0342L45.7686 95.0304C44.4325 94.3453 41.0487 91.9452 37.0821 84.0185Z" fill="#FB5A21"/>
<path d="M57.4102 112.177C67.981 105.497 71.1762 93.647 71.9625 89.7744L45.6131 95.0573C45.7143 95.0403 45.8187 95.0232 45.9205 95.0056C45.9375 95.0788 45.9403 95.1541 45.9568 95.2272C45.7753 101.853 41.7905 111.198 39.6164 115.096C37.02 119.75 44.6558 120.24 57.4102 112.177Z" fill="#FB5A21"/>
<path d="M96.398 78.2654C98.8124 76.4899 101.005 74.704 102.996 72.9291C116.929 60.5179 121.017 48.6345 122.079 44.4936C121.372 43.8359 120.77 43.053 120.285 42.1649L120.267 42.1743C120.246 42.1386 120.225 42.105 120.205 42.0687C120.175 42.0093 120.138 41.9549 120.109 41.8944C119.731 41.14 119.478 40.3603 119.322 39.5718C115.651 38.1131 106.441 35.3056 92.6656 36.8204C88.031 37.3307 82.8827 38.3286 77.2539 40.0332C68.1934 42.7786 60.8117 46.9849 53.4596 52.6484C53.4475 52.6418 53.4376 52.6358 53.4244 52.6303L40.7229 63.9506L33.5429 70.3487C33.5605 70.3674 33.5786 70.3833 33.5935 70.4025C33.5578 70.4383 33.5187 70.4729 33.483 70.5087C33.2328 71.8877 33.1069 75.6855 36.5264 82.904C36.6985 83.2729 36.8756 83.6441 37.0697 84.0306C41.039 91.9534 44.4201 94.3574 45.7551 95.0392L71.955 89.7837C71.955 89.7837 71.9561 89.7809 71.9555 89.7787L71.9643 89.7771C71.966 89.776 71.9649 89.7754 71.9654 89.7743C80.9357 87.2797 88.754 83.8887 96.398 78.2654Z" fill="#1728C1"/>
<path d="M128.675 40.1184C130.03 38.8548 130.454 37.836 130.191 37.3109C130.18 37.2861 130.152 37.268 130.135 37.246L130.132 37.2482C129.9 36.9117 129.302 36.6978 128.348 36.7143C127.961 36.7209 127.525 36.7627 127.022 36.8517C125.227 37.1734 122.199 38.2434 119.418 39.6054C119.389 39.5949 119.352 39.5812 119.323 39.5713C119.478 40.3581 119.731 41.1411 120.108 41.895C120.139 41.9543 120.176 42.0093 120.207 42.0687C120.699 43.0035 121.334 43.8183 122.068 44.5024C122.07 44.4969 122.07 44.4919 122.073 44.4864C122.075 44.4886 122.076 44.4914 122.08 44.493C122.08 44.4842 122.082 44.4771 122.085 44.4699C124.515 43.2141 126.843 41.6844 128.235 40.5016C128.39 40.3708 128.544 40.241 128.675 40.1184Z" fill="#FB5A21"/>
<path d="M97.769 53.1965C94.5666 47.3434 87.2553 45.0412 81.2041 48.0675C75.0167 51.1698 72.4879 58.6676 75.5775 64.8253C78.6556 70.982 86.1792 73.4608 92.3683 70.359C93.5313 69.7779 94.565 69.04 95.4546 68.1844C99.3223 64.4894 100.526 58.5906 98.0197 53.582C97.9499 53.4423 97.8514 53.3324 97.7756 53.1927L97.769 53.1965Z" fill="#00D5CC"/>
<path d="M120.197 42.1308L120.188 42.1149C120.182 42.1061 120.177 42.0967 120.172 42.0874C120.16 42.0648 120.148 42.044 120.136 42.0231L120.13 42.0121L120.197 41.9725C120.212 41.9983 120.228 42.0242 120.242 42.0517C120.249 42.0643 120.257 42.0786 120.265 42.0934L120.197 42.1308Z" fill="#A2A4A7"/>
<path d="M83.7806 114.714C83.7806 114.714 87.5163 116.592 88.1563 126.437C88.7963 136.282 91.0832 142.326 91.0832 142.326C91.0832 142.326 88.1453 144.543 85.4351 143.588C82.7249 142.633 81.7665 142.535 81.7945 138.471C81.8226 134.407 79.4868 115.578 79.4868 115.578L83.7806 114.714Z" fill="#1A3151"/>
<path d="M76.6646 119.68C80.4965 119.862 84.0875 122.573 85.317 126.213C86.8791 123.931 87.2547 120.879 86.293 118.283C85.3313 115.687 83.0582 113.618 80.3865 112.905C78.4136 114.596 77.1484 117.089 76.9477 119.682L76.6646 119.68Z" fill="#1A3151"/>
<path d="M72.0229 142.963L60.0581 147.353L51.3705 155.242L51.1901 119.861L40.346 121.544L36.7549 162.372L48.3128 172.15L71.5715 164.246L72.0229 142.963Z" fill="#FFAE44"/>
<path d="M56.6448 320.807L56.2583 323.898L61.7871 327.895L65.1318 325.256L62.5607 321.712L57.0314 317.716L56.6448 320.807Z" fill="#1A3151"/>
<path d="M59.0228 226.073L57.8489 235.461L65.5138 267.992L56.46 319.763L62.174 321.887L78.5634 271.522L81.3226 256.822L81.9725 225.581L59.0228 226.073Z" fill="#1A3151"/>
<path d="M103.084 237.607L88.9096 324.381L83.4018 324.251L83.7284 268.423L74.6289 229.016L103.084 237.607Z" fill="#1A3151"/>
<path d="M83.4501 323.563L83.3765 326.69L89.2588 329.958L92.311 326.901L89.4067 323.704L83.4501 323.563Z" fill="#1A3151"/>
<path d="M59.5998 214.535C65.0521 182.976 63.9167 159.872 64.3104 153.544C64.7035 147.217 69.1199 144.033 69.1221 144.032C71.0362 143.643 72.7231 142.426 74.6575 141.976C87.7434 138.93 94.5978 149.272 99.2072 160.361C104.887 174.024 109.597 188.114 113.335 202.463C116.616 215.056 119.901 227.763 121.095 240.78C121.587 246.151 121.983 251.243 116.203 253.471C106.991 257.021 96.7428 256.697 87.0792 257.677C75.9793 258.802 64.8723 259.554 53.7203 259.765C47.899 259.875 54.147 246.094 59.5998 214.535Z" fill="#FFAE44"/>
<path d="M41.603 121.485L36.8413 116.488L38.7053 107.944L43.4126 108.055L44.6201 115.563L46.9751 117.055L46.8898 120.664L41.603 121.485Z" fill="#DDC8AC"/>
<path d="M80.9736 141.475L93.3805 143.984L118.271 169.227L147.923 168.82L149.368 177.996L114.615 183.269L86.5288 164.322L80.9736 141.475Z" fill="#FFAE44"/>
<path d="M84.0297 142.209L85.527 175.942L69.0166 143.519L74.095 141.839L77.718 140.845L84.0297 142.209Z" fill="white"/>
<path d="M148.199 171.108L153.729 167.849L160.685 169.763L160.597 173.512L148.881 175.437L148.199 171.108Z" fill="#DDC8AC"/>
<path d="M85.0929 122.884C81.0218 113.434 69.0956 117.89 67.3503 126.669C66.3579 131.662 68.8118 140.437 74.7948 140.66C75.0763 141.514 75.5552 143.126 76.3525 143.561C77.2158 144.033 79.3558 142.921 80.2009 142.515C80.4351 142.403 80.6776 142.274 80.8167 142.054C80.9905 141.779 80.8937 141.167 80.7486 140.499C81.393 140.308 82.0347 140.03 82.6664 139.654C85.3189 138.072 86.7986 134.954 87.0092 131.87C87.2203 128.785 86.3164 125.724 85.0929 122.884Z" fill="#DDC8AC"/>
<path d="M80.144 112.934C80.144 112.934 82.5292 118.019 76.0239 121.033C69.5187 124.048 66.2745 130.391 68.7164 135.776C71.1583 141.161 77.1423 144.193 74.7994 146.277C72.456 148.362 62.314 149.068 62.314 149.068C62.314 149.068 51.9168 130.479 58.0163 120.064C64.1158 109.649 75.6429 106.761 80.144 112.934Z" fill="#1A3151"/>
<path d="M133.546 318.808L133.045 322.703L140.334 327.599L144.729 324.205L141.335 319.81L134.047 314.914L133.546 318.808Z" fill="#1A3151"/>
<path d="M133.299 317.501L138.92 267.833L132.158 212.228L133.678 200.401L163.884 199.253L164.974 218.504L159.904 267.909L140.826 320.039L133.299 317.501Z" fill="#999999"/>
<path d="M157.606 145.093L173.103 147.89L208.917 156.407L206.642 168.41L170.028 167.858L157.606 145.093Z" fill="#145566"/>
<path d="M186.048 204.819L186.128 254.941L176.039 319.464L168.777 319.392L164.786 259.723L155.443 200.001L186.048 204.819Z" fill="#999999"/>
<path d="M168.789 322.454L176.603 326.459L180.568 322.572L176.681 318.606L168.828 318.528L168.789 322.454Z" fill="#1A3151"/>
<path d="M126.826 225.651C126.705 223.482 126.667 221.665 126.628 221.019C126.275 215.201 126.285 209.364 126.507 203.537C126.706 198.316 126.406 185.423 126.841 180.213C127.2 175.911 128.816 165.111 130.31 161.019C134.023 150.844 132.532 150.064 152.349 145.405C161.034 143.363 163.593 148.663 171.336 154.337C172.099 154.897 172.384 158.602 172.634 159.568C173.075 161.269 173.537 162.966 174.043 164.65C174.441 165.974 174.867 167.291 175.33 168.595L175.329 168.595C175.329 168.595 183.771 195.54 188.274 201.026C192.778 206.511 201.74 213.947 188.378 220.135C186.002 221.14 183.608 222.107 181.098 222.732C181.098 222.732 169.705 222.465 163.905 223.016C158.564 223.524 153.245 224.535 148.07 225.901C144.608 226.796 141.098 227.963 138.098 229.88C135.237 231.708 133.274 234.202 130.374 236.09C130.099 236.269 129.797 236.456 129.466 236.439C127.699 236.351 127.079 230.218 126.826 225.651Z" fill="#145566"/>
<path d="M152.371 147.765C151.573 148.571 149.363 149.522 146.677 149.408C146.136 149.386 145.656 149.036 145.486 148.522C145.011 147.078 144.632 145.602 144.355 144.107C142.365 144.094 139.992 143.863 139.044 142.114C138.745 141.563 138.641 140.93 138.541 140.312C138.128 137.754 137.714 135.196 137.301 132.638C137.158 131.753 137.015 130.841 137.224 129.969C137.589 128.439 138.946 127.358 140.324 126.6C143.839 124.665 148.192 124.073 151.933 125.525C152.929 125.912 153.896 126.455 154.563 127.289C155.592 128.575 155.756 130.327 155.878 131.969C155.992 133.485 156.105 135 156.218 136.516C156.348 138.26 156.367 140.285 155.032 141.415C154.324 142.015 153.326 142.254 152.748 142.98C151.728 144.26 152.572 146.141 152.371 147.765Z" fill="#E1CFB5"/>
<path d="M165.668 116.265C165.828 115.536 166.023 114.818 166.278 114.12C166.83 112.609 167.663 111.189 167.983 109.612C168.303 108.035 167.963 106.163 166.622 105.273C165.756 104.699 164.653 104.642 163.615 104.69C160.196 104.844 156.824 105.934 153.962 107.812C151.237 109.6 148.996 111.778 145.602 111.69C142.414 111.606 140.521 112.738 137.93 114.807C135.127 117.047 130.93 118.791 128.591 121.396C127.614 122.484 127.011 123.866 126.659 125.285C125.439 130.2 127.331 135.748 131.3 138.894C132.191 139.6 133.169 140.189 134.169 140.728C136.239 141.844 138.737 143.243 141.019 143.136C140.43 141.264 136.728 135.995 137.63 133.985C139.061 130.794 144.463 129.877 147.472 129.507C150.755 129.102 154.227 130.331 157.42 129.751C159.718 129.333 162.135 127.304 163.603 125.538C165.415 123.355 165.084 118.927 165.668 116.265Z" fill="#1A3151"/>
<path d="M244.147 232.243L243.61 242.403C243.436 245.703 240.686 248.241 237.466 248.071L211.433 246.697C208.214 246.527 205.746 243.714 205.92 240.414L206.456 230.254L244.147 232.243Z" fill="#666666"/>
<path d="M169.376 91.4981C171.262 55.755 201.055 28.2713 235.919 30.1116C270.782 31.952 297.516 62.4198 295.629 98.1629C294.959 110.864 290.761 122.521 284.067 132.192H284.07C264.911 161.44 259.518 186.501 259.518 186.501L227.752 184.824L195.986 183.147C195.986 183.147 193.26 157.658 177.287 126.554H177.29C171.652 116.233 168.705 104.2 169.376 91.4981Z" fill="#FFAE44"/>
<path d="M260.249 186.539L257.971 229.699C257.876 231.502 256.407 232.89 254.69 232.799L195.913 229.697C194.196 229.606 192.881 228.071 192.976 226.268L195.254 183.108L260.249 186.539Z" fill="#B0B0B0"/>
<g opacity="0.35">
<path d="M171.137 79.4399C185.474 112.424 213.993 163.716 259.557 186.327C259.534 186.43 259.518 186.5 259.518 186.5L227.752 184.823L195.986 183.147C195.986 183.147 193.261 157.658 177.288 126.554H177.291C171.652 116.233 168.705 104.199 169.376 91.4976C169.594 87.3544 170.204 83.3284 171.137 79.4399Z" fill="#FCE25E"/>
</g>
<path d="M285.032 102.941C286.68 71.7359 263.341 45.1368 232.903 43.5302C215.112 42.591 198.836 50.4011 188.052 63.283C198.463 46.8474 216.902 36.386 237.337 37.4648C267.775 39.0714 291.114 65.6705 289.466 96.8756C288.782 109.841 283.889 121.559 276.223 130.715C281.319 122.671 284.491 113.195 285.032 102.941Z" fill="#FCE25E"/>
<path d="M240.028 185.472L252.048 103.032L240.912 111.554L232.412 95.9629L222.218 110.084L212.2 100.851L215.477 184.176L212.216 184.003L208.641 93.0828L221.737 105.154L232.798 89.8343L241.946 106.611L256.428 95.5275L243.288 185.644L240.028 185.472Z" fill="#F4F5F5"/>
<path d="M244.486 177.422L243.287 185.644L240.027 185.472L241.508 175.316C242.492 176.031 243.483 176.734 244.486 177.422Z" fill="#EBEAEB"/>
<path d="M214.127 149.867L215.477 184.176L212.216 184.003L210.715 145.831C211.833 147.188 212.97 148.534 214.127 149.867Z" fill="#EBEAEB"/>
<path d="M194.683 193.825L194.263 201.795L259.257 205.225L259.677 197.255L194.683 193.825Z" fill="#7F7F7F"/>
<path d="M193.784 210.845L193.364 218.815L258.358 222.245L258.779 214.275L193.784 210.845Z" fill="#7F7F7F"/>
<path d="M223.152 212.396L193.79 210.846L194.268 201.795L212.38 202.751C215.989 206.387 219.597 209.583 223.152 212.396Z" fill="#8E8E8E"/>
<path d="M194.689 193.825L195.255 183.108L196.277 183.162C199.059 187.214 201.891 190.937 204.75 194.356L194.689 193.825Z" fill="#8E8E8E"/>
<path d="M254.69 232.799L195.913 229.697C194.196 229.606 192.881 228.071 192.976 226.268L193.369 218.816L235.808 221.056C244.179 225.943 251.796 228.817 257.818 230.508C257.398 231.896 256.137 232.876 254.69 232.799Z" fill="#8E8E8E"/>
<path d="M212.381 202.751L194.269 201.795L194.689 193.825L204.749 194.356C207.28 197.383 209.83 200.18 212.381 202.751Z" fill="#666666"/>
<path d="M235.808 221.056L193.37 218.816L193.79 210.846L223.152 212.396C227.483 215.823 231.734 218.678 235.808 221.056Z" fill="#666666"/>
<path d="M206.13 236.424C213.079 244.048 227.005 246.978 231.617 247.762L211.433 246.696C208.214 246.526 205.746 243.713 205.92 240.413L206.13 236.424Z" fill="#4E4E4E"/>
<path d="M235.592 20.5602L233.906 20.5123C232.982 20.4859 232.253 19.7156 232.28 18.7913L232.764 1.62715C232.79 0.702855 233.561 -0.0256978 234.485 0.000695035L236.171 0.0479814C237.095 0.0743743 237.824 0.844718 237.797 1.76902L237.313 18.9332C237.287 19.858 236.516 20.5866 235.592 20.5602Z" fill="#EBB044"/>
<path d="M207.476 23.6014L205.831 24.5796C205.09 25.0206 204.132 24.777 203.692 24.0364L194.797 9.0837C194.356 8.3425 194.6 7.38466 195.34 6.94423L196.985 5.96605C197.726 5.52507 198.684 5.76865 199.124 6.5093L208.019 21.462C208.46 22.2032 208.217 23.161 207.476 23.6014Z" fill="#EBB044"/>
<path d="M262.648 25.2394L263.985 26.1412C264.769 26.6696 265.833 26.4623 266.361 25.6787L275.917 11.5008C276.445 10.7173 276.238 9.65332 275.455 9.12546L274.117 8.22426C273.334 7.69585 272.27 7.90314 271.742 8.68668L262.186 22.8646C261.657 23.6476 261.864 24.7115 262.648 25.2394Z" fill="#EBB044"/>
<path d="M198.515 178.129L207.471 178.612L212.706 172.584L209.85 170.197L203.853 172.303L202.173 171.157L196.069 173.497C196.069 173.497 198.635 178.13 198.515 178.129Z" fill="#E1CFB5"/>
<path d="M142.924 153.083L172.622 178.344L198.013 172.474L201.89 179.817L172.181 193.41L162.228 190.324L136.65 165.318L142.924 153.083Z" fill="#145566"/>
<path d="M485.053 49.6682C485.076 39.9127 477.189 31.9839 467.433 31.9569C466.115 31.9531 464.137 32.6668 462.926 31.963C461.915 31.3752 461.541 29.9747 460.764 29.1499C459.816 28.1437 458.733 27.2656 457.552 26.5475C455.171 25.0992 452.41 24.3283 449.624 24.3206C447.347 24.3145 445.187 24.8055 443.241 25.6886C443.23 25.6936 443.22 25.6996 443.209 25.704C443.209 25.704 443.202 25.7062 443.2 25.7073C443.077 25.7639 442.954 25.8217 442.832 25.8816C442.826 25.8767 442.821 25.8717 442.815 25.8668C441.251 26.5557 435.511 29.5211 435.037 36.039C438.418 35.9307 441.812 37.2344 444.262 39.8737C446.748 37.4367 450.332 36.3645 453.757 37.0716C456.508 37.6391 458.873 39.2441 460.416 41.5903C461.96 43.9365 462.497 46.7435 461.93 49.4939C461.878 49.7429 461.659 49.9139 461.414 49.9134C461.379 49.9134 461.344 49.9095 461.308 49.9024C461.024 49.8436 460.841 49.5659 460.9 49.2811C461.955 44.1713 458.655 39.1561 453.545 38.1015C450.288 37.429 446.873 38.5408 444.632 41.0009C444.436 41.2153 444.104 41.2307 443.889 41.0355C443.861 41.0102 443.837 40.9833 443.816 40.9541C439.897 36.3398 432.956 35.7646 428.332 39.6768C428.11 39.8643 427.779 39.8368 427.591 39.6147C427.403 39.3931 427.431 39.061 427.652 38.8735C429.513 37.2993 431.718 36.3909 433.974 36.1187C434.375 29.4523 439.772 26.1692 441.952 25.1096C438.313 22.0849 433.642 20.2577 428.54 20.2434C420.993 20.2225 414.364 24.1699 410.62 30.1188C409.361 29.8422 408.055 29.691 406.714 29.6877C400.118 29.6695 393.891 33.3007 390.65 39.0445C389.832 40.4928 389.29 42.0082 388.845 43.6033C388.785 43.8183 388.713 44.0107 388.631 44.1861C392.426 42.7758 397.719 41.7289 403.524 43.3273C403.804 43.4043 403.968 43.6935 403.891 43.9739C403.814 44.2538 403.526 44.4182 403.245 44.3412C391.144 41.0091 381.139 49.6016 381.04 49.6891C380.964 49.7556 380.874 49.7957 380.782 49.8117C379.481 50.8333 378.283 51.9759 377.263 53.328C374.234 57.3413 372.577 62.2889 372.563 67.3156C372.527 80.2217 382.96 90.7129 395.866 90.7486C397.321 90.7525 398.867 89.9272 400.281 90.4077C399.519 88.3117 399.093 85.6829 399.951 82.916C400.037 82.6389 400.332 82.4833 400.609 82.5696C400.886 82.6554 401.041 82.9501 400.955 83.2278C399.183 88.9424 403.618 94.2616 403.662 94.315C403.717 94.3793 403.751 94.4535 403.77 94.5305C404.545 95.4977 405.386 96.2565 406.506 96.9471C409.557 98.8265 413.119 99.847 416.702 99.8569C419.737 99.8652 422.611 99.1779 425.175 97.9478C425.205 97.9198 425.238 97.894 425.276 97.8731C433.117 93.4809 434.287 84.7927 434.298 84.7058C434.333 84.4177 434.595 84.2126 434.884 84.2488C435.172 84.2846 435.376 84.5469 435.341 84.835C435.299 85.171 434.353 92.2756 428.28 97.1181C431.915 101.308 437.27 103.968 443.253 103.985C446.165 103.993 449.19 103.146 451.946 102.07C454.852 100.934 456.961 105.253 458.066 107.112C459.692 109.849 460.576 113.216 462.895 115.501C466.238 118.795 469.866 115.865 470.261 111.836C470.487 109.532 470.423 107.214 470.154 104.917C470.021 103.786 469.787 102.485 470.3 101.412C470.914 100.13 472.083 100.333 473.306 100.044C475.655 99.4902 477.868 98.4059 479.75 96.8965C483.576 93.8273 485.852 89.1106 485.866 84.2049C485.871 82.3057 485.547 80.4835 484.955 78.7861C484.155 79.1297 482.523 79.7049 480.282 79.8566C479.931 79.8803 479.556 79.894 479.159 79.8924C476.266 79.8841 472.219 79.1033 467.763 75.9445C467.526 75.7767 467.47 75.4485 467.638 75.2115C467.806 74.9745 468.134 74.919 468.371 75.0867C477.557 81.598 484.925 77.6451 484.998 77.6044C485.046 77.5775 485.097 77.5621 485.148 77.5517C490.364 75.1059 493.983 69.8164 494 63.674C494.016 57.4623 490.346 52.1068 485.053 49.6682ZM426.754 76.1847C426.696 76.2045 426.638 76.2139 426.58 76.2139C426.363 76.2133 426.16 76.077 426.084 75.8603C424.076 70.0726 417.776 66.9747 411.978 68.8833C411.955 68.8932 411.93 68.8998 411.905 68.9064C411.871 68.9174 411.838 68.9267 411.805 68.9382C411.531 69.0334 411.231 68.8882 411.136 68.6138C411.083 68.4632 411.105 68.3065 411.18 68.1784C410.113 63.6063 406.732 59.8454 402.285 58.3162C395.14 55.8595 387.327 59.6738 384.87 66.8197C384.775 67.094 384.477 67.2409 384.202 67.1457C383.927 67.0512 383.781 66.752 383.876 66.4777C386.521 58.7836 394.933 54.6757 402.628 57.3215C407.347 58.9442 410.951 62.9014 412.153 67.728C418.351 65.9762 424.939 69.3517 427.078 75.5145C427.173 75.7899 427.028 76.0896 426.754 76.1847ZM470.52 64.8006C470.337 65.0261 470.006 65.0612 469.78 64.8787C467.195 62.7865 463.951 61.8265 460.642 62.1745C457.335 62.5231 454.361 64.1386 452.268 66.724C450.176 69.3094 449.216 72.5546 449.564 75.8614C449.594 76.1501 449.385 76.4091 449.096 76.4393C449.077 76.4415 449.058 76.4421 449.039 76.4421C448.774 76.4415 448.547 76.2408 448.518 75.9714C448.141 72.3847 449.182 68.8651 451.451 66.062C453.72 63.2588 456.945 61.5065 460.532 61.1287C464.118 60.7504 467.638 61.7924 470.441 64.0611C470.668 64.2442 470.703 64.5752 470.52 64.8006Z" fill="#FFC5A4"/>
<path d="M355.593 151.045L350.013 147.272L351.521 144.817L355.914 146.554L356.089 145.062L360.47 148.872L359.247 151.636L355.593 151.045Z" fill="#A39372"/>
<path d="M410.029 142.861L387.925 157.179L359.419 147.084L357.272 152.693L388.286 172.071L419.268 160.631L410.029 142.861Z" fill="#1728C1"/>
<path d="M410.486 319.129V322.291L402.379 326.345L398.326 322.291L402.379 318.237H402.902L403.032 319.129H410.486Z" fill="#1A3151"/>
<path d="M410.486 319.129H403.032L402.902 318.237H410.486V319.129Z" fill="#1A3151"/>
<path d="M421.761 140.634C430.474 141.158 439.404 145.727 441.904 154.209C442.111 154.908 442.271 155.622 442.329 156.349C442.678 160.707 441.346 163.926 442.604 168.304C443.696 172.107 444.687 175.967 445.414 179.859C446.466 185.492 447.438 191.099 448.203 196.691C449.05 202.885 449.648 209.06 449.821 215.199C449.84 215.878 449.977 217.776 450.053 220.043C450.214 224.793 450.111 231.145 448.111 231.382C447.737 231.427 447.375 231.261 447.046 231.102C444.474 229.852 442.447 228.22 440.179 226.795C439.381 226.294 438.555 225.817 437.663 225.392C435.876 224.542 433.967 223.893 432.009 223.38C435.301 223.552 435.711 222.942 435.711 222.942C435.711 222.942 432.741 211.013 430.656 200.637C429.581 195.289 428.741 190.354 428.664 187.677C428.433 179.627 427.402 153.039 427.402 153.039L422.405 142.869L421.482 142.877C421.549 142.87 421.615 142.861 421.681 142.854C421.589 141.984 421.628 141.264 421.761 140.634Z" fill="#1728C1"/>
<path d="M384.696 226.097C385.208 220.825 385.739 215.554 386.388 210.297C387.682 199.812 389.442 189.351 392.422 179.201C393.56 175.323 394.873 171.499 396.186 167.677C397.784 163.022 399.382 158.367 400.981 153.713C402.967 147.928 406.32 143.852 412.191 141.829C413.239 141.468 414.343 141.188 415.48 140.984C415.508 141.104 415.534 141.225 415.549 141.353C415.617 141.908 415.776 142.524 416.128 142.927L412.274 142.964C412.274 142.964 401.403 180.956 401.003 187.504C400.852 189.993 400.347 195.427 399.784 201.151C398.895 210.209 397.863 219.996 397.863 219.996C397.863 219.996 402.636 220.109 409.54 220.624C409.03 220.611 408.519 220.598 408.008 220.594C403.206 220.551 398.225 222.591 393.627 223.914C393.297 224.01 392.968 224.101 392.642 224.188C390.768 224.685 389.245 226.05 387.689 227.121C385.391 228.702 384.383 229.328 384.696 226.097Z" fill="#1728C1"/>
<path d="M393.628 222.576C398.225 221.254 403.207 219.213 408.009 219.255C408.519 219.26 409.03 219.274 409.54 219.285C409.968 219.317 410.403 219.351 410.846 219.385C414.064 219.64 417.68 219.98 421.455 220.43C421.64 220.452 421.825 220.474 422.011 220.497C426.839 221.53 429.974 221.934 432.009 222.04C433.967 222.554 435.876 223.202 437.662 224.053C438.554 224.477 439.381 224.954 440.179 225.455L440.204 230.614L430.999 318.237H423.452V319.129H423.409L415.11 260.355L415.076 260.024L410.529 319.129H410.485V318.236H402.901L393.282 252.419L393.628 222.576Z" fill="#1728C1"/>
<path d="M430.999 318.237H431.559L435.613 322.291L431.559 326.345L423.452 322.291V319.129H430.906L430.999 318.237Z" fill="#1A3151"/>
<path d="M430.999 318.237L430.906 319.129H423.452V318.237H430.999Z" fill="#1A3151"/>
<path d="M397.863 219.996C397.863 219.996 402.636 220.109 409.54 220.624C409.968 220.656 410.403 220.69 410.846 220.725C414.065 220.979 417.68 221.319 421.455 221.77C421.64 221.792 421.825 221.813 422.011 221.836C426.839 222.87 429.974 223.274 432.009 223.38C435.301 223.551 435.711 222.942 435.711 222.942C435.711 222.942 432.741 211.013 430.655 200.637C429.58 195.289 428.741 190.354 428.664 187.677C428.432 179.627 427.402 153.039 427.402 153.039L422.405 142.869L421.482 142.877C420.208 143.028 418.935 143.179 417.661 143.329C417.331 143.368 416.99 143.406 416.675 143.302C416.517 143.25 416.38 143.169 416.261 143.065C416.213 143.024 416.169 142.977 416.127 142.928L412.273 142.965C412.273 142.965 401.402 180.957 401.002 187.504C400.851 189.994 400.345 195.427 399.783 201.151C398.895 210.209 397.863 219.996 397.863 219.996Z" fill="#F1F1F1"/>
<path d="M409.379 128.877C409.63 127.852 409.148 126.807 408.921 125.776C408.863 125.516 408.853 125.247 408.869 124.975C410.7 124.658 412.548 123.978 413.893 123.391C416.695 122.168 422.15 120.865 425.059 122.31C427.359 123.452 426.652 127.093 426.537 129.397C426.507 129.989 426.462 130.592 426.598 131.167C426.738 131.76 427.107 132.16 427.337 132.659C427.081 133.556 426.661 134.408 425.977 135.181C424.134 137.262 422.258 138.285 421.761 140.633C421.628 141.264 421.588 141.984 421.682 142.852C421.615 142.86 421.549 142.868 421.483 142.876C420.209 143.026 418.935 143.177 417.661 143.328C417.332 143.367 416.99 143.404 416.676 143.301C416.518 143.248 416.381 143.167 416.261 143.064C416.213 143.022 416.169 142.975 416.127 142.926C415.776 142.523 415.617 141.907 415.549 141.351C415.533 141.224 415.508 141.102 415.48 140.983C414.982 138.839 412.614 137.874 411.338 135.972C409.892 133.817 409.135 131.306 408.807 128.748C408.802 128.705 408.797 128.661 408.791 128.617C408.978 128.72 409.174 128.808 409.379 128.877Z" fill="#E1CFB5"/>
<path d="M400.224 116.718C400.141 119.357 402.136 123.645 404.589 124.721C405.066 124.93 405.594 125.053 406.152 125.112C406.667 126.543 407.531 127.929 408.792 128.619C408.979 128.721 409.175 128.808 409.38 128.878C409.63 127.852 409.149 126.808 408.922 125.777C408.864 125.516 408.854 125.247 408.869 124.975C410.7 124.659 412.549 123.979 413.894 123.391C416.695 122.168 422.151 120.866 425.06 122.31C427.36 123.452 426.653 127.094 426.538 129.397C426.508 129.989 426.463 130.593 426.599 131.168C426.739 131.76 427.108 132.161 427.338 132.659C427.418 132.833 427.482 133.019 427.513 133.229C429.396 132.384 430.535 130.26 431.599 128.533C432.131 127.67 432.629 126.768 433.021 125.788C434.77 121.407 434.125 115.502 431.439 111.302C430.664 110.09 429.719 109.002 428.609 108.324C425.95 106.702 422.248 106.553 419.383 105.441C415.354 103.876 413.306 105.287 409.501 106.509C407.98 106.997 406.232 107.421 405.427 108.862C404.982 109.658 404.916 110.64 404.467 111.434C403.889 112.456 402.791 112.988 401.84 113.632C400.734 114.377 400.263 115.482 400.224 116.718Z" fill="#1A3151"/>
<path d="M471.668 114.551L472.654 107.889L469.825 107.343L468.14 111.756L466.921 110.877L466.771 116.681L469.636 117.646L471.668 114.551Z" fill="#E1CFB5"/>
<path d="M428.869 149.171L454.357 142.54L466.163 114.699L471.749 116.903L465.096 152.863L435.735 167.986L428.869 149.171Z" fill="#1728C1"/>
<path d="M367.731 320.157L368.087 323.66L361.438 327.874L357.58 324.727L360.726 320.869L367.375 316.655L367.731 320.157Z" fill="#1A3151"/>
<path d="M367.988 213.317L369.069 223.953L359.572 271.487L367.983 318.991L361.177 321.087L339.171 264.605L337.964 247.338L340.944 211.569L367.988 213.317Z" fill="#1A3151"/>
<path d="M316.408 216.938L316.189 261.873L325.045 319.75L331.556 319.706L335.309 266.223L343.86 212.707L316.408 216.938Z" fill="#1A3151"/>
<path d="M331.537 322.452L324.52 326.02L320.977 322.523L324.473 318.979L331.513 318.932L331.537 322.452Z" fill="#1A3151"/>
<path d="M310.922 210.343C315.618 195.793 316.119 180.516 317.485 165.36C317.89 160.888 318.32 156.317 320.182 152.231C322.319 147.539 325.853 145.063 329.97 143.71C335.21 141.988 341.393 142.087 346.841 141.756C352.01 141.593 356.583 161.026 361.856 170.445C365.088 176.218 368.418 181.324 370.597 187.621C372.69 193.665 374.698 199.815 375.916 206.104C377.753 215.598 382.453 222.227 377.964 225.457C377.553 225.592 377.157 225.728 376.781 225.862C369.417 228.5 361.799 230.452 354.041 231.476C347.159 232.384 340.17 232.55 333.26 231.868C323.801 230.936 314.637 229.6 306.298 224.667C307.839 219.892 309.38 215.118 310.922 210.343Z" fill="#3ABABA"/>
<path d="M328.798 237.184L357.922 222.619L304.109 115.017L274.985 129.582L328.798 237.184Z" fill="#FB5A21"/>
<path d="M304.118 115.009L276.551 96.2845L274.994 129.574L304.118 115.009Z" fill="#E1CFB5"/>
<path d="M286.894 103.31L276.55 96.2845L275.966 108.775L286.894 103.31Z" fill="#1A3151"/>
<path d="M339.94 249.763L361.563 238.95C363.634 237.914 364.474 235.395 363.438 233.324L357.928 222.611L328.804 237.175L334.314 247.888C335.35 249.96 337.869 250.799 339.94 249.763Z" fill="#B5B7B8"/>
<path d="M328.804 237.175L357.928 222.611L355.204 217.164L325.967 231.502L328.804 237.175Z" fill="white"/>
<path d="M348.463 200.755L343.18 205.448L341.076 203.277L343.982 199.262L342.511 198.698L347.52 195.233L350.012 197.194L348.463 200.755Z" fill="#A39372"/>
<path d="M349.848 161.284L358.971 172.174L345.431 195.838L350.574 199.476L378.322 172.985L356.732 142.376L349.848 161.284Z" fill="#3ABABA"/>
<path d="M349.371 127.292C346.426 118.401 333.451 115.306 330.435 125.638C329.529 128.743 328.983 132.037 329.6 135.212C330.216 138.388 332.156 141.434 335.118 142.736C335.135 142.744 335.152 142.75 335.168 142.757C335.053 143.581 334.937 144.405 334.821 145.229C334.797 145.406 334.776 145.601 334.875 145.75C334.989 145.919 335.214 145.963 335.415 145.993C336.399 146.14 337.383 146.287 338.366 146.434C338.854 146.506 339.362 146.578 339.831 146.428C340.859 146.099 341.286 144.867 341.331 143.789C341.342 143.531 341.339 143.27 341.336 143.01C347.158 141.015 351.295 133.104 349.371 127.292Z" fill="#A39372"/>
<path d="M333.563 112.111C331.188 111.757 329.164 114.061 326.973 115.271C325.149 116.277 323.082 116.544 321.192 117.378C319.301 118.212 317.444 119.953 317.404 122.132C315.489 121.135 313.414 120.113 311.268 120.526C309.122 120.94 307.129 123.502 307.985 125.614C308.751 127.506 311.218 127.951 312.039 129.813C313.338 132.758 309.827 137.331 312.222 139.285C312.798 139.754 313.582 139.867 314.148 140.351C314.851 140.951 315.077 141.983 315.39 142.899C316.808 147.055 320.997 149.77 325.135 149.214C327.708 148.009 329.759 145.519 330.679 142.668C331.787 139.232 329.948 138.032 329.638 134.807C329.299 131.281 330.42 127.548 332.64 124.811C334.084 123.029 336.15 121.494 338.334 121.286C339.222 121.201 338.943 121.942 339.942 121.255C340.37 120.96 340.955 119.845 341.077 119.311C338.686 117.389 336.689 112.576 333.563 112.111Z" fill="#1A3151"/>
<path d="M359.257 116.682C360.483 117.023 361.814 116.973 362.981 117.485C364.735 118.254 364.628 120.074 365.125 121.655C365.674 123.406 366.474 125.756 367.628 127.117C368.46 128.098 369.624 128.658 370.638 129.415C371.652 130.172 372.584 131.29 372.562 132.654C372.542 133.947 371.673 135.108 371.545 136.399C371.39 138.324 371.723 139.31 371.129 141.278C370.823 142.293 370.48 143.368 369.718 144.061C368.714 144.973 367.284 144.956 366.027 144.746C364.771 144.536 363.473 144.187 362.234 144.604C359.547 145.507 360.049 148.225 359.334 150.502C358.246 153.967 354.227 155.99 351.153 154.758C348.547 153.713 347.038 150.686 347.156 147.699C347.215 146.203 347.81 144.809 347.854 143.312C347.895 141.868 347.082 139.869 348.39 138.723C348.709 138.444 349.117 138.297 349.404 137.979C349.635 137.722 349.764 137.377 349.844 137.032C350.123 135.839 349.86 134.538 349.157 133.624C348.651 132.967 347.927 132.487 347.617 131.695C347.261 130.787 347.542 129.726 347.603 128.723C347.748 126.298 346.422 123.92 344.402 122.983C343.07 122.366 341.871 122.002 340.708 121.064C340.531 120.921 337.883 118.582 337.815 119.087C337.934 118.207 338.447 117.437 338.968 116.731C339.824 115.571 340.774 114.44 341.978 113.745C345.875 111.497 346.063 116.721 349.191 116.034C349.945 115.869 350.513 115.177 351.192 114.764C352.475 113.984 354.05 114.263 355.362 114.848C356.675 115.432 357.877 116.298 359.257 116.682Z" fill="#1A3151"/>
<path d="M307.849 197.745L311.689 196.925L316.503 200.613L312.867 204.855L309.229 201.882L307.849 197.745Z" fill="#A39372"/>
</svg>
