<svg width="500" height="500" viewBox="0 0 800 800" fill="none" xmlns="http://www.w3.org/2000/svg">
<g clip-path="url(#clip0_2095_110)">
<path d="M322.42 711.44C311.446 707.955 300.272 705.262 289.405 701.402C278.979 697.699 268.818 693.362 258.869 688.525C238.552 678.648 219.227 666.591 201.525 652.548C165.621 624.063 136.333 588.016 114.567 547.754C102.171 524.824 92.988 500.803 84.09 476.37C82.506 472.021 76 473.688 77.084 478.301C87.757 523.745 111.423 567.403 139.879 604.089C168.534 641.031 204.814 672.084 246.245 693.857C257.794 699.926 269.772 705.206 282.011 709.725C294.235 714.238 307.002 718.609 319.95 720.388C325.709 721.181 328.29 713.304 322.42 711.44Z" fill="#B8FAFF"/>
<path d="M688.062 453.182C694.92 548.061 644.309 643.163 560.477 690.247C462.118 745.491 331.901 719.074 237.647 667.408C43.5697 561.022 30.5977 231.305 275.692 182.131C293.873 178.483 312.403 176.551 330.937 176.131C377.957 175.064 422.675 184.03 468.256 193.982C512.073 203.549 558.36 210.711 595.805 237.26C655.977 279.925 683.016 383.384 688.062 453.182Z" fill="#1728C1"/>
<path d="M152.542 223.127C144.016 232.419 132.675 240.561 124.968 250.364C120.948 255.477 123.116 259.136 124.945 265.692C126.829 272.45 129.063 279.111 131.634 285.64C133.433 290.209 136.19 295.35 141.055 296.016C142.418 296.203 143.8 295.996 145.159 295.79C174.285 291.373 203.411 286.955 232.537 282.538C243.369 280.895 254.215 279.258 264.933 276.966C269.812 275.923 275.678 275.258 280.167 273.013C283.107 271.543 284.581 269.182 288.101 268.829C287.256 254.419 285.046 239.499 281.371 225.528C278.769 215.638 270.099 212.66 260.76 209.753C247.984 204.059 234.565 200.203 221.694 194.783C209.796 189.772 198.247 184.394 187.483 177.189C190.168 178.987 156.296 219.035 152.542 223.127Z" fill="#FCE25E"/>
<path d="M279.426 275.387C266.752 279.04 253.908 282.106 240.95 284.572C231.232 286.421 221.453 287.932 211.677 289.442C189.452 292.876 167.227 296.309 145.002 299.743C143.589 271.26 130.351 244.629 126.568 216.362C149.442 211.994 172.294 207.508 195.145 203.02C217.532 198.624 240.855 191.794 263.543 189.889C268.468 189.497 284.712 273.863 279.426 275.387Z" fill="#1BB9C2"/>
<path d="M281.203 230.547C281.444 230.63 281.671 230.751 281.875 230.917C282.669 231.559 282.919 232.643 283.121 233.644C286.181 248.845 287.619 264.237 289.533 279.657C290.852 290.285 295.497 300.229 296.106 311.104C284.316 315.242 270.806 316.694 258.457 318.923C244.52 321.439 230.545 323.737 216.548 325.895C193.476 329.453 167.082 337.193 144.102 336.67C140.837 326.603 118.169 259.344 126.079 255.844C129.877 254.164 143.213 259.369 147.469 260.264C155.064 261.862 162.652 263.488 170.235 265.143C185.426 268.459 199.705 274.349 215.424 275.819C216.453 275.915 217.512 275.996 218.503 275.702C219.671 275.355 220.623 274.525 221.555 273.739C227.806 268.464 235.233 264.989 241.625 260.148C249.123 254.469 256.711 248.845 264.343 243.304C269.379 239.648 273.486 234.827 278.229 231.156C279.06 230.514 280.241 230.217 281.203 230.547Z" fill="#FB5A21"/>
<path d="M296.828 306.632C270.781 295.027 244.228 284.624 217.23 275.447C215.722 274.934 214.491 275.677 213.882 276.761C213.521 276.854 213.159 277.032 212.807 277.313C189.716 295.763 166.624 314.214 143.533 332.664C140.729 334.904 144.277 339.208 147.087 336.962C170.178 318.512 193.27 300.061 216.361 281.611C216.526 281.479 216.666 281.338 216.789 281.193C243.249 290.239 269.282 300.456 294.826 311.837C298.115 313.303 300.097 308.088 296.828 306.632Z" fill="#FB5A21"/>
<path d="M169.9 224.95C162.206 224.455 153.495 226.724 145.953 228.141C144.975 228.325 145.224 229.744 146.2 229.654C153.854 228.95 162.831 228.738 170.098 226.16C170.695 225.95 170.505 224.989 169.9 224.95Z" fill="white"/>
<path d="M252.564 220.199C243.541 220.635 234.388 223.287 225.533 225.026C216.548 226.791 207.565 228.563 198.578 230.321C189.951 232.009 181.321 233.678 172.696 235.372C164.082 237.064 155.125 238.244 146.788 241.039C146.248 241.22 146.573 241.962 147.06 241.931C156.132 241.359 165.202 238.96 174.11 237.221C183.097 235.467 192.079 233.685 201.065 231.931C209.692 230.246 218.32 228.566 226.947 226.884C235.527 225.211 244.648 224.231 252.905 221.323C253.59 221.082 253.175 220.17 252.564 220.199Z" fill="white"/>
<path d="M259.729 236.212C242.376 239.54 225.073 243.132 207.758 246.654C190.488 250.166 172.902 253.021 155.851 257.486C154.656 257.799 154.9 259.595 156.166 259.412C173.604 256.889 190.904 252.666 208.171 249.176C225.492 245.675 242.83 242.244 260.112 238.55C261.595 238.234 261.235 235.923 259.729 236.212Z" fill="white"/>
<path d="M235.914 256.584C228.079 258.178 220.29 260.035 212.493 261.802C205.476 263.392 197.777 264.347 191.17 267.249C190.565 267.515 190.916 268.289 191.483 268.273C198.954 268.059 206.662 265.519 213.94 263.907C221.392 262.256 228.874 260.685 236.288 258.872C237.718 258.521 237.391 256.283 235.914 256.584Z" fill="white"/>
<path d="M580.422 529.531C563.594 553.917 526.651 565.361 500.477 576.283C494.51 578.773 486.584 578.587 483.406 584.367C480.232 590.138 480.28 598.275 481.199 604.589C482.337 612.402 485.294 619.829 488.543 627.025C480.247 626.834 473.403 620.899 466.138 616.89C459.365 613.153 452.547 609.433 446.217 604.968C440.2 600.724 435.275 595.168 429.228 591.01C426.511 589.142 422.223 590.399 418.38 590.812C409.034 591.816 399.678 592.746 390.309 593.507C371.906 595.001 353.429 595.864 334.964 595.339C297.674 594.278 260.732 587.001 227.049 570.586C199.34 557.081 164.632 527.792 155.428 497.456C153.299 490.438 152.466 483.101 151.742 475.794C144.409 401.798 202.69 334.146 270.88 313.317C298.657 304.832 328.036 300.758 357.038 300.061C364.245 299.888 371.287 299.556 378.225 299.246C445.449 296.239 507.266 308.529 562.36 349.307C587.403 367.843 605.577 396.275 610.103 427.271C614.819 459.564 598.739 502.988 580.422 529.531Z" fill="#2199A1"/>
<path d="M593.423 519.531C576.595 543.917 539.652 555.361 513.478 566.283C504.696 569.948 490.655 571.256 486.225 580.345C480.137 592.837 480.886 613.785 488.781 625.553C464.067 619.247 453.931 599.637 441.555 579.691C372.088 587.505 305.248 592.36 240.049 560.586C212.34 547.081 177.632 517.792 168.428 487.456C166.299 480.438 165.466 473.101 164.742 465.794C157.409 391.798 215.69 324.146 283.88 303.317C311.657 294.832 341.036 290.758 370.038 290.061C377.245 289.888 384.287 289.556 391.225 289.246C458.449 286.239 520.266 298.529 575.36 339.307C600.403 357.843 618.577 386.275 623.103 417.271C627.82 449.564 611.74 492.988 593.423 519.531Z" fill="#00D5CC"/>
<path d="M191.275 444.25C191.275 439.787 192.272 435.8 194.265 432.29C196.302 428.737 199.053 425.985 202.52 424.035C206.03 422.042 209.952 421.045 214.285 421.045C219.355 421.045 223.797 422.345 227.61 424.945C231.423 427.545 234.088 431.142 235.605 435.735H225.14C224.1 433.568 222.627 431.943 220.72 430.86C218.857 429.777 216.69 429.235 214.22 429.235C211.577 429.235 209.215 429.863 207.135 431.12C205.098 432.333 203.495 434.067 202.325 436.32C201.198 438.573 200.635 441.217 200.635 444.25C200.635 447.24 201.198 449.883 202.325 452.18C203.495 454.433 205.098 456.188 207.135 457.445C209.215 458.658 211.577 459.265 214.22 459.265C216.69 459.265 218.857 458.723 220.72 457.64C222.627 456.513 224.1 454.867 225.14 452.7H235.605C234.088 457.337 231.423 460.955 227.61 463.555C223.84 466.112 219.398 467.39 214.285 467.39C209.952 467.39 206.03 466.415 202.52 464.465C199.053 462.472 196.302 459.72 194.265 456.21C192.272 452.7 191.275 448.713 191.275 444.25ZM264.438 467.455C260.191 467.455 256.291 466.458 252.738 464.465C249.184 462.472 246.368 459.72 244.288 456.21C242.208 452.657 241.168 448.648 241.168 444.185C241.168 439.765 242.208 435.8 244.288 432.29C246.368 428.737 249.184 425.963 252.738 423.97C256.291 421.977 260.191 420.98 264.438 420.98C268.728 420.98 272.628 421.977 276.138 423.97C279.691 425.963 282.486 428.737 284.523 432.29C286.603 435.8 287.643 439.765 287.643 444.185C287.643 448.648 286.603 452.657 284.523 456.21C282.486 459.72 279.691 462.472 276.138 464.465C272.584 466.458 268.684 467.455 264.438 467.455ZM264.438 459.33C267.168 459.33 269.573 458.723 271.653 457.51C273.733 456.253 275.358 454.477 276.528 452.18C277.698 449.883 278.283 447.218 278.283 444.185C278.283 441.152 277.698 438.508 276.528 436.255C275.358 433.958 273.733 432.203 271.653 430.99C269.573 429.777 267.168 429.17 264.438 429.17C261.708 429.17 259.281 429.777 257.158 430.99C255.078 432.203 253.453 433.958 252.283 436.255C251.113 438.508 250.528 441.152 250.528 444.185C250.528 447.218 251.113 449.883 252.283 452.18C253.453 454.477 255.078 456.253 257.158 457.51C259.281 458.723 261.708 459.33 264.438 459.33ZM333.218 467H324.118L303.513 435.865V467H294.413V421.565H303.513L324.118 452.765V421.565H333.218V467ZM373.086 421.63V428.975H360.996V467H351.896V428.975H339.806V421.63H373.086ZM407.545 458.355H389.475L386.485 467H376.93L393.245 421.565H403.84L420.155 467H410.535L407.545 458.355ZM405.075 451.075L398.51 432.095L391.945 451.075H405.075ZM424.044 444.25C424.044 439.787 425.04 435.8 427.034 432.29C429.07 428.737 431.822 425.985 435.289 424.035C438.799 422.042 442.72 421.045 447.054 421.045C452.124 421.045 456.565 422.345 460.379 424.945C464.192 427.545 466.857 431.142 468.374 435.735H457.909C456.869 433.568 455.395 431.943 453.489 430.86C451.625 429.777 449.459 429.235 446.989 429.235C444.345 429.235 441.984 429.863 439.904 431.12C437.867 432.333 436.264 434.067 435.094 436.32C433.967 438.573 433.404 441.217 433.404 444.25C433.404 447.24 433.967 449.883 435.094 452.18C436.264 454.433 437.867 456.188 439.904 457.445C441.984 458.658 444.345 459.265 446.989 459.265C449.459 459.265 451.625 458.723 453.489 457.64C455.395 456.513 456.869 454.867 457.909 452.7H468.374C466.857 457.337 464.192 460.955 460.379 463.555C456.609 466.112 452.167 467.39 447.054 467.39C442.72 467.39 438.799 466.415 435.289 464.465C431.822 462.472 429.07 459.72 427.034 456.21C425.04 452.7 424.044 448.713 424.044 444.25ZM507.021 421.63V428.975H494.931V467H485.831V428.975H473.741V421.63H507.021ZM538.119 421.63V449.71C538.119 452.787 538.921 455.148 540.524 456.795C542.127 458.398 544.381 459.2 547.284 459.2C550.231 459.2 552.506 458.398 554.109 456.795C555.712 455.148 556.514 452.787 556.514 449.71V421.63H565.679V449.645C565.679 453.502 564.834 456.773 563.144 459.46C561.497 462.103 559.266 464.097 556.449 465.44C553.676 466.783 550.577 467.455 547.154 467.455C543.774 467.455 540.697 466.783 537.924 465.44C535.194 464.097 533.027 462.103 531.424 459.46C529.821 456.773 529.019 453.502 529.019 449.645V421.63H538.119ZM590.136 467.455C586.973 467.455 584.113 466.913 581.556 465.83C579.043 464.747 577.05 463.187 575.576 461.15C574.103 459.113 573.345 456.708 573.301 453.935H583.051C583.181 455.798 583.831 457.272 585.001 458.355C586.215 459.438 587.861 459.98 589.941 459.98C592.065 459.98 593.733 459.482 594.946 458.485C596.16 457.445 596.766 456.102 596.766 454.455C596.766 453.112 596.355 452.007 595.531 451.14C594.708 450.273 593.668 449.602 592.411 449.125C591.198 448.605 589.508 448.042 587.341 447.435C584.395 446.568 581.99 445.723 580.126 444.9C578.306 444.033 576.725 442.755 575.381 441.065C574.081 439.332 573.431 437.035 573.431 434.175C573.431 431.488 574.103 429.148 575.446 427.155C576.79 425.162 578.675 423.645 581.101 422.605C583.528 421.522 586.301 420.98 589.421 420.98C594.101 420.98 597.893 422.128 600.796 424.425C603.743 426.678 605.368 429.842 605.671 433.915H595.661C595.575 432.355 594.903 431.077 593.646 430.08C592.433 429.04 590.808 428.52 588.771 428.52C586.995 428.52 585.565 428.975 584.481 429.885C583.441 430.795 582.921 432.117 582.921 433.85C582.921 435.063 583.311 436.082 584.091 436.905C584.915 437.685 585.911 438.335 587.081 438.855C588.295 439.332 589.985 439.895 592.151 440.545C595.098 441.412 597.503 442.278 599.366 443.145C601.23 444.012 602.833 445.312 604.176 447.045C605.52 448.778 606.191 451.053 606.191 453.87C606.191 456.297 605.563 458.55 604.306 460.63C603.05 462.71 601.208 464.378 598.781 465.635C596.355 466.848 593.473 467.455 590.136 467.455Z" fill="white"/>
<path d="M177.243 632.06C176.961 631.504 176.68 630.947 176.398 630.391Z" fill="#FBFFEA"/>
<path d="M255.146 663.953C261.648 714.959 198.125 764.258 148.672 744.837C112.32 730.56 93.2942 688.029 105.209 651.217C118.605 609.828 170.947 590.231 210.172 606.592C234.184 616.608 251.805 637.737 255.146 663.953Z" fill="#2199A1"/>
<path d="M258.146 657.953C264.648 708.959 201.125 758.258 151.672 738.837C115.32 724.56 96.2942 682.029 108.209 645.217C121.605 603.828 173.947 584.231 213.172 600.592C237.184 610.608 254.805 631.737 258.146 657.953Z" fill="#1BB9C2"/>
<path d="M240.145 688.061C223.06 722.479 167.394 749.911 135.271 717.517C117.283 699.377 112.105 670.462 119.352 646.383C121.202 640.235 123.839 634.237 128.044 629.52C132.798 624.187 139.246 620.807 145.583 617.592C158.124 611.23 171.033 605.016 185.023 603.099C199.014 601.182 214.464 604.157 225.054 614.177C231.263 620.052 235.375 627.88 238.54 635.862C245.206 652.675 247.978 672.28 240.145 688.061Z" fill="#FCE25E"/>
<path d="M153.089 621.81C152.373 621.364 151.259 621.772 151.288 622.721C151.384 625.957 153.757 629.571 155.292 632.353C155.843 633.351 156.779 633.745 157.832 633.647C158.55 633.58 158.901 633.191 159.299 632.635C159.739 632.019 159.781 630.957 159.381 630.283C157.783 627.593 155.774 623.482 153.089 621.81Z" fill="#FB5A21"/>
<path d="M201.873 706.271C200.968 704.591 200.243 702.363 198.295 701.834C197.534 701.628 196.651 701.942 196.43 702.778C195.875 704.879 197.434 706.673 198.527 708.421C199.649 710.215 200.806 712.252 202.508 713.516C203.447 714.213 204.455 713.241 204.34 712.252C204.099 710.168 202.858 708.1 201.873 706.271Z" fill="#FB5A21"/>
<path d="M141.116 686.842C138.777 686.566 136.885 688.407 135.009 689.595C132.916 690.921 130.614 692.182 128.96 694.071C128.242 694.89 128.788 696.555 130.054 696.234C132.632 695.581 134.891 694.057 137.15 692.704C139.093 691.54 141.385 690.741 142.225 688.493C142.514 687.722 141.853 686.929 141.116 686.842Z" fill="#FB5A21"/>
<path d="M224.706 640.283C221.796 640.542 217.709 643.479 217.078 646.49C216.882 647.426 217.722 648.224 218.607 647.842C219.889 647.287 220.877 646.273 222.051 645.527C223.272 644.751 224.661 644.341 225.875 643.597C227.549 642.569 226.643 640.11 224.706 640.283Z" fill="#FB5A21"/>
<path d="M193.551 658.27C190.059 659.248 187.034 661.598 183.917 663.419C182.487 664.255 181.06 665.089 179.652 665.952C178.753 664.966 177.516 664.297 176.262 664.172C176.21 664.164 176.157 664.166 176.104 664.16C176.019 664.155 175.934 664.145 175.85 664.145C175.311 664.105 174.771 664.143 174.247 664.25C172.779 661.064 171.027 657.996 169.386 654.892C167.163 650.687 165.465 645.433 161.507 642.696C160.788 642.199 159.602 642.685 159.648 643.637C159.88 648.473 163.32 652.61 165.713 656.751C167.525 659.888 169.242 663.122 171.236 666.154C168.325 670.068 172.859 677.089 177.944 674.556C179.847 673.608 181.095 671.46 181.016 669.278C182.806 668.358 184.568 667.383 186.338 666.418C189.283 664.812 192.597 663.551 195.053 661.238C196.181 660.175 195.186 657.812 193.551 658.27Z" fill="#FB5A21"/>
<path d="M130.503 668.164C129.655 667.319 128.519 667.483 127.448 667.606C126.3 667.737 124.923 667.757 123.922 668.366C123.265 668.766 123.3 669.782 124.076 670.077C125.177 670.495 126.464 670.297 127.601 670.227C128.692 670.161 129.945 670.181 130.6 669.175C130.786 668.89 130.758 668.418 130.503 668.164Z" fill="#FB5A21"/>
<path d="M133.937 646.934C132.947 646.267 131.886 645.879 130.734 645.702C130.042 645.595 129.736 646.652 130.334 647.01C131.193 647.523 132.036 648.117 132.769 648.809C133.434 649.437 134.083 650.293 135.062 650.156C135.322 650.12 135.526 649.905 135.607 649.661C135.989 648.508 134.781 647.502 133.937 646.934Z" fill="#FB5A21"/>
<path d="M153.641 705.535C152.692 706.259 152.396 707.812 152.081 708.93C151.727 710.184 151.373 711.459 151.323 712.78C151.288 713.726 152.538 714.166 153.032 713.379C153.721 712.283 154.139 711.03 154.546 709.794C154.91 708.689 155.528 707.256 155.162 706.068C154.94 705.349 154.217 705.096 153.641 705.535Z" fill="#FB5A21"/>
<path d="M176.858 709.886C176.25 711.258 176.381 712.743 176.487 714.238C176.586 715.63 176.638 717.085 177.317 718.346C177.723 719.1 178.645 718.935 178.949 718.246C179.525 716.938 179.438 715.338 179.389 713.914C179.339 712.469 179.3 711.082 178.594 709.779C178.159 708.978 177.183 709.154 176.858 709.886Z" fill="#FB5A21"/>
<path d="M222.605 686.47C221.621 686.08 220.535 686.026 219.51 686.106C218.57 686.18 218.509 687.787 219.432 688.007C220.411 688.24 221.156 688.709 222.007 689.244C222.801 689.743 224.257 690.34 224.638 689.067C225.004 687.844 223.556 686.847 222.605 686.47Z" fill="#FB5A21"/>
<path d="M233.305 663.569C232.126 663.614 231.024 663.976 229.909 664.329C228.962 664.628 227.877 664.925 227.544 665.968C227.447 666.271 227.518 666.679 227.755 666.913C228.547 667.695 229.557 667.529 230.563 667.404C231.705 667.262 232.918 667.09 233.969 666.624C235.321 666.024 234.88 663.509 233.305 663.569Z" fill="#FB5A21"/>
<path d="M183.932 613.876C183.019 615.379 182.841 618.021 184.191 619.419C184.826 620.076 186.277 619.819 186.192 618.727C186.134 617.988 185.887 617.295 185.764 616.562C185.65 615.875 185.687 615.194 185.727 614.506C185.786 613.513 184.435 613.047 183.932 613.876Z" fill="#FB5A21"/>
<path d="M209.097 622.804C208.008 623.278 207.265 624.294 206.52 625.199C205.696 626.199 204.907 627.231 204.104 628.25C203.361 629.193 204.886 630.491 205.725 629.665C207.323 628.09 209.834 626.322 210.546 624.085C210.828 623.194 209.875 622.466 209.097 622.804Z" fill="#FB5A21"/>
<path d="M488.721 691.749C430.746 710.825 364.423 726.273 308.321 693.325C297.093 686.731 286.846 678.452 278.386 668.53C273.077 662.304 267.881 654.918 264.238 647.076C268.821 645.067 273.033 642.423 276.459 638.966C283.478 631.88 285.352 620.141 277.45 612.819C270.634 606.503 260.922 609.903 257.523 617.91C253.823 626.624 255.828 636.1 259.228 644.549C257.15 645.366 255.169 646.013 253.444 646.467C223.556 654.332 191.95 642.654 166.513 627.247C142.781 612.873 121.403 594.269 103.801 572.83C68.0922 529.336 49.5611 472.757 59.8221 416.712C64.8211 389.407 76.3751 363.102 94.6251 342.038C113.795 319.912 139.122 304.154 165.783 292.591C195.522 279.693 227.098 271.933 258.369 263.774C274.654 259.525 290.922 255.16 306.914 249.896C320.458 245.438 334.289 240.607 346.259 232.69C347.207 232.063 348.145 231.389 349.077 230.692C363.481 233.11 378.736 232.004 392.079 227.913C414.027 221.183 431.31 204.169 432.2 180.301C433.234 152.554 414.998 127.816 406.073 102.646C399.378 83.766 398.858 64.02 402.969 45H398.811C398.385 47.034 398.002 49.09 397.669 51.172C395.456 65.028 395.653 79.249 398.995 92.913C402.409 106.872 408.862 119.895 414.814 132.896C426.191 157.745 437.748 189.319 414.275 211.24C398.593 225.886 374.624 229.92 353.405 227.153C369.591 212.658 380.65 188.303 365.898 169.085C352.653 151.831 325.588 149.736 311.673 167.175C305.29 175.174 302.282 185.884 303.99 196.016C305.896 207.322 314.032 216.308 323.718 221.881C329.895 225.435 336.729 228.002 343.866 229.658C328.912 239.486 309.851 245.026 294.053 249.802C233.851 268.001 168.106 277.059 116.697 316.136C72.2491 349.922 50.0921 403.985 53.3061 459.292C56.5101 514.422 85.3542 564.928 125.732 601.591C146.636 620.571 170.917 637.265 197.779 646.464C211.399 651.128 225.962 653.769 240.383 652.597C247 652.059 254.227 650.812 260.912 648.39C265.92 659.245 273 669.105 281.448 677.546C299.488 695.572 323.42 707.503 348.226 712.892C379.008 719.579 411.164 716.165 441.456 708.65C457.711 704.618 473.52 699.262 489.118 693.194C490 692.853 489.655 691.442 488.721 691.749ZM343.455 225.322C330.421 222.168 316.654 215.638 310.39 203.07C304.614 191.48 307.741 176.78 316.533 167.56C325.919 157.716 340.468 156.507 352.244 162.695C365.477 169.648 371.07 184.111 367.563 198.426C364.636 210.377 357.592 219.368 348.479 226.385C346.779 226.072 345.101 225.72 343.455 225.322ZM260.076 634.858C258.994 629.612 258.963 623.293 261.521 618.452C264.653 612.524 271.94 611.667 276.088 617.114C284.876 628.654 273.481 638.039 262.554 643.121C261.502 640.397 260.649 637.635 260.076 634.858Z" fill="#FB5A21"/>
<path d="M628.447 713.681C605.767 727.251 579.987 735.921 554.327 737.391C525.107 739.071 496.027 731.411 471.827 711.021C471.177 710.471 470.537 709.921 469.897 709.351C468.747 708.321 467.617 707.241 466.557 706.121C463.717 703.121 461.357 699.751 460.247 695.811C458.297 688.901 460.627 681.341 464.837 675.531C469.037 669.721 474.937 665.381 480.867 661.351C490.597 654.761 501.067 648.611 512.697 646.911C522.847 645.431 534.097 648.031 541.207 655.171C542.247 656.211 543.197 657.351 544.037 658.591C544.147 658.741 544.247 658.901 544.337 659.061C546.257 661.981 547.597 665.271 549.577 668.161C554.977 676.011 564.817 680.011 574.347 680.111C583.877 680.201 593.137 676.851 601.587 672.461C621.927 661.891 638.657 645.241 651.887 626.521C657.867 618.061 663.347 607.031 658.647 597.791C656.167 592.901 651.417 589.821 646.987 586.461C646.027 585.731 645.077 584.991 644.167 584.211C643.627 583.751 643.117 583.281 642.627 582.791C625.807 566.111 636.567 534.821 648.887 519.131C657.817 507.761 674.707 488.771 691.337 492.561C693.437 493.041 695.337 494.141 697.127 495.341C702.577 498.991 706.847 503.551 710.387 508.631C711.447 510.131 712.427 511.681 713.367 513.261C718.737 522.361 722.447 532.671 726.757 542.351C756.237 608.491 679.267 683.281 628.447 713.681Z" fill="#FB5A21"/>
<path d="M637.056 698.013C614.376 711.579 588.6 720.251 562.934 721.722C533.716 723.397 504.641 715.739 480.442 695.345C475.492 691.173 470.614 686.364 468.859 680.136C468.036 677.216 467.985 674.178 468.51 671.204C467.188 672.559 465.949 673.991 464.834 675.532C460.63 681.342 458.301 688.906 460.246 695.809C462.002 702.037 466.88 706.846 471.83 711.018C496.029 731.413 525.104 739.07 554.322 737.395C579.987 735.924 605.763 727.252 628.443 713.686C660.537 694.49 703.044 657.592 722.602 616.351C700.895 651.119 665.022 681.286 637.056 698.013Z" fill="#FB5A21"/>
<path d="M644.165 584.214C649.233 588.558 655.625 591.84 658.647 597.792C661.023 602.47 660.788 607.607 659.205 612.638C659.636 612.043 660.073 611.453 660.496 610.854C666.479 602.391 671.952 591.361 667.259 582.12C664.236 576.169 657.845 572.886 652.776 568.542C639.291 556.983 640.956 537.149 647.595 520.84C635.491 537.49 625.832 568.501 644.165 584.214Z" fill="#FB5A21"/>
<path d="M713.367 513.261C707.947 514.491 702.647 516.241 697.557 518.481C687.707 522.801 678.527 528.961 670.947 536.631C662.987 544.691 656.717 554.301 652.447 564.781C649.517 571.961 648.127 579.131 646.987 586.461C646.027 585.731 645.077 584.991 644.167 584.211C643.627 583.751 643.117 583.281 642.627 582.791C644.927 564.241 655.677 545.331 667.967 533.041C675.967 525.041 685.407 518.581 695.787 514.041C699.917 512.231 705.077 510.131 710.387 508.631C711.447 510.131 712.427 511.681 713.367 513.261Z" fill="#FB5A21"/>
<path d="M544.337 659.061C541.347 659.751 538.377 660.481 535.427 661.291C525.247 664.071 515.207 667.611 505.857 672.541C496.957 677.251 488.657 683.321 481.837 690.741C476.567 696.491 473.127 702.721 469.897 709.351C468.747 708.321 467.617 707.241 466.557 706.121C472.527 690.971 487.527 678.161 500.527 670.541C510.567 664.661 521.557 660.561 532.727 657.411C535.537 656.611 538.367 655.871 541.207 655.171C542.247 656.211 543.197 657.351 544.037 658.591C544.147 658.741 544.247 658.901 544.337 659.061Z" fill="#FB5A21"/>
<path d="M717.684 561.588C716.804 555.51 707.824 556.639 708.241 562.736C709.264 577.669 707.62 591.328 703.422 605.692C701.407 612.586 699.29 619.088 695.733 625.364C693.893 628.61 691.999 631.838 689.749 634.818C687.921 637.238 685.983 638.947 685.424 641.968C685.308 642.592 685.936 642.917 686.455 642.783C692.122 641.319 697.288 632.82 700.433 628.226C704.775 621.882 709.327 614.992 712.19 607.843C717.891 593.61 719.88 576.763 717.684 561.588Z" fill="white"/>
<path d="M716.655 542.659C716.421 541.747 715.926 540.825 715.147 540.252C714.814 540.049 714.481 539.846 714.148 539.643C713.388 539.312 712.597 539.194 711.774 539.289C711.372 539.286 710.97 539.284 710.568 539.281C709.37 539.273 708.202 540.158 707.448 541.016C706.458 542.144 706.23 543.746 706.59 545.15C707.296 547.899 710.23 549.401 712.901 548.38C713.266 548.24 713.632 548.101 713.997 547.961C716.101 547.158 717.201 544.784 716.655 542.659Z" fill="white"/>
<path d="M605.745 673.939C600.169 675.465 594.979 678.908 589.634 681.148C583.79 683.598 577.729 685.642 571.441 686.573C559.334 688.365 547.644 685.695 538.218 677.771C536.853 676.623 534.727 678.571 535.929 679.972C543.866 689.227 556.47 692.359 568.272 691.553C575.188 691.081 582.03 689.089 588.468 686.602C594.8 684.156 602.227 681.448 607.568 677.204C609.332 675.802 607.748 673.391 605.745 673.939Z" fill="white"/>
<path d="M625.939 662.948C625.756 662.387 625.157 661.952 624.585 661.878C622.517 661.612 621.406 663.5 620.261 664.945C619.104 666.404 617.794 667.998 617.366 669.837C617.087 671.037 618.509 672.067 619.583 671.59C621.292 670.831 622.611 669.194 623.81 667.798C625.053 666.353 626.603 664.978 625.939 662.948Z" fill="white"/>
<path d="M639.171 279.589C633.495 287.758 627.82 295.928 622.144 304.097C622.134 299.988 619.819 296.289 617.63 292.811C605.719 273.887 595.236 254.063 586.301 233.565C596.111 240.362 604.085 249.419 612.63 257.75C620.82 265.736 629.604 273.113 638.884 279.8C637.901 279.356 636.919 278.912 635.936 278.468" fill="#1BB9C2"/>
<path d="M532.037 178.477C551.822 215.543 566.308 253.906 591.5 287.535C593.802 290.197 626.352 280.269 629.63 279.794C643.599 277.771 664.038 272.789 677.902 271.664C649.762 254.431 616.554 237.741 589.545 218.801C579.651 211.863 569.757 204.926 559.863 197.988C553.163 193.291 535.803 185.531 532.037 178.477Z" fill="#FFAE44"/>
<path d="M536.898 183.895C564.883 212.295 592.867 240.695 620.853 269.096C623.367 271.647 626.323 273.455 628.973 275.781C630.567 277.18 632.158 280.029 634.089 280.796C634.878 281.11 635.764 280.999 636.605 280.881C640.599 280.319 642.83 278.381 646.802 277.677C644.411 278.101 638.637 272.991 636.339 271.432C631.189 267.939 626.488 263.406 621.698 259.433C611.984 251.376 602.365 243.204 592.842 234.921C573.798 218.353 555.143 201.338 536.898 183.895Z" fill="#1BB9C2"/>
<path d="M559.072 376.792C548.986 375.169 538.516 375.775 528.331 375.778L495.333 375.786C473.667 375.791 452.002 375.797 430.336 375.802C387.339 375.812 344.34 375.738 301.343 375.835C276.941 375.89 252.676 375.966 228.347 377.982C226.415 378.142 226.411 380.829 228.347 380.99C271.499 384.566 315.065 383.142 358.34 383.152C401.338 383.162 444.336 383.173 487.333 383.183C499.332 383.186 511.332 383.189 523.331 383.192C535.137 383.195 547.382 384.06 559.072 382.179C561.738 381.749 561.74 377.221 559.072 376.792Z" fill="#D1FCFF"/>
<path d="M552.762 505.415C543.025 503.826 533.228 503.916 523.379 503.663C513.063 503.398 502.749 503.319 492.43 503.29C471.797 503.233 451.164 503.176 430.532 503.119C389.267 503.005 348.001 503.11 306.736 503.121C295.421 503.124 284.107 503.127 272.792 503.13C261.449 503.133 249.309 502.1 238.168 504.512C235.729 505.04 235.727 508.918 238.168 509.446C247.766 511.524 258.031 510.791 267.801 510.827C278.117 510.865 288.434 510.832 298.75 510.835C319.383 510.84 340.015 510.846 360.648 510.851C401.914 510.861 443.179 510.804 484.444 510.69C495.759 510.659 507.075 510.667 518.388 510.423C529.856 510.176 541.428 510.393 552.763 508.543C554.309 508.289 554.31 505.668 552.762 505.415Z" fill="#D1FCFF"/>
<path d="M702.255 479.996C700.744 479.413 699.824 481.785 701.172 482.566C713.515 489.72 724.016 498.607 731.594 510.86C739.115 523.021 742.55 536.334 743.765 550.478C743.973 552.895 747.352 552.915 747.538 550.478C749.74 521.659 729.093 490.355 702.255 479.996Z" fill="#FB5A21"/>
<path d="M557.401 633.863C553.005 630.003 545.291 629.665 539.669 628.974C532.445 628.087 525.031 627.983 517.786 628.69C504.195 630.016 490.122 633.718 478.618 641.285C477.619 641.942 478.236 643.84 479.485 643.341C491.947 638.366 504.303 634.256 517.786 633.284C523.968 632.838 530.158 632.898 536.319 633.606C540.004 634.03 543.665 634.646 547.281 635.473C550.246 636.151 553.062 637.349 556.118 636.964C557.515 636.787 558.716 635.018 557.401 633.863Z" fill="#FB5A21"/>
<path d="M628.306 728.527C623.809 728.334 618.847 732.659 614.874 734.6C609.537 737.208 604.032 739.451 598.4 741.342C587.413 745.03 575.978 747.397 564.436 748.426C541.052 750.511 519.1 746.205 496.898 739.25C495.69 738.872 494.899 740.706 496.031 741.306C516.705 752.268 542.162 755.338 565.239 753.541C577 752.625 588.648 750.312 599.857 746.632C605.186 744.883 610.418 742.814 615.513 740.469C619.881 738.458 627.812 735.967 629.954 731.401C630.576 730.079 629.836 728.593 628.306 728.527Z" fill="#FB5A21"/>
<path d="M105.945 608.054C96.8267 616.077 90.1187 626.869 86.2447 638.329C82.5807 649.165 80.2537 663.016 84.3117 674.058C84.6637 675.015 86.0977 674.9 86.1297 673.812C86.4797 662.17 86.0527 651.366 89.8887 640.115C93.7377 628.828 100.362 619.241 108.91 611.021C110.875 609.132 107.956 606.284 105.945 608.054Z" fill="#FB5A21"/>
<path d="M252.346 709.955C249.462 713.431 247.777 717.852 245.2 721.587C242.261 725.846 238.813 729.742 234.981 733.218C227.075 740.389 217.974 744.841 208.194 748.848C206.624 749.491 207.21 751.628 208.892 751.379C219.333 749.836 229.199 744.215 237.156 737.463C241.041 734.166 244.541 730.436 247.629 726.384C250.769 722.264 254.755 717.047 255.52 711.801C255.757 710.168 253.71 708.311 252.346 709.955Z" fill="#FB5A21"/>
<path d="M271.676 721.376C268.278 723.257 265.955 726.911 263.222 729.608C259.992 732.795 256.525 735.703 252.813 738.312C251.06 739.544 252.681 742.433 254.516 741.226C258.384 738.683 262.073 735.874 265.416 732.665C268.325 729.873 272.112 726.52 273.07 722.448C273.26 721.64 272.414 720.967 271.676 721.376Z" fill="#FB5A21"/>
<path d="M179.313 159.632C178.689 156.561 178 153.509 177.163 150.489C176.694 148.797 173.772 149.054 173.986 150.919C174.318 153.808 174.775 156.663 175.287 159.525C175.727 161.983 175.762 164.993 177.747 166.713C178.251 167.15 179.133 167.162 179.477 166.49C180.598 164.3 179.785 161.956 179.313 159.632Z" fill="#FB5A21"/>
<path d="M146.659 177.312C146.216 176.376 145.887 175.938 145.005 175.317C144.214 174.76 143.372 174.294 142.627 173.67C141.129 172.415 139.937 170.848 138.963 169.164C138.111 167.692 135.594 168.662 136.157 170.347C136.927 172.652 138.187 174.67 139.93 176.367C140.726 177.142 141.634 177.91 142.609 178.456C143.85 179.151 144.745 179.29 146.043 178.827C146.708 178.589 146.958 177.944 146.659 177.312Z" fill="#FB5A21"/>
<path d="M124.292 202.399C121.954 199.805 118.633 198.541 115.516 197.096C112.397 195.649 109.231 194.084 105.935 193.087C104.787 192.74 104.301 194.28 105.167 194.908C108.249 197.141 111.755 198.848 115.124 200.609C117.92 202.07 120.518 203.569 123.695 203.841C124.473 203.906 124.741 202.897 124.292 202.399Z" fill="#FB5A21"/>
<path d="M104.476 242.162C102.852 240.588 100.519 240.733 98.3622 240.479C95.5112 240.143 92.6212 239.714 89.7472 239.731C88.4302 239.739 88.1832 241.635 89.4392 242.01C92.1962 242.832 95.0922 243.231 97.9262 243.707C100.086 244.07 102.259 244.842 104.268 243.782C104.852 243.473 104.937 242.609 104.476 242.162Z" fill="#FB5A21"/>
<path d="M101.439 273.707C98.5972 272.473 94.7632 273.107 91.7472 273.297C89.6982 273.426 89.6942 276.355 91.7472 276.485C94.7632 276.675 98.5972 277.309 101.439 276.075C102.337 275.685 102.337 274.097 101.439 273.707Z" fill="#FB5A21"/>
<path d="M228.752 152.614C228.558 152.003 227.806 151.608 227.22 151.991C225.258 153.271 224.771 155.782 224.033 157.909C223.041 160.768 222.123 163.583 221.492 166.545C221.2 167.917 223.159 168.924 223.87 167.547C225.162 165.042 226.172 162.508 227.159 159.868C227.995 157.634 229.508 155 228.752 152.614Z" fill="#FB5A21"/>
<path d="M278.083 169.671C276.005 169.046 273.693 170.239 271.915 171.252C269.885 172.409 268.137 174.004 266.653 175.797C265.406 177.304 267.415 179.428 268.841 177.985C270.292 176.516 271.912 175.336 273.725 174.349C275.325 173.479 277.333 173.088 278.642 171.786C279.33 171.102 278.987 169.943 278.083 169.671Z" fill="#FB5A21"/>
<path d="M292.619 201.279C290.915 202.626 289.526 203.965 287.374 204.575C285.86 205.004 286.089 207.528 287.757 207.406C290.665 207.194 293.93 205.515 294.706 202.494C295.041 201.193 293.552 200.541 292.619 201.279Z" fill="#FB5A21"/>
<path d="M422.814 604.731C411.719 604.615 400.347 606.937 389.241 607.619C377.695 608.328 366.12 608.609 354.552 608.469C331.77 608.192 309.077 606.147 286.428 603.821C284.601 603.633 284.216 606.627 285.995 607.021C308.495 611.995 331.538 614.053 354.552 614.401C366.121 614.576 377.692 614.305 389.241 613.596C400.391 612.911 412.707 612.847 423.499 609.795C426.298 609.004 425.741 604.762 422.814 604.731Z" fill="#1BB9C2"/>
<path d="M564.729 305.884C558.356 301.026 548.864 298.454 541.406 295.66C533.041 292.526 524.556 289.716 515.975 287.234C498.923 282.3 481.508 278.68 463.913 276.34C446.201 273.985 428.315 272.922 410.45 273.313C393.218 273.689 374.434 274.493 357.825 279.463C357.014 279.706 357.132 281.023 358.031 280.982C375.249 280.195 392.265 277.518 409.557 277.211C427.122 276.898 444.716 277.823 462.141 280.071C479.683 282.334 497.059 285.945 514.06 290.821C522.36 293.201 530.573 295.887 538.674 298.876C542.585 300.319 546.47 301.832 550.326 303.417C554.621 305.182 558.988 307.72 563.556 308.67C565.325 309.036 566.079 306.913 564.729 305.884Z" fill="#1BB9C2"/>
<path d="M682.458 350.972C674.257 343.664 664.908 337.769 656.786 330.368C652.95 326.873 649.37 323.038 646.445 318.74C643.456 314.348 641.773 309.535 639.653 304.715C639.301 303.913 638.033 304.344 638.051 305.149C638.384 319.852 653.068 332.106 663.588 340.369C676.535 350.54 691.993 360.915 696.5 377.785C698.602 385.652 697.394 393.991 692.31 400.362C691.06 396.131 688.217 392.508 683.006 390.167C677.446 387.67 670.903 388.808 667.324 393.977C664.121 398.604 664.31 404.761 668.825 408.459C675.451 413.887 683.171 412.316 689.37 407.851C689.281 415.574 684.827 422.856 681.132 429.443C679.914 431.615 683.158 433.503 684.464 431.391C688.776 424.416 693.606 413.771 693.052 404.69C696.355 401.35 698.898 397.262 700.087 393.332C704.984 377.152 693.96 361.222 682.458 350.972ZM681.477 407.469C676.83 408.445 669.398 407.156 668.888 401.192C668.399 395.473 674.398 391.713 679.506 392.967C684.276 394.138 687.622 398.243 688.796 402.87C688.872 403.168 688.917 403.464 688.977 403.762C686.794 405.544 684.251 406.886 681.477 407.469Z" fill="#1BB9C2"/>
</g>
<defs>
<clipPath id="clip0_2095_110">
<rect width="800" height="800" fill="white"/>
</clipPath>
</defs>
</svg>
