<svg width="500" height="500" viewBox="0 0 500 500" fill="none" xmlns="http://www.w3.org/2000/svg">
<g clip-path="url(#clip0_116_675)">
<path d="M500 0H0V500H500V0Z" fill="white"/>
<path d="M433.065 250.903C414.687 231.041 392.664 221.431 372.389 207.044C352.889 193.208 339.014 170.978 321.568 152.659C293.06 122.726 260.111 100.282 226.578 86.5844C192.67 72.7334 151.249 65.0619 120.341 95.7636C105.139 110.864 92.7664 134.284 87.7252 160.731C81.7267 192.201 87.5969 224.355 90.474 255.805C92.8119 281.361 81.8739 295.458 68.9865 309.979C38.8115 343.981 39.6497 405.503 58.2952 449.602H446.646C469.707 386.934 479.849 301.466 433.065 250.903Z" fill="#F6F5F5"/>
<path d="M60.2335 275.692C68.1832 275.692 74.6277 266.025 74.6277 254.101C74.6277 242.176 68.1832 232.51 60.2335 232.51C52.2838 232.51 45.8394 242.176 45.8394 254.101C45.8394 266.025 52.2838 275.692 60.2335 275.692Z" fill="#F6F5F5"/>
<path d="M401.076 178.86C412.827 178.86 422.354 164.57 422.354 146.944C422.354 129.317 412.827 115.028 401.076 115.028C389.325 115.028 379.799 129.317 379.799 146.944C379.799 164.57 389.325 178.86 401.076 178.86Z" fill="#F6F5F5"/>
<path d="M69.1143 198.673C69.6643 193.456 67.2906 188.557 63.8123 187.732C60.3341 186.907 57.0685 190.468 56.5184 195.685C55.9684 200.902 58.3421 205.801 61.8204 206.626C65.2986 207.451 68.5642 203.89 69.1143 198.673Z" fill="#F6F5F5"/>
<path d="M420.015 211.32C423.268 209.299 424.813 203.704 423.466 198.823C422.118 193.943 418.388 191.625 415.134 193.647C411.881 195.669 410.336 201.264 411.683 206.144C413.031 211.024 416.761 213.342 420.015 211.32Z" fill="#F6F5F5"/>
<path d="M45.3566 448.118C26.8885 424.483 26.7188 383.129 34.743 352.631C43.6777 318.672 64.6205 290.718 92.2018 275.938C92.8718 275.581 93.5413 275.228 94.2123 274.877L94.4608 275.952C93.792 276.3 93.124 276.653 92.4563 277.008C65.081 291.678 44.302 319.394 35.4476 353.048C27.5221 383.17 27.6646 423.982 45.8486 447.253L45.3566 448.118Z" fill="#DADADA"/>
<path d="M434.062 449.44L433.389 448.921C447.028 409.152 455.107 369.046 456.751 332.941C458.372 297.345 453.665 267.986 443.138 248.037C433.584 229.933 414.575 211.194 378.26 224.727L378.078 223.624C414.781 209.946 434.04 228.966 443.732 247.332C454.378 267.505 459.141 297.136 457.507 333.019C455.855 369.278 447.748 409.536 434.062 449.44Z" fill="#DADADA"/>
<path d="M130.425 131.512L129.691 131.23C129.742 130.932 130.987 123.809 135.15 114.392C138.985 105.718 146.126 93.4359 158.363 84.1844C172.378 73.5897 190.018 69.0952 210.792 70.8229C236.789 72.9869 267.789 84.9607 302.931 106.413L302.646 107.465C267.581 86.0609 236.663 74.1144 210.75 71.9577C190.107 70.2382 172.598 74.6949 158.704 85.1992C146.615 94.3379 139.566 106.46 135.782 115.02C131.689 124.278 130.437 131.441 130.425 131.512Z" fill="#DADADA"/>
<path d="M397.904 139.576V425.491C397.904 429.48 395.745 432.718 393.086 432.718H122.187C119.528 432.718 117.369 429.48 117.369 425.491V139.576C117.369 135.587 119.528 132.349 122.187 132.349H393.086C395.745 132.349 397.904 135.587 397.904 139.576Z" fill="#D3DFFF"/>
<path d="M389.382 156.245H125.89V395.849H389.382V156.245Z" fill="white"/>
<path d="M389.761 396.417H125.511V155.677H389.761V396.417ZM126.268 395.28H389.004V156.814H126.268V395.28Z" fill="#86A7FF"/>
<path d="M389.382 141.346H125.89V156.245H389.382V141.346Z" fill="white"/>
<path d="M389.761 156.814H125.511V140.778H389.761V156.814ZM126.268 155.677H389.004V141.915H126.268V155.677Z" fill="#86A7FF"/>
<path d="M138.275 152.238C137.01 152.238 135.98 150.694 135.98 148.796C135.98 146.898 137.01 145.354 138.275 145.354C139.541 145.354 140.57 146.898 140.57 148.796C140.57 150.694 139.541 152.238 138.275 152.238ZM138.275 146.49C137.428 146.49 136.738 147.524 136.738 148.796C136.738 150.067 137.428 151.102 138.275 151.102C139.123 151.102 139.812 150.067 139.812 148.796C139.813 147.524 139.123 146.49 138.275 146.49Z" fill="#86A7FF"/>
<path d="M145.939 152.238C144.674 152.238 143.644 150.694 143.644 148.796C143.644 146.898 144.674 145.354 145.939 145.354C147.204 145.354 148.233 146.898 148.233 148.796C148.233 150.694 147.204 152.238 145.939 152.238ZM145.939 146.49C145.091 146.49 144.402 147.524 144.402 148.796C144.402 150.067 145.091 151.102 145.939 151.102C146.786 151.102 147.476 150.067 147.476 148.796C147.476 147.524 146.786 146.49 145.939 146.49Z" fill="#86A7FF"/>
<path d="M153.602 152.238C152.337 152.238 151.308 150.694 151.308 148.796C151.308 146.898 152.337 145.354 153.602 145.354C154.867 145.354 155.897 146.898 155.897 148.796C155.897 150.694 154.867 152.238 153.602 152.238ZM153.602 146.49C152.755 146.49 152.065 147.524 152.065 148.796C152.065 150.067 152.755 151.102 153.602 151.102C154.45 151.102 155.139 150.067 155.139 148.796C155.139 147.524 154.45 146.49 153.602 146.49Z" fill="#86A7FF"/>
<path d="M411.735 428.208H103.536V449.647H411.735V428.208Z" fill="#D3DFFF"/>
<path d="M412.161 450.285H103.111V427.57H412.161V450.285ZM103.962 449.009H411.31V428.846H103.962V449.009Z" fill="#86A7FF"/>
<path d="M271.205 418.025H244.067C242.374 418.025 240.988 415.946 240.988 413.406V410.649C240.988 408.109 242.374 406.03 244.067 406.03H271.205C272.899 406.03 274.284 408.109 274.284 410.649V413.406C274.284 415.947 272.899 418.025 271.205 418.025Z" fill="white"/>
<path d="M270.785 418.593H244.487C242.349 418.593 240.609 415.984 240.609 412.777V411.278C240.609 408.071 242.349 405.462 244.487 405.462H270.785C272.924 405.462 274.663 408.071 274.663 411.278V412.777C274.663 415.984 272.924 418.593 270.785 418.593ZM244.487 406.599C242.766 406.599 241.367 408.698 241.367 411.278V412.777C241.367 415.357 242.766 417.456 244.487 417.456H270.785C272.506 417.456 273.905 415.357 273.905 412.777V411.278C273.905 408.698 272.505 406.599 270.785 406.599H244.487Z" fill="#86A7FF"/>
<path d="M352.029 261.885H163.242C156.42 261.885 150.869 253.559 150.869 243.325V242.085C150.869 231.852 156.42 223.526 163.242 223.526H352.029C358.852 223.526 364.402 231.852 364.402 242.085V243.325C364.402 253.559 358.852 261.885 352.029 261.885ZM163.242 224.662C156.837 224.662 151.627 232.478 151.627 242.085V243.326C151.627 252.933 156.837 260.749 163.242 260.749H352.029C358.434 260.749 363.645 252.933 363.645 243.326V242.085C363.645 232.478 358.434 224.662 352.029 224.662H163.242Z" fill="#86A7FF"/>
<path d="M185.653 249.639H162.825C160.731 249.639 159.017 247.069 159.017 243.926V241.484C159.017 238.342 160.73 235.771 162.825 235.771H185.653C187.748 235.771 189.462 238.341 189.462 241.484V243.926C189.462 247.069 187.748 249.639 185.653 249.639Z" fill="#D3DFFF"/>
<path d="M222.642 249.639H202.686C200.564 249.639 198.827 247.035 198.827 243.851V241.559C198.827 238.376 200.564 235.771 202.686 235.771H222.642C224.764 235.771 226.501 238.376 226.501 241.559V243.851C226.501 247.035 224.764 249.639 222.642 249.639Z" fill="#D3DFFF"/>
<path d="M265.17 249.639H238.282C236.045 249.639 234.214 246.893 234.214 243.537V241.873C234.214 238.517 236.045 235.771 238.282 235.771H265.17C267.407 235.771 269.238 238.517 269.238 241.873V243.537C269.238 246.893 267.407 249.639 265.17 249.639Z" fill="#D3DFFF"/>
<path d="M324.178 249.564H284.223C281.986 249.564 280.155 246.818 280.155 243.462V241.797C280.155 238.441 281.986 235.695 284.223 235.695H324.178C326.415 235.695 328.246 238.441 328.246 241.797V243.462C328.246 246.818 326.415 249.564 324.178 249.564Z" fill="#D3DFFF"/>
<path d="M289.454 194.725H225.818V204.72H289.454V194.725Z" fill="#86A7FF"/>
<path d="M247.597 322.731H236.321V355.117H247.597V322.731Z" fill="#ADC3FF"/>
<path d="M270.853 303.466H259.578V355.117H270.853V303.466Z" fill="#D3DFFF"/>
<path d="M294.11 292.124H282.834V355.116H294.11V292.124Z" fill="#ADC3FF"/>
<path d="M317.366 319.534H306.09V355.117H317.366V319.534Z" fill="#D3DFFF"/>
<path d="M340.622 298.979H329.346V355.116H340.622V298.979Z" fill="#ADC3FF"/>
<path d="M363.878 277.654H352.603V355.117H363.878V277.654Z" fill="#D3DFFF"/>
<path d="M211.527 275.686H147.891V281.781H211.527V275.686Z" fill="#E5ECFF"/>
<path d="M211.527 292.797H147.891V355.116H211.527V292.797Z" fill="#E5ECFF"/>
<path d="M182.592 315.962C180.195 314.543 177.731 315.658 175.972 318.237C174.369 320.586 174.143 323.908 173.389 326.874C174.948 327.512 176.349 328.896 178.048 328.499C180.255 327.984 180.312 324.896 181.563 322.792C182.635 320.989 183.918 319.828 185.451 319.518C184.793 318.064 183.989 316.789 182.592 315.962Z" fill="#86A7FF"/>
<path d="M200.615 312.729C198.445 313.438 196.165 314.595 194.617 316.968C193.286 319.008 193.333 322.559 192.366 324.705C193.458 325.796 194.687 326.304 195.884 325.334C197.056 324.385 197.767 322.248 199.03 321.316C200.046 320.567 201.504 320.094 202.609 319.797C202.864 319.728 203.124 319.685 203.382 319.632V312.057C202.455 312.214 201.532 312.43 200.615 312.729Z" fill="#86A7FF"/>
<path d="M202.609 319.797C201.505 320.094 200.046 320.567 199.03 321.316C197.767 322.248 197.056 324.385 195.884 325.334C194.687 326.304 193.458 325.796 192.366 324.705C191.936 324.275 191.527 323.758 191.15 323.201C189.657 320.993 189.189 319.745 186.827 319.459C186.346 319.4 185.89 319.43 185.451 319.518C183.918 319.828 182.635 320.989 181.563 322.792C180.312 324.896 180.255 327.984 178.048 328.5C176.349 328.897 174.948 327.512 173.389 326.874C172.767 326.619 172.122 326.48 171.421 326.624C169.777 326.963 168.737 328.443 167.592 329.566C166.794 330.347 165.945 330.957 164.803 330.882C162.256 330.713 158.97 328.512 156.036 328.37V345.391H203.382V319.632C203.124 319.684 202.864 319.728 202.609 319.797Z" fill="#ADC3FF"/>
<path d="M167.592 329.565C167.406 329.322 167.229 329.057 167.07 328.762C165.898 326.581 165.804 323.81 164.507 321.764C161.981 317.782 158.533 319.357 156.036 322.745V328.37C158.971 328.511 162.256 330.713 164.804 330.881C165.945 330.957 166.794 330.347 167.592 329.565Z" fill="#86A7FF"/>
<path d="M99.2276 289.042L87.1289 292.6L89.8902 265.912L97.3297 266.14C97.2822 266.61 97.2349 267.065 97.2064 267.535C96.9312 271.122 97.0736 274.723 97.3772 277.94C97.9844 284.259 99.2276 289.042 99.2276 289.042Z" fill="#F9B384"/>
<path d="M97.3772 277.94C92.7275 274.652 91.0005 267.748 91.0005 267.748L97.2063 267.535C96.9312 271.122 97.0737 274.723 97.3772 277.94Z" fill="#102048"/>
<path d="M99.9361 250.725C100.411 253.216 103.099 268.991 98.1964 270.77C93.2937 272.55 88.2329 265.789 88.2329 265.789L89.8936 250.606L97.0104 247.404L99.9361 250.725Z" fill="#F9B384"/>
<path d="M93.442 259.309C93.442 259.309 94.717 246.692 99.936 250.725C99.7497 250.581 99.4789 249.321 99.3627 249.036C98.8357 247.742 98.1592 246.566 97.3417 245.667C94.3714 242.402 89.3639 243.589 86.9677 247.344C84.6087 251.041 84.5365 257.612 85.7517 262.389C85.9482 263.162 86.197 263.904 86.495 264.599C86.7659 265.231 87.0869 265.757 87.448 266.277C87.7584 266.725 90.0867 269.476 90.111 267.36C90.1702 262.2 93.442 259.309 93.442 259.309Z" fill="#EB5D60"/>
<path d="M94.592 262.21C95.4798 261.121 95.4703 258.901 94.5709 257.251C93.6715 255.602 92.2227 255.147 91.335 256.236C90.4472 257.325 90.4567 259.546 91.3561 261.195C92.2555 262.845 93.7043 263.299 94.592 262.21Z" fill="#F9B384"/>
<path d="M100.923 261.488C101.533 261.488 102.028 260.682 102.028 259.688C102.028 258.695 101.533 257.889 100.923 257.889C100.313 257.889 99.8184 258.695 99.8184 259.688C99.8184 260.682 100.313 261.488 100.923 261.488Z" fill="#F9B384"/>
<path d="M85.0696 391.994L70.6777 401.245C70.6777 401.245 82.5391 446.556 86.0184 449.403C89.4977 452.249 87.7581 427.103 90.1304 419.512L93.1352 401.72L85.0696 391.994Z" fill="#102048"/>
<path d="M83.9421 417.744L83.8369 420.012L90.0837 420.664L90.1889 418.396L83.9421 417.744Z" fill="white"/>
<path d="M81.4321 388.672L90.1305 419.512C90.1305 419.512 123.975 392.942 132.357 368.745L119.072 342.65L81.4321 388.672Z" fill="#7D69ED"/>
<path d="M126.822 413.581C126.822 413.581 142.637 414.53 149.912 395.789L133.78 392.231L126.822 413.581Z" fill="#102048"/>
<path d="M151.559 416.82L133.718 426.275L132.278 418.638L129.665 404.808L144.536 394.251L145.582 397.615L151.559 416.82Z" fill="#F9B384"/>
<path d="M174.109 449.64L154.577 426.51L151.562 416.824L133.719 426.27L138.129 449.64H174.109Z" fill="#102048"/>
<path d="M153.972 425.829L149.939 433.538L151.131 434.941L155.164 427.232L153.972 425.829Z" fill="white"/>
<path d="M145.582 397.615L132.278 418.638L129.665 404.808L144.536 394.251L145.582 397.615Z" fill="#E28B6D"/>
<path d="M149.915 395.785C141.506 398.967 133.816 404.911 126.824 413.581L114.801 366.137C114.801 366.137 90.5429 400.82 76.0577 395.081C62.2924 389.626 68.3001 355.455 68.3001 355.455C87.2019 335.602 117.271 308.943 130.445 330.057C130.513 330.148 130.566 330.227 130.619 330.318C133.316 334.762 136.362 343.546 139.226 353.273C144.938 372.649 149.915 395.785 149.915 395.785Z" fill="#7D69ED"/>
<path d="M139.226 353.273C126.119 357.898 112.634 336.057 112.634 336.057L126.18 329.386L130.445 330.057C130.513 330.148 130.566 330.227 130.619 330.318C133.316 334.761 136.362 343.546 139.226 353.273Z" fill="#5B4DAD"/>
<path d="M126.47 413.783L114.65 367.143C112.088 370.797 98.1412 389.938 83.4368 395.752L83.2437 394.653C99.2485 388.325 114.382 365.959 114.533 365.734L114.947 365.117L127.178 413.379L126.47 413.783Z" fill="#5B4DAD"/>
<path d="M87.7926 279.135L82.482 304.886L75.3378 339.523C75.3378 339.523 70.1256 342.33 65.527 341.455C61.4663 340.682 57.8828 337.023 58.8526 325.966C60.9891 301.591 87.7926 279.135 87.7926 279.135Z" fill="#FBC343"/>
<path d="M82.4819 304.886L75.3377 339.523C75.3377 339.523 70.1255 342.33 65.5269 341.455C69.383 305.897 82.1409 290.749 82.1409 290.749L82.4819 304.886Z" fill="#E49B31"/>
<path d="M139.748 304.625L135.794 327.216L122.445 308.329L127.74 295.011L134.9 300.738L139.748 304.625Z" fill="#FBC343"/>
<path d="M127.771 295.034L132.837 282.889L143.072 276.345L139.718 304.67L127.771 295.034Z" fill="#F9B384"/>
<path d="M177.499 271.794C174.81 270.828 172.386 270.988 170.196 272.192C168.749 272.988 167.401 274.249 166.158 275.954L161.211 258.749C162.931 258.294 164.499 257.521 165.916 256.396C167.969 254.771 169.681 252.419 171.014 249.226L177.499 271.794Z" fill="#1F3C88"/>
<path d="M166.17 275.939L161.227 258.738L88.3955 310.597L91.0275 319.756L166.17 275.939L161.227 258.738L166.17 275.939Z" fill="#1F3C88"/>
<path d="M177.499 271.794C174.81 270.828 172.385 270.988 170.196 272.192L165.916 256.396C167.969 254.771 169.681 252.419 171.014 249.226L177.499 271.794Z" fill="#102048"/>
<path d="M234.22 280.795C249.414 258.004 249.414 221.052 234.22 198.261C219.026 175.469 194.391 175.469 179.197 198.261C164.003 221.052 164.003 258.004 179.197 280.795C194.391 303.586 219.026 303.586 234.22 280.795Z" fill="#1F3C88"/>
<path d="M229.629 273.909C242.288 254.921 242.288 224.135 229.629 205.147C216.97 186.159 196.447 186.159 183.788 205.147C171.129 224.135 171.129 254.921 183.788 273.909C196.447 292.897 216.97 292.897 229.629 273.909Z" fill="white"/>
<path d="M177.161 219.548H236.253C236.125 219.122 235.997 218.696 235.862 218.278H177.565C177.428 218.7 177.289 219.12 177.161 219.548Z" fill="#86A7FF"/>
<path d="M236.155 259.85H177.274C177.405 260.275 177.531 260.704 177.668 261.12H235.746C235.885 260.699 236.024 260.277 236.155 259.85Z" fill="#86A7FF"/>
<path d="M182.503 240.193V239.205C182.503 235.217 180.328 231.954 177.67 231.954H174.696C174.16 237.019 174.152 242.244 174.727 247.443H177.67C180.328 247.443 182.503 244.181 182.503 240.193Z" fill="#D3DFFF"/>
<path d="M197.861 231.954C195.167 231.954 192.963 235.26 192.963 239.301V240.097C192.963 244.137 195.167 247.443 197.861 247.443H218.973C221.667 247.443 223.871 244.137 223.871 240.097V239.301C223.871 235.26 221.667 231.954 218.973 231.954H197.861Z" fill="#D3DFFF"/>
<path d="M238.737 231.954H237.648C234.809 231.954 232.485 235.439 232.485 239.699C232.485 243.958 234.809 247.443 237.648 247.443H238.688C239.248 242.383 239.286 237.158 238.737 231.954Z" fill="#D3DFFF"/>
<path d="M139.748 304.624L134.899 300.738L137.854 291.113C137.854 291.113 141.968 279.965 144.021 280.442C146.074 280.908 139.748 304.624 139.748 304.624Z" fill="#F9B384"/>
<path d="M122.448 308.328L121.441 310.862C119.439 306.734 115.027 297.938 109.475 290.949C104.484 284.672 97.7119 274.908 91.8003 276.261C75.9724 279.862 68.3022 355.456 68.3022 355.456L109.257 333.219L118.431 343.941C120.427 346.273 122.936 347.388 125.457 347.062C129.69 346.514 133.235 342.024 134.303 335.854L135.797 327.221L122.448 308.328Z" fill="#FBC343"/>
<path d="M98.3914 318.01L97.8892 318.861L109.001 333.63L109.503 332.78L98.3914 318.01Z" fill="#E49B31"/>
<path d="M120.647 308.525L120.028 309.18L126.72 323.386L127.339 322.73L120.647 308.525Z" fill="#E49B31"/>
<path d="M329.851 161.616C329.851 161.616 327.936 170.612 323.105 174.61C318.274 178.608 311.86 182.856 314.026 184.23C316.191 185.604 321.98 184.73 321.98 184.73C321.98 184.73 310.777 197.723 313.942 199.098C317.107 200.472 324.77 191.101 324.77 191.101C324.77 191.101 323.729 194.6 325.312 195.349C326.894 196.099 329.935 195.224 329.935 195.224C329.935 195.224 329.518 197.723 332.683 197.098C335.849 196.474 344.095 181.481 344.095 181.481L344.678 167.737L329.851 161.616Z" fill="#E28B6D"/>
<path d="M320.106 84.4029C320.106 84.4029 332.6 79.5302 351.341 97.1467C368.206 113 369.332 128.631 361.336 148.122C353.34 167.613 344.094 181.481 344.094 181.481L329.851 161.616L342.345 132.38L320.106 84.4029Z" fill="#3A6BEA"/>
<path d="M315.691 87.4017C315.691 87.4017 298.033 101.645 289.038 132.38H350.675L333.683 91.8995L315.691 87.4017Z" fill="#3A6BEA"/>
<path d="M298.304 132.255C298.304 132.255 304.363 133.848 306.487 132.255C308.611 130.662 301.864 126.07 296.055 123.915C290.245 121.76 283.436 117.918 277.814 129.912C272.191 141.906 272.754 142.75 274.565 142.562C276.377 142.375 280.687 134.316 280.687 134.316C280.687 134.316 276.064 143.031 278.251 143.968C280.437 144.905 285.685 133.004 285.685 133.004C285.685 133.004 281.187 142.656 283.498 143.78C285.81 144.905 290.807 133.098 290.807 133.098C290.807 133.098 285.747 144.999 288.808 144.718C290.8 144.535 293.083 139.314 294.434 135.688C295.221 133.579 296.693 132.255 298.304 132.255Z" fill="#E28B6D"/>
<path d="M320.003 100.487C317.603 100.487 315.708 98.942 315.672 98.912L316.042 97.92C316.292 98.1275 322.223 102.935 326.05 93.9897L326.688 94.6035C324.698 99.2527 322.148 100.487 320.003 100.487Z" fill="#102048"/>
<path d="M330.168 161.926L329.533 161.306L345.647 124.172L339.466 109.708L340.104 109.094L346.549 124.176L330.168 161.926Z" fill="#102048"/>
<path d="M323.637 88.5834C322.62 94.0184 317.772 95.1602 315.538 90.6184L314.943 89.4149L311.096 81.5974L315.058 73.8667L315.439 73.1222L316.34 74.1272L316.994 74.8594L323.918 82.6274C324.059 85.0344 323.935 86.9952 323.637 88.5834Z" fill="#E28B6D"/>
<path d="M314.943 89.4149L311.096 81.5975L315.058 73.8667L316.341 74.1272L316.953 74.2512C316.953 74.2512 316.969 74.4622 316.994 74.8592C317.093 76.8697 317.226 83.5207 314.943 89.4149Z" fill="#102048"/>
<path d="M300.135 69.292C300.135 69.292 308.714 92.4037 314.887 82.735C319.575 75.393 316.266 65.2592 316.266 65.2592L311.716 58.6412L301.582 63.1912L300.135 69.292Z" fill="#E28B6D"/>
<path d="M313.371 70.4295C313.371 70.4295 310.475 63.527 307.321 66.7845C304.168 70.0417 300.462 78.8055 296.136 73.7385C293.125 70.212 295.171 60.1922 299.152 61.0452C299.152 61.0452 303.547 48.4037 311.096 51.7385C318.644 55.0735 315.749 61.8207 319.782 62.829C323.815 63.8372 336.874 65.244 334.703 85.9512C334.703 85.9512 329.116 83.714 324.452 84.4952C318.622 85.4717 314.681 71.0497 314.681 71.0497C314.301 71.205 313.371 70.4295 313.371 70.4295Z" fill="#FBC343"/>
<path d="M314.095 74.3072C315.351 74.3072 316.37 72.328 316.37 69.8864C316.37 67.4449 315.351 65.4657 314.095 65.4657C312.838 65.4657 311.82 67.4449 311.82 69.8864C311.82 72.328 312.838 74.3072 314.095 74.3072Z" fill="#E28B6D"/>
<path d="M477.414 448.75H20.5864V450.455H477.414V448.75Z" fill="#102048"/>
<path d="M402.602 387.342H371.351V414.615H402.602V387.342Z" fill="#1F3C88"/>
<path d="M406.238 449.55L422.889 462.096L417.225 429.612L409.901 427.501L402.232 431.611L406.238 449.55Z" fill="#102048"/>
<path d="M409.905 427.502L406.238 449.548C406.238 449.548 390.427 446.423 374.934 441.264C367.79 438.9 360.714 436.093 355.29 432.957C352.434 431.309 350.032 429.57 348.32 427.763C336.282 415.036 340.578 385.728 360.995 390.74C368.904 392.683 377.434 397.967 385.131 403.956C388.639 406.672 391.965 409.547 394.98 412.309C403.783 420.354 409.905 427.502 409.905 427.502Z" fill="#3A6BEA"/>
<path opacity="0.3" d="M394.98 412.308L374.934 441.264C367.79 438.9 360.714 436.093 355.29 432.957L385.132 403.956C388.639 406.672 391.965 409.547 394.98 412.308Z" fill="#102048"/>
<path d="M353.756 431.486L333.599 449.04L363.263 448.855L365.167 431.986L353.756 431.486Z" fill="#102048"/>
<path d="M371.414 427.613L365.167 431.986L363.263 448.855L363.668 448.852L376.079 449.102L380.41 440.981L371.414 427.613Z" fill="#F9B384"/>
<path d="M371.414 427.613C371.414 427.613 395.069 392.879 415.559 384.633C434.556 376.988 440.214 405.623 429.553 419.866C418.891 434.11 376.078 449.102 376.078 449.102L371.414 427.613Z" fill="#3A6BEA"/>
<path d="M376.171 449.652L375.986 448.551C390.678 442.986 405.774 436.945 416.666 430.47L416.946 431.527C406.013 438.024 390.888 444.078 376.171 449.652Z" fill="#102048"/>
<path d="M385.708 290.985C383.58 291.246 381.573 292.031 379.802 293.921C378.323 295.499 377.19 297.685 376.462 300.171C375.334 304.028 375.595 308.335 374.729 312.287C373.896 316.092 371.855 318.054 369.954 320.598C368.125 323.046 366.808 327.096 367.46 330.814C367.641 331.846 367.976 332.802 368.419 333.635C368.759 334.272 369.796 336.11 370.38 336.114C370.381 336.114 402.554 336.328 402.554 336.328C402.554 336.328 408.533 327.929 401.653 318.106C399.743 315.379 397.604 312.577 396.633 308.748C396.033 306.382 395.732 303.888 395.28 301.46C394.704 298.364 393.434 295.203 391.72 293.237C389.994 291.257 387.831 290.725 385.708 290.985Z" fill="#102048"/>
<path d="M383.003 293.904C383.003 293.904 377.641 287.782 382.955 285.006C387.02 282.883 390.833 285.291 388.413 293.192L383.003 293.904Z" fill="#102048"/>
<path d="M384.408 324.6C384.408 324.6 354.172 332.284 348.175 363.581C342.178 394.879 378.674 396.907 378.674 396.907C378.674 396.907 414.518 395.066 420.89 386.445C427.262 377.824 430.511 334.158 387.906 324.975L384.408 324.6Z" fill="#EB5D60"/>
<path d="M386.357 341.717C386.161 341.717 385.966 341.705 385.771 341.681C383.598 341.416 381.877 339.732 380.926 336.937L381.6 336.42C382.428 338.85 383.931 340.317 385.832 340.548C388.161 340.842 390.672 339.219 391.943 336.626L392.553 337.299C391.242 339.975 388.759 341.717 386.357 341.717Z" fill="#AB4446"/>
<path d="M358.918 360.765L358.442 361.648L374.257 380.826L374.733 379.942L358.918 360.765Z" fill="#AB4446"/>
<path d="M413.158 361.236L398.742 379.955L399.237 380.814L413.654 362.095L413.158 361.236Z" fill="#AB4446"/>
<path d="M401.81 399.001H370.339C369.281 399.001 368.424 397.715 368.424 396.128V363.207C368.424 361.62 369.281 360.334 370.339 360.334H401.81C402.868 360.334 403.726 361.62 403.726 363.207V396.128C403.726 397.715 402.868 399.001 401.81 399.001Z" fill="white"/>
<path d="M382.749 314.906L381.927 326.649C381.769 328.901 382.364 331.122 383.506 332.543C385.068 334.488 387.293 334.509 388.87 332.595L388.942 332.507C390.141 331.052 390.753 328.725 390.55 326.391L389.534 314.698L382.749 314.906Z" fill="#F9B384"/>
<path d="M382.6 317.323C384.996 324.37 387.701 324.512 389.765 317.5L385.518 316.682L382.6 317.323Z" fill="#102048"/>
<path d="M386.245 319.885C389.409 319.885 391.975 314.849 391.975 308.638C391.975 302.427 389.409 297.392 386.245 297.392C383.081 297.392 380.516 302.427 380.516 308.638C380.516 314.849 383.081 319.885 386.245 319.885Z" fill="#F9B384"/>
<path d="M392.921 306.788C392.921 306.788 387.179 306.645 385.281 299.67C385.281 299.67 382.197 301.307 381.39 307.286L379.207 308.425L379.16 299.029L384 294.402L388.318 294.545L392.115 299.314L392.921 306.788Z" fill="#102048"/>
<path d="M382.194 307.733C382.833 309.583 382.503 311.742 381.456 312.557C380.409 313.371 379.042 312.532 378.403 310.682C377.763 308.833 378.093 306.673 379.14 305.859C380.187 305.044 381.554 305.883 382.194 307.733Z" fill="#F9B384"/>
<path d="M390.504 307.733C389.864 309.583 390.195 311.742 391.242 312.557C392.288 313.371 393.656 312.532 394.295 310.682C394.935 308.833 394.604 306.673 393.557 305.859C392.51 305.044 391.143 305.883 390.504 307.733Z" fill="#F9B384"/>
</g>
<defs>
<clipPath id="clip0_116_675">
<rect width="500" height="500" fill="white"/>
</clipPath>
</defs>
</svg>
