<svg width="550" height="500" viewBox="0 0 619 584" fill="none" xmlns="http://www.w3.org/2000/svg">
<circle cx="311" cy="250" r="250" fill="#1728C1"/>
<path fill-rule="evenodd" clip-rule="evenodd" d="M560.978 260.135C561.113 256.773 561.181 253.395 561.181 250C561.181 240.095 560.601 230.325 559.474 220.721H222.772C211.815 220.721 202.932 229.544 202.932 240.428C202.932 251.312 211.815 260.135 222.772 260.135H560.978ZM535.949 359.234H442.281H348.613C337.655 359.234 328.773 368.057 328.773 378.941C328.773 389.825 337.655 398.649 348.613 398.649H511.878C521.064 386.33 529.137 373.143 535.949 359.234ZM157.566 449.324H329.34C340.297 449.324 349.179 440.501 349.179 429.617C349.179 418.733 340.297 409.91 329.34 409.91H222.685H116.031C128.316 424.56 142.256 437.792 157.566 449.324ZM75.9988 343.468H278.323C289.28 343.468 298.163 334.645 298.163 323.761C298.163 312.877 289.28 304.054 278.323 304.054H63.7172C66.7317 317.64 70.8589 330.811 75.9988 343.468ZM78.3666 150.901C72.8699 163.533 68.392 176.706 65.0359 190.315H358.816C369.773 190.315 378.656 181.492 378.656 170.608C378.656 159.724 369.773 150.901 358.816 150.901H78.3666Z" fill="white"/>
<path fill-rule="evenodd" clip-rule="evenodd" d="M65.0359 190.315H358.816C369.773 190.315 378.656 181.492 378.656 170.608C378.656 159.724 369.773 150.901 358.816 150.901H78.3666C72.8699 163.533 68.392 176.706 65.0359 190.315Z" fill="white"/>
<path fill-rule="evenodd" clip-rule="evenodd" d="M75.9988 343.468H278.323C289.28 343.468 298.163 334.645 298.163 323.761C298.163 312.877 289.28 304.054 278.323 304.054H63.7172C66.7317 317.64 70.8589 330.811 75.9988 343.468Z" fill="white"/>
<path fill-rule="evenodd" clip-rule="evenodd" d="M157.566 449.324H329.34C340.297 449.324 349.179 440.501 349.179 429.617C349.179 418.733 340.297 409.91 329.34 409.91H222.685H116.031C128.316 424.56 142.256 437.792 157.566 449.324Z" fill="white"/>
<path fill-rule="evenodd" clip-rule="evenodd" d="M222.772 220.721C211.815 220.721 202.932 229.544 202.932 240.428C202.932 251.312 211.815 260.135 222.772 260.135H560.978C561.113 256.773 561.181 253.395 561.181 250C561.181 240.095 560.601 230.325 559.474 220.721H222.772Z" fill="white"/>
<path fill-rule="evenodd" clip-rule="evenodd" d="M348.613 359.234C337.655 359.234 328.773 368.057 328.773 378.941C328.773 389.825 337.655 398.649 348.613 398.649H511.878C521.064 386.33 529.137 373.143 535.949 359.234H442.281H348.613Z" fill="white"/>
<path d="M459.726 224.111L387.226 191.742V331.177L482.226 390.935L459.726 224.111Z" fill="#FB5A21"/>
<path d="M159.323 224.111L224.806 191.742V331.177L139 390.935L159.323 224.111Z" fill="#FB5A21"/>
<path d="M307.548 391.081V361.312V331.542V14C307.548 14 261.246 33.7167 229.761 127.371C211.648 181.249 203.431 231.554 198.818 284.407C195.854 318.372 197.504 353.869 199.897 391.081H221.427V410.928H246.663V430.774H307.548V410.928V391.081Z" fill="#DCDFD9"/>
<path d="M307.548 391.081L307.548 361.312V331.542L307.548 14C307.548 14 355.136 33.7167 387.495 127.371C406.111 181.249 414.557 231.554 419.298 284.407C422.345 318.372 420.648 353.869 418.189 391.081H396.061V410.928H370.124V430.774H307.548V410.928V391.081Z" fill="#F9F1F9"/>
<path d="M283.109 461.419C299.389 461.419 310.659 461.419 338.21 461.419C368.531 461.419 345.724 548.776 338.21 548.776C330.696 548.776 310.659 584 310.659 584C310.659 584 294.38 548.776 283.109 548.776C271.838 548.776 254.98 461.419 283.109 461.419Z" fill="#E36018"/>
<path d="M287.893 461.419C301.341 461.419 310.652 461.419 333.411 461.419C358.459 461.419 339.618 526.937 333.411 526.937C327.204 526.937 310.652 553.355 310.652 553.355C310.652 553.355 297.203 526.937 287.893 526.937C278.582 526.937 264.655 461.419 287.893 461.419Z" fill="#FFAE44"/>
<path d="M295.067 461.419C304.268 461.419 310.639 461.419 326.211 461.419C343.349 461.419 330.458 505.098 326.211 505.098C321.964 505.098 310.639 522.71 310.639 522.71C310.639 522.71 301.437 505.098 295.067 505.098C288.696 505.098 279.168 461.419 295.067 461.419Z" fill="#FCE25E"/>
<path d="M258.516 430.774H359.645L353.516 467.548H267.71L258.516 430.774Z" fill="#5B6575"/>
<circle cx="308.179" cy="118.194" r="44.0323" fill="#00D5CC" stroke="#5B6575" stroke-width="10"/>
<path d="M285.51 227.633L306.961 194.806L328.413 227.633L306.961 436.903L285.51 227.633Z" fill="#FB5A21"/>
</svg>
