<svg width="1643" height="839" viewBox="0 0 1643 839" fill="none" xmlns="http://www.w3.org/2000/svg">
<path d="M215.026 789.06C215.026 825 166.891 833.821 107.513 833.821C48.1353 833.821 0 833.821 0 789.06C0 729.669 48.1353 681.523 107.513 681.523C166.891 681.523 215.026 729.669 215.026 789.06Z" fill="#1728C1"/>
<path d="M466.605 809.277C466.605 868.97 411.481 809.277 351.5 809.277C291.519 809.277 202.5 824.734 202.5 765.041C202.5 705.349 263.65 732.835 323.631 732.835C383.612 732.835 466.605 749.585 466.605 809.277Z" fill="#1728C1"/>
<path d="M817.537 656.959C817.537 698.864 783.573 732.835 741.677 732.835C699.781 732.835 665.818 698.864 665.818 656.959C665.818 615.053 699.781 581.083 741.677 581.083C783.573 581.083 817.537 615.053 817.537 656.959Z" fill="#1728C1"/>
<path d="M950.7 670.06C950.7 711.965 916.737 745.936 874.841 745.936C832.945 745.936 798.981 711.965 798.981 670.06C798.981 628.154 832.945 594.183 874.841 594.183C916.737 594.183 950.7 628.154 950.7 670.06Z" fill="#1728C1"/>
<path d="M1002 617.656C1002 645.693 979.277 668.422 951.246 668.422C923.215 668.422 900.491 645.693 900.491 617.656C900.491 589.619 923.215 566.89 951.246 566.89C979.277 566.89 1002 589.619 1002 617.656Z" fill="#1728C1"/>
<path d="M1193.01 569.619C1193.01 597.657 1170.29 620.385 1142.26 620.385C1114.23 620.385 1091.5 597.657 1091.5 569.619C1091.5 541.582 1114.23 518.853 1142.26 518.853C1170.29 518.853 1193.01 541.582 1193.01 569.619Z" fill="#1728C1"/>
<path d="M1489.43 635.611C1484.39 666.557 1454.99 687.52 1423.75 682.434C1392.51 677.348 1371.27 648.137 1376.31 617.191C1381.35 586.245 1410.75 565.282 1441.99 570.368C1473.23 575.455 1494.47 604.665 1489.43 635.611Z" fill="#1728C1"/>
<path d="M1642.25 641.138C1637.16 672.381 1607.72 693.586 1576.48 688.5C1545.24 683.413 1524.04 653.962 1529.13 622.718C1534.21 591.474 1563.66 570.27 1594.9 575.356C1626.13 580.443 1647.33 609.894 1642.25 641.138Z" fill="#1728C1"/>
<path d="M1548.09 655.672C1544.75 676.203 1525.4 690.138 1504.88 686.795C1484.35 683.453 1470.42 664.099 1473.76 643.567C1477.1 623.036 1496.45 609.101 1516.98 612.444C1537.5 615.786 1551.44 635.14 1548.09 655.672Z" fill="#1728C1"/>
<path d="M1128.62 593.092C1128.62 634.695 1094.41 668.422 1052.21 668.422C1010.01 668.422 975.805 634.695 975.805 593.092C975.805 551.488 1010.01 517.761 1052.21 517.761C1094.41 517.761 1128.62 551.488 1128.62 593.092Z" fill="#1728C1"/>
<path d="M1419.78 581.131C1413.48 619.814 1377.03 646.067 1338.35 639.769C1299.68 633.472 1273.43 597.008 1279.73 558.326C1286.02 519.643 1322.48 493.39 1361.15 499.687C1399.83 505.985 1426.08 542.448 1419.78 581.131Z" fill="#1728C1"/>
<path d="M690.922 701.72C690.922 726.14 671.375 745.936 647.262 745.936C623.149 745.936 603.602 726.14 603.602 701.72C603.602 677.301 623.149 657.505 647.262 657.505C671.375 657.505 690.922 677.301 690.922 701.72Z" fill="#1728C1"/>
<path d="M260.87 795.61C260.87 820.03 265.716 804.89 241 804.89C216.284 804.89 171.366 820.03 171.366 795.61C171.366 771.19 191.402 751.395 216.118 751.395C240.834 751.395 260.87 771.19 260.87 795.61Z" fill="#1728C1"/>
<path d="M494.452 795.61C494.452 820.03 474.66 832 450.246 832C425.831 832 406.04 820.03 406.04 795.61C406.04 771.19 425.831 751.395 450.246 751.395C474.66 751.395 494.452 771.19 494.452 795.61Z" fill="#1728C1"/>
<path d="M556.667 795.61C556.667 820.03 537.12 833.821 513.007 833.821C488.894 833.821 469.347 820.03 469.347 795.61C469.347 771.19 488.894 751.395 513.007 751.395C537.12 751.395 556.667 771.19 556.667 795.61Z" fill="#1728C1"/>
<path d="M663.17 754.966C673.87 781.597 656.25 813.754 623.816 826.792C591.381 839.83 556.413 828.811 545.713 802.181C535.013 775.55 552.633 743.393 585.067 730.355C617.502 717.317 652.47 728.336 663.17 754.966Z" fill="#1728C1"/>
<path d="M1151.02 523.326C1213.92 498.523 1231.24 400.108 1232.03 354H1272.54C1247.76 458.935 1341.63 521.736 1391.67 540.02L1222.5 599.642C1172.47 584.538 1088.12 548.129 1151.02 523.326Z" fill="#1728C1"/>
<path d="M456.795 804.89L60.0327 765.041V833.821H1638.35L1629.62 633.486H1597.42C1587.05 633.486 1569.58 633.486 1541.75 639.491C1513.92 645.495 1504.64 647.133 1451.7 633.486C1398.76 619.839 1415.68 621.477 1393.85 607.284C1372.02 593.092 1325.09 566.344 1310.9 561.431C1296.71 556.518 1251.96 555.427 1223.03 553.243C1194.11 551.06 1092.6 606.193 1072.4 607.284C1052.21 608.376 1016.74 624.206 982.9 632.395C949.063 640.583 896.671 658.05 865.017 659.142C839.694 660.016 762.416 674.427 726.942 681.523C706.021 692.44 662.98 714.821 658.177 717.005C652.174 719.734 570.311 786.876 563.216 786.876C557.54 786.876 489.904 798.885 456.795 804.89Z" fill="#1728C1"/>
<path d="M301 797.5C297.65 838.5 256.9 838.5 202.5 838.5C148.1 838.5 104 844 104 797.5C104 743.1 148.1 699 202.5 699C256.9 699 301 743.1 301 797.5Z" fill="white"/>
<path d="M499 832.062C494.663 803.062 455.452 838.5 400.5 838.5C345.548 838.5 260 784 279 825.5C279 770.824 345.548 746 400.5 746C455.452 746 499 777.386 499 832.062Z" fill="white"/>
<path d="M853 676.5C853 714.884 821.884 746 783.5 746C745.116 746 714 714.884 714 676.5C714 638.116 745.116 607 783.5 607C821.884 607 853 638.116 853 676.5Z" fill="white"/>
<path d="M975 688.5C975 726.884 943.884 758 905.5 758C867.116 758 836 726.884 836 688.5C836 650.116 867.116 619 905.5 619C943.884 619 975 650.116 975 688.5Z" fill="white"/>
<path d="M1022 640.5C1022 666.181 1001.18 687 975.5 687C949.819 687 929 666.181 929 640.5C929 614.819 949.819 594 975.5 594C1001.18 594 1022 614.819 1022 640.5Z" fill="white"/>
<path d="M1197 596.5C1197 622.181 1176.18 643 1150.5 643C1124.82 643 1104 622.181 1104 596.5C1104 570.819 1124.82 550 1150.5 550C1176.18 550 1197 570.819 1197 596.5Z" fill="white"/>
<path d="M1468.57 656.946C1463.95 685.292 1437.01 704.494 1408.39 699.835C1379.77 695.176 1360.32 668.42 1364.93 640.074C1369.54 611.729 1396.49 592.527 1425.1 597.186C1453.72 601.845 1473.18 628.6 1468.57 656.946Z" fill="white"/>
<path d="M1608.57 662.009C1603.91 690.627 1576.94 710.049 1548.32 705.39C1519.7 700.731 1500.28 673.755 1504.94 645.137C1509.6 616.519 1536.57 597.096 1565.19 601.755C1593.81 606.414 1613.23 633.39 1608.57 662.009Z" fill="white"/>
<path d="M1522.31 675.321C1519.25 694.127 1501.52 706.891 1482.72 703.829C1463.91 700.767 1451.15 683.04 1454.21 664.234C1457.27 645.428 1475 632.664 1493.8 635.726C1512.61 638.787 1525.37 656.515 1522.31 675.321Z" fill="white"/>
<path d="M1138 618C1138 656.108 1106.66 687 1068 687C1029.34 687 998 656.108 998 618C998 579.892 1029.34 549 1068 549C1106.66 549 1138 579.892 1138 618Z" fill="white"/>
<path d="M1404.76 607.044C1398.99 642.476 1365.59 666.524 1330.16 660.755C1294.72 654.987 1270.68 621.587 1276.44 586.155C1282.21 550.723 1315.61 526.676 1351.04 532.444C1386.48 538.213 1410.52 571.612 1404.76 607.044Z" fill="white"/>
<path d="M737 717.5C737 739.868 719.091 758 697 758C674.909 758 657 739.868 657 717.5C657 695.132 674.909 677 697 677C719.091 677 737 695.132 737 717.5Z" fill="white"/>
<path d="M343 803.5C343 825.868 320.294 819 297.65 819C275.007 819 261 825.868 261 803.5C261 781.132 279.356 763 302 763C324.644 763 343 781.132 343 803.5Z" fill="white"/>
<path d="M557 803.5C557 825.868 538.868 828 516.5 828C494.132 828 476 825.868 476 803.5C476 781.132 494.132 763 516.5 763C538.868 763 557 781.132 557 803.5Z" fill="white"/>
<path d="M614 803.5C614 825.868 593.591 833.5 571.5 833.5C549.409 833.5 534 825.868 534 803.5C534 781.132 551.909 763 574 763C596.091 763 614 781.132 614 803.5Z" fill="white"/>
<path d="M711.574 766.272C721.377 790.664 705.235 820.119 675.519 832.062C645.804 844.004 613.767 833.911 603.964 809.519C594.161 785.126 610.304 755.671 640.019 743.729C669.735 731.786 701.771 741.879 711.574 766.272Z" fill="white"/>
<path d="M1158.53 554.097C1216.16 531.379 1232.02 441.233 1232.75 399H1269.86C1247.15 495.117 1333.16 552.641 1379 569.388L1224.02 624C1178.17 610.165 1100.9 576.816 1158.53 554.097Z" fill="white"/>
<path d="M522.5 812L159 775.5V838.5H1605L1597 655H1567.5C1558 655 1542 655 1516.5 660.5C1491 666 1482.5 667.5 1434 655C1385.5 642.5 1401 644 1381 631C1361 618 1318 593.5 1305 589C1292 584.5 1251 583.5 1224.5 581.5C1198 579.5 1105 630 1086.5 631C1068 632 1035.5 646.5 1004.5 654C973.5 661.5 925.5 677.5 896.5 678.5C873.3 679.3 802.5 692.5 770 699C750.833 709 711.4 729.5 707 731.5C701.5 734 626.5 795.5 620 795.5C614.8 795.5 552.833 806.5 522.5 812Z" fill="white"/>
<circle cx="1246" cy="222" r="222" fill="#1728C1"/>
<path fill-rule="evenodd" clip-rule="evenodd" d="M1467.82 231C1467.94 228.015 1468 225.014 1468 222C1468 213.204 1467.49 204.528 1466.49 196H1169.5C1159.84 196 1152 203.835 1152 213.5C1152 223.165 1159.84 231 1169.5 231H1467.82ZM1445.74 319H1363.12H1280.5C1270.84 319 1263 326.835 1263 336.5C1263 346.165 1270.84 354 1280.5 354H1424.51C1432.61 343.061 1439.73 331.351 1445.74 319ZM1111.98 399H1263.5C1273.16 399 1281 391.165 1281 381.5C1281 371.835 1273.16 364 1263.5 364H1169.42H1075.35C1086.18 377.009 1098.48 388.759 1111.98 399ZM1040.04 305H1218.5C1228.16 305 1236 297.165 1236 287.5C1236 277.835 1228.16 270 1218.5 270H1029.2C1031.86 282.064 1035.5 293.76 1040.04 305ZM1042.12 134C1037.28 145.218 1033.33 156.915 1030.37 169H1289.5C1299.16 169 1307 161.165 1307 151.5C1307 141.835 1299.16 134 1289.5 134H1042.12Z" fill="white"/>
<path fill-rule="evenodd" clip-rule="evenodd" d="M1030.37 169H1289.5C1299.16 169 1307 161.165 1307 151.5C1307 141.835 1299.16 134 1289.5 134H1042.12C1037.28 145.218 1033.33 156.915 1030.37 169Z" fill="white"/>
<path fill-rule="evenodd" clip-rule="evenodd" d="M1040.04 305H1218.5C1228.16 305 1236 297.165 1236 287.5C1236 277.835 1228.16 270 1218.5 270H1029.2C1031.86 282.064 1035.5 293.76 1040.04 305Z" fill="white"/>
<path fill-rule="evenodd" clip-rule="evenodd" d="M1111.98 399H1263.5C1273.16 399 1281 391.165 1281 381.5C1281 371.835 1273.16 364 1263.5 364H1169.42H1075.35C1086.18 377.009 1098.48 388.759 1111.98 399Z" fill="white"/>
<path fill-rule="evenodd" clip-rule="evenodd" d="M1169.5 196C1159.84 196 1152 203.835 1152 213.5C1152 223.165 1159.84 231 1169.5 231H1467.82C1467.94 228.015 1468 225.014 1468 222C1468 213.204 1467.49 204.528 1466.49 196H1169.5Z" fill="white"/>
<path fill-rule="evenodd" clip-rule="evenodd" d="M1280.5 319C1270.84 319 1263 326.835 1263 336.5C1263 346.165 1270.84 354 1280.5 354H1424.51C1432.61 343.061 1439.73 331.351 1445.74 319H1363.12H1280.5Z" fill="white"/>
<path d="M1371.51 198.631L1311.95 172.036V286.598L1390 335.696L1371.51 198.631Z" fill="#FB5A21"/>
<path d="M1124.7 198.631L1178.5 172.036V286.598L1108 335.696L1124.7 198.631Z" fill="#FB5A21"/>
<path d="M1246.48 335.816V311.357V286.898V26C1246.48 26 1208.44 42.1995 1182.57 119.147C1167.69 163.414 1160.94 204.746 1157.15 248.171C1154.71 276.077 1156.07 305.242 1158.03 335.816H1175.72V352.122H1196.46V368.429H1246.48V352.122V335.816Z" fill="#DCDFD9"/>
<path d="M1246.48 335.816V311.357V286.898V26C1246.48 26 1285.58 42.1995 1312.17 119.147C1327.46 163.414 1334.4 204.746 1338.3 248.171C1340.8 276.077 1339.41 305.242 1337.39 335.816H1319.21V352.122H1297.9V368.429H1246.48V352.122V335.816Z" fill="#F9F1F9"/>
<path d="M1226.4 393.607C1239.78 393.607 1249.04 393.607 1271.67 393.607C1296.59 393.607 1277.85 465.381 1271.67 465.381C1265.5 465.381 1249.04 494.321 1249.04 494.321C1249.04 494.321 1235.66 465.381 1226.4 465.381C1217.14 465.381 1203.29 393.607 1226.4 393.607Z" fill="#E36018"/>
<path d="M1230.33 393.607C1241.38 393.607 1249.03 393.607 1267.73 393.607C1288.31 393.607 1272.83 447.437 1267.73 447.437C1262.63 447.437 1249.03 469.143 1249.03 469.143C1249.03 469.143 1237.98 447.437 1230.33 447.437C1222.68 447.437 1211.24 393.607 1230.33 393.607Z" fill="#FFAE44"/>
<path d="M1236.23 393.607C1243.79 393.607 1249.02 393.607 1261.82 393.607C1275.9 393.607 1265.31 429.494 1261.82 429.494C1258.33 429.494 1249.02 443.964 1249.02 443.964C1249.02 443.964 1241.46 429.494 1236.23 429.494C1230.99 429.494 1223.16 393.607 1236.23 393.607Z" fill="#FCE25E"/>
<path d="M1206.2 368.429H1289.29L1284.25 398.643H1213.75L1206.2 368.429Z" fill="#5B6575"/>
<circle cx="1247" cy="111.607" r="35.2857" fill="#00D5CC" stroke="#5B6575" stroke-width="10"/>
<path d="M1228.38 201.525L1246 174.554L1263.62 201.525L1246 373.464L1228.38 201.525Z" fill="#FB5A21"/>
</svg>
