<svg width="500" height="500" viewBox="0 0 500 500" fill="none" xmlns="http://www.w3.org/2000/svg">
<g clip-path="url(#clip0_116_332)">
<path d="M500 0H0V500H500V0Z" fill="white"/>
<g opacity="0.35">
<path d="M461.613 325.17C460.66 321.881 460.168 318.482 460.401 314.919C461.403 299.57 473.739 287.839 476.829 273.014C479.843 258.554 477.995 242.169 466.516 231.765C450.65 217.386 425.696 218.953 414.398 198.641C404.282 180.455 406.49 158.42 395.463 140.255C385.074 123.14 368.435 111.472 350.946 102.431C325.623 89.339 296.205 78.05 267.389 78.464C234.645 78.934 211.292 101.178 189.375 122.776C170.081 141.79 136.086 140.066 145.992 189.191C154.815 232.947 134 229.698 114.939 245.851C95.9183 261.971 81.9893 281.2 89.5593 303.024C97.9083 327.09 46.8083 340.901 37.6953 372.097C31.5143 393.257 63.9833 395.045 86.0803 395.045C108.177 395.045 297.237 393.246 377.204 395.749C399.245 396.439 420.396 397.142 442.34 394.449C451.65 393.306 461.146 390.89 468.471 385.031C491.397 366.691 467.335 344.928 461.613 325.17Z" fill="#C3ECFE"/>
</g>
<path d="M437.676 393.276C433.2 374.639 435.866 354.59 444.991 338.271L445.557 338.587C436.511 354.766 433.869 374.644 438.306 393.123L437.676 393.276Z" fill="#BAE9F4"/>
<path d="M442.951 342.972C443.083 339.591 444.479 336.274 446.804 333.816C447.374 333.213 448.097 332.624 448.925 332.683C449.152 332.699 449.386 332.772 449.542 332.938C449.794 333.205 449.777 333.624 449.708 333.984C449.343 335.895 448.023 337.477 446.625 338.831C445.227 340.184 444.359 341.383 442.951 342.972Z" fill="#BAE9F4"/>
<path d="M440.423 349.373C441.885 346.321 444.482 343.83 447.591 342.495C448.353 342.168 449.251 341.914 449.987 342.296C450.189 342.401 450.375 342.56 450.453 342.775C450.578 343.12 450.396 343.498 450.19 343.801C449.097 345.411 447.258 346.339 445.438 347.028C443.618 347.716 442.347 348.474 440.423 349.373Z" fill="#BAE9F4"/>
<path d="M437.834 357.925C438.912 354.718 441.185 351.927 444.108 350.223C444.824 349.805 445.684 349.443 446.462 349.732C446.676 349.811 446.88 349.947 446.983 350.15C447.15 350.477 447.015 350.874 446.848 351.201C445.96 352.933 444.248 354.078 442.526 354.984C440.803 355.89 439.633 356.797 437.834 357.925Z" fill="#BAE9F4"/>
<path d="M436.432 366.544C437.51 363.337 439.783 360.546 442.706 358.842C443.422 358.424 444.283 358.062 445.06 358.351C445.274 358.43 445.478 358.566 445.581 358.769C445.748 359.096 445.613 359.493 445.446 359.82C444.558 361.552 442.846 362.697 441.124 363.603C439.4 364.509 438.231 365.417 436.432 366.544Z" fill="#BAE9F4"/>
<path d="M436.065 378.122C436.805 374.82 438.776 371.809 441.507 369.811C442.176 369.321 442.994 368.872 443.797 369.079C444.018 369.136 444.235 369.25 444.358 369.441C444.557 369.749 444.465 370.158 444.332 370.5C443.628 372.314 442.044 373.631 440.425 374.711C438.807 375.791 437.738 376.814 436.065 378.122Z" fill="#BAE9F4"/>
<path d="M436.621 386.546C437.157 383.446 438.877 380.388 441.369 378.106C441.98 377.546 442.734 376.997 443.507 377.04C443.719 377.052 443.931 377.116 444.059 377.265C444.264 377.507 444.197 377.89 444.088 378.222C443.512 379.978 442.073 381.444 440.59 382.703C439.107 383.962 438.143 385.072 436.621 386.546Z" fill="#BAE9F4"/>
<path d="M439.441 352.362C436.901 349.985 435.209 346.617 434.769 343.063C434.661 342.192 434.661 341.204 435.228 340.566C435.384 340.391 435.588 340.248 435.815 340.231C436.181 340.204 436.495 340.499 436.731 340.797C437.984 342.378 438.377 344.521 438.545 346.574C438.714 348.628 439.098 350.143 439.441 352.362Z" fill="#BAE9F4"/>
<path d="M437.645 359.045C434.611 357.343 432.163 354.476 430.888 351.13C430.575 350.31 430.339 349.351 430.738 348.595C430.848 348.387 431.012 348.2 431.228 348.13C431.577 348.016 431.952 348.228 432.253 348.461C433.847 349.698 434.74 351.684 435.394 353.638C436.048 355.592 436.782 356.971 437.645 359.045Z" fill="#BAE9F4"/>
<path d="M436.389 367.931C433.076 366.871 430.104 364.551 428.185 361.528C427.715 360.787 427.291 359.894 427.531 359.075C427.597 358.85 427.72 358.634 427.918 358.521C428.237 358.34 428.647 358.472 428.989 358.64C430.798 359.533 432.071 361.3 433.102 363.084C434.134 364.867 435.129 366.072 436.389 367.931Z" fill="#BAE9F4"/>
<path d="M435.874 379.408C432.879 377.639 430.495 374.718 429.295 371.345C429.001 370.518 428.786 369.554 429.201 368.808C429.315 368.603 429.483 368.42 429.702 368.354C430.054 368.248 430.424 368.468 430.72 368.708C432.286 369.979 433.135 371.986 433.745 373.953C434.354 375.92 435.057 377.315 435.874 379.408Z" fill="#BAE9F4"/>
<path d="M436.839 387.626C433.368 387.395 429.925 385.86 427.334 383.388C426.699 382.782 426.073 382.018 426.108 381.165C426.118 380.931 426.185 380.691 426.351 380.534C426.617 380.281 427.047 380.311 427.419 380.392C429.39 380.822 431.051 382.232 432.481 383.714C433.912 385.196 435.168 386.125 436.839 387.626Z" fill="#BAE9F4"/>
<path d="M476.058 393.858C476.058 395.25 374.371 396.378 248.933 396.378C123.495 396.378 21.8081 395.25 21.8081 393.858C21.8081 392.466 123.495 391.338 248.933 391.338C374.371 391.338 476.058 392.466 476.058 393.858Z" fill="#AFE1F2"/>
<path d="M268.174 101.13V122.785" stroke="#FFC840" stroke-width="2.986" stroke-miterlimit="10" stroke-linecap="round" stroke-linejoin="round"/>
<path d="M223.067 109.083L230.473 129.433" stroke="#FFC840" stroke-width="2.986" stroke-miterlimit="10" stroke-linecap="round" stroke-linejoin="round"/>
<path d="M183.4 131.985L197.32 148.574" stroke="#FFC840" stroke-width="2.986" stroke-miterlimit="10" stroke-linecap="round" stroke-linejoin="round"/>
<path d="M153.959 167.072L172.713 177.9" stroke="#FFC840" stroke-width="2.986" stroke-miterlimit="10" stroke-linecap="round" stroke-linejoin="round"/>
<path d="M138.293 210.113L159.619 213.873" stroke="#FFC840" stroke-width="2.986" stroke-miterlimit="10" stroke-linecap="round" stroke-linejoin="round"/>
<path d="M138.293 255.916L159.619 252.155" stroke="#FFC840" stroke-width="2.986" stroke-miterlimit="10" stroke-linecap="round" stroke-linejoin="round"/>
<path d="M153.959 298.956L172.713 288.129" stroke="#FFC840" stroke-width="2.986" stroke-miterlimit="10" stroke-linecap="round" stroke-linejoin="round"/>
<path d="M183.002 335.137L196.987 318.471" stroke="#FFC840" stroke-width="3" stroke-miterlimit="10" stroke-linecap="round" stroke-linejoin="round"/>
<path d="M222.855 358.146L230.296 337.702" stroke="#FFC840" stroke-width="3" stroke-miterlimit="10" stroke-linecap="round" stroke-linejoin="round"/>
<path d="M268.174 366.137V344.38" stroke="#FFC840" stroke-width="3" stroke-miterlimit="10" stroke-linecap="round" stroke-linejoin="round"/>
<path d="M313.281 356.945L305.874 336.596" stroke="#FFC840" stroke-width="2.986" stroke-miterlimit="10" stroke-linecap="round" stroke-linejoin="round"/>
<path d="M352.947 334.043L339.028 317.455" stroke="#FFC840" stroke-width="2.986" stroke-miterlimit="10" stroke-linecap="round" stroke-linejoin="round"/>
<path d="M382.389 298.956L363.635 288.129" stroke="#FFC840" stroke-width="2.986" stroke-miterlimit="10" stroke-linecap="round" stroke-linejoin="round"/>
<path d="M398.055 255.916L376.728 252.155" stroke="#FFC840" stroke-width="2.986" stroke-miterlimit="10" stroke-linecap="round" stroke-linejoin="round"/>
<path d="M398.055 210.113L376.728 213.873" stroke="#FFC840" stroke-width="2.986" stroke-miterlimit="10" stroke-linecap="round" stroke-linejoin="round"/>
<path d="M382.389 167.072L363.635 177.9" stroke="#FFC840" stroke-width="2.986" stroke-miterlimit="10" stroke-linecap="round" stroke-linejoin="round"/>
<path d="M352.947 131.985L339.028 148.574" stroke="#FFC840" stroke-width="2.986" stroke-miterlimit="10" stroke-linecap="round" stroke-linejoin="round"/>
<path d="M313.281 109.083L305.874 129.433" stroke="#FFC840" stroke-width="2.986" stroke-miterlimit="10" stroke-linecap="round" stroke-linejoin="round"/>
<path d="M285.935 393.28C330.156 393.882 376.962 391.773 421.184 392.375C422.668 392.395 427.499 391.971 419.439 386.773C412.612 382.371 391.035 386.331 391.035 386.331C391.035 386.331 396.058 384.317 396.034 381.719C396.011 379.12 394.041 376.836 391.676 375.758C389.311 374.68 386.618 374.602 384.023 374.75C378.743 375.052 373.514 376.222 368.609 378.199C370.69 376.919 371.325 373.781 369.905 371.793C368.485 369.805 365.31 369.388 363.425 370.941C366.739 366.453 371.863 346.562 356.116 337.795C336.378 326.807 321.388 335.849 318.19 342.462C316.568 335.971 309.12 331.056 304.215 329.838C293.028 327.06 285.74 327.884 275.296 332.761C271.601 334.486 266.654 340.379 264.198 343.634C260.351 348.732 259.751 355.512 259.54 361.895C259.381 366.686 259.359 371.481 259.475 376.273" fill="#BAE9F4"/>
<path d="M94.8 393.338C74.122 393.62 52.236 392.633 31.558 392.915C30.864 392.924 28.605 392.726 32.374 390.296C35.566 388.238 45.656 390.089 45.656 390.089C45.656 390.089 43.307 389.147 43.318 387.932C43.329 386.717 44.25 385.649 45.356 385.145C46.462 384.641 47.721 384.604 48.934 384.674C51.403 384.815 53.848 385.362 56.142 386.287C55.169 385.689 54.872 384.221 55.536 383.292C56.2 382.362 57.684 382.167 58.566 382.894C57.016 380.795 54.62 371.494 61.984 367.395C71.213 362.257 78.223 366.485 79.718 369.578C80.477 366.543 83.959 364.244 86.253 363.675C91.484 362.376 94.892 362.761 99.775 365.042C101.503 365.849 103.816 368.604 104.964 370.126C106.763 372.51 107.043 375.68 107.142 378.665C107.216 380.905 107.227 383.148 107.172 385.388" fill="#BAE9F4"/>
<path d="M154.338 191.734L142.854 310.713C142.657 312.749 140.85 314.238 138.826 314.043L119.629 312.19C117.593 311.993 116.104 310.186 116.3 308.15L127.784 189.171C127.981 187.135 129.788 185.646 131.824 185.842L151.021 187.695C153.045 187.89 154.535 189.698 154.338 191.734Z" fill="#FDEFEA"/>
<path d="M151.84 191.493L149.805 212.576L128.247 210.495L130.282 189.412C130.345 188.762 130.934 188.277 131.583 188.34L150.78 190.193C151.43 190.256 151.903 190.844 151.84 191.493Z" fill="#F9A66E"/>
<path d="M128.136 211.745L125.886 235.052L147.445 237.133L149.695 213.826L128.136 211.745Z" fill="#FFB27E"/>
<path d="M128.247 210.486L128.127 211.735L149.685 213.815L149.806 212.565L128.247 210.486Z" fill="#A9D6D3"/>
<path d="M125.767 236.3L123.517 259.608L145.075 261.689L147.325 238.382L125.767 236.3Z" fill="#FCBF95"/>
<path d="M125.883 235.043L125.762 236.292L147.321 238.374L147.441 237.125L125.883 235.043Z" fill="#A9D6D3"/>
<path d="M123.397 260.856L121.147 284.163L142.705 286.245L144.956 262.937L123.397 260.856Z" fill="#FFD2B3"/>
<path d="M123.514 259.598L123.394 260.847L144.952 262.929L145.073 261.68L123.514 259.598Z" fill="#A9D6D3"/>
<path d="M142.574 287.491L140.356 310.473C140.292 311.135 139.717 311.609 139.067 311.546L119.87 309.693C119.221 309.63 118.734 309.054 118.798 308.392L121.016 285.41L142.574 287.491Z" fill="#FFE5D4"/>
<path d="M121.139 284.15L121.019 285.399L142.577 287.478L142.697 286.229L121.139 284.15Z" fill="#A9D6D3"/>
<path d="M125.75 210.245L125.629 211.495L152.184 214.055L152.304 212.806L125.75 210.245Z" fill="#FDEFEA"/>
<path d="M123.38 234.799L123.26 236.049L149.814 238.61L149.935 237.36L123.38 234.799Z" fill="#FDEFEA"/>
<path d="M121.016 259.357L120.895 260.606L147.449 263.17L147.57 261.921L121.016 259.357Z" fill="#FDEFEA"/>
<path d="M118.646 283.913L118.525 285.162L145.08 287.726L145.2 286.476L118.646 283.913Z" fill="#FDEFEA"/>
<path d="M115.319 185.61L143.497 301.773C143.979 303.761 142.76 305.761 140.785 306.24L122.042 310.787C120.054 311.269 118.054 310.05 117.572 308.062L89.3938 191.899C88.9118 189.911 90.1308 187.911 92.1188 187.429L110.862 182.883C112.837 182.403 114.837 183.623 115.319 185.61Z" fill="#FDEFEA"/>
<path d="M112.88 186.202L117.873 206.786L96.825 211.891L91.832 191.307C91.678 190.673 92.075 190.021 92.709 189.868L111.452 185.322C112.087 185.168 112.726 185.568 112.88 186.202Z" fill="#5EAFBC"/>
<path d="M118.161 208.005L97.1133 213.11L102.632 235.864L123.679 230.76L118.161 208.005Z" fill="#72C5CE"/>
<path d="M117.863 206.787L96.8159 211.892L97.1117 213.112L118.159 208.007L117.863 206.787Z" fill="#A9D6D3"/>
<path d="M123.974 231.98L102.927 237.085L108.446 259.839L129.493 254.735L123.974 231.98Z" fill="#93DEE2"/>
<path d="M123.677 230.761L102.63 235.866L102.926 237.086L123.973 231.981L123.677 230.761Z" fill="#A9D6D3"/>
<path d="M129.79 255.952L108.743 261.057L114.262 283.812L135.309 278.707L129.79 255.952Z" fill="#ABEFEF"/>
<path d="M129.491 254.735L108.444 259.84L108.74 261.06L129.787 255.955L129.491 254.735Z" fill="#A9D6D3"/>
<path d="M135.615 279.928L141.058 302.366C141.215 303.012 140.827 303.649 140.193 303.803L121.45 308.349C120.816 308.503 120.167 308.118 120.011 307.471L114.568 285.033L135.615 279.928Z" fill="#CFF9F8"/>
<path d="M135.306 278.709L114.259 283.814L114.555 285.033L135.602 279.929L135.306 278.709Z" fill="#A9D6D3"/>
<path d="M120.301 206.196L94.3765 212.484L94.6723 213.703L120.597 207.415L120.301 206.196Z" fill="#FDEFEA"/>
<path d="M126.115 230.17L100.19 236.458L100.486 237.677L126.411 231.389L126.115 230.17Z" fill="#FDEFEA"/>
<path d="M131.93 254.144L106.005 260.431L106.301 261.651L132.226 255.363L131.93 254.144Z" fill="#FDEFEA"/>
<path d="M137.744 278.118L111.819 284.405L112.115 285.625L138.04 279.337L137.744 278.118Z" fill="#FDEFEA"/>
<path d="M85.3861 198.726L143.888 302.963C144.889 304.747 144.255 307.002 142.483 307.997L125.665 317.436C123.881 318.437 121.626 317.803 120.625 316.02L62.1231 211.783C61.1221 209.999 61.7561 207.744 63.5391 206.743L80.3571 197.304C82.1301 196.309 84.3851 196.943 85.3861 198.726Z" fill="#FDEFEA"/>
<path d="M83.1979 199.954L93.5649 218.425L74.6779 229.025L64.3109 210.554C63.9919 209.985 64.1979 209.25 64.7669 208.931L81.5859 199.492C82.1549 199.173 82.8779 199.385 83.1979 199.954Z" fill="#FFCD69"/>
<path d="M94.1685 219.511L75.2827 230.111L86.7415 250.528L105.627 239.928L94.1685 219.511Z" fill="#FFD385"/>
<path d="M93.5669 218.42L74.6812 229.021L75.2955 230.116L94.1812 219.514L93.5669 218.42Z" fill="#A9D6D3"/>
<path d="M106.242 241.023L87.356 251.622L98.8153 272.04L117.701 261.441L106.242 241.023Z" fill="#FFDCA4"/>
<path d="M105.646 239.945L86.7578 250.544L87.372 251.639L106.26 241.039L105.646 239.945Z" fill="#A9D6D3"/>
<path d="M118.314 262.536L99.4277 273.135L110.887 293.552L129.772 282.953L118.314 262.536Z" fill="#FFE8C7"/>
<path d="M117.715 261.444L98.8291 272.045L99.4434 273.14L118.329 262.538L117.715 261.444Z" fill="#A9D6D3"/>
<path d="M130.4 284.058L141.7 304.192C142.025 304.772 141.824 305.49 141.255 305.809L124.437 315.248C123.868 315.567 123.139 315.372 122.814 314.792L111.514 294.658L130.4 284.058Z" fill="#FFF3E3"/>
<path d="M129.794 282.972L110.906 293.571L111.52 294.666L130.408 284.066L129.794 282.972Z" fill="#A9D6D3"/>
<path d="M95.7433 217.189L72.481 230.244L73.0951 231.339L96.3575 218.283L95.7433 217.189Z" fill="#FDEFEA"/>
<path d="M107.829 238.704L84.5669 251.762L85.1812 252.857L108.444 239.798L107.829 238.704Z" fill="#FDEFEA"/>
<path d="M119.889 260.212L96.6265 273.268L97.2406 274.362L120.503 261.306L119.889 260.212Z" fill="#FDEFEA"/>
<path d="M131.962 281.724L108.7 294.779L109.314 295.874L132.576 282.818L131.962 281.724Z" fill="#FDEFEA"/>
<path d="M123.085 382.482C88.7279 359.872 63.4809 324.57 53.8169 285.628L55.1679 285.292C64.7489 323.9 89.7819 358.9 123.85 381.318L123.085 382.482Z" fill="#BAE9F4"/>
<path d="M57.521 295.983C52.766 290.496 50.083 283.254 50.116 275.993C50.124 274.213 50.392 272.229 51.773 271.106C52.153 270.798 52.625 270.568 53.114 270.599C53.9 270.648 54.488 271.328 54.909 271.994C57.143 275.522 57.395 279.936 57.194 284.107C56.993 288.277 57.396 291.428 57.521 295.983Z" fill="#BAE9F4"/>
<path d="M62.958 309.714C60.769 302.791 61.178 295.079 64.088 288.426C64.801 286.795 65.834 285.08 67.547 284.597C68.018 284.464 68.543 284.441 68.979 284.663C69.682 285.02 69.951 285.878 70.074 286.656C70.726 290.781 69.207 294.933 67.368 298.682C65.529 302.431 64.65 305.483 62.958 309.714Z" fill="#BAE9F4"/>
<path d="M71.4551 326.902C68.4361 320.298 67.9001 312.594 69.9741 305.636C70.4821 303.931 71.2981 302.102 72.9391 301.413C73.3901 301.224 73.9081 301.137 74.3681 301.303C75.1091 301.571 75.4811 302.39 75.6981 303.147C76.8491 307.161 75.8491 311.467 74.4831 315.413C73.1161 319.359 72.6161 322.496 71.4551 326.902Z" fill="#BAE9F4"/>
<path d="M81.9077 342.456C78.8887 335.852 78.3517 328.148 80.4267 321.19C80.9347 319.485 81.7507 317.655 83.3917 316.967C83.8427 316.778 84.3607 316.691 84.8207 316.857C85.5617 317.125 85.9337 317.944 86.1507 318.701C87.3017 322.715 86.3017 327.021 84.9357 330.967C83.5687 334.914 83.0687 338.05 81.9077 342.456Z" fill="#BAE9F4"/>
<path d="M98.3251 361.121C94.6381 354.866 93.3061 347.259 94.6491 340.123C94.9781 338.374 95.6001 336.47 97.1611 335.616C97.5901 335.381 98.0961 335.241 98.5711 335.359C99.3361 335.549 99.7901 336.324 100.085 337.055C101.646 340.928 101.097 345.315 100.147 349.381C99.1961 353.447 99.0241 356.618 98.3251 361.121Z" fill="#BAE9F4"/>
<path d="M111.556 373.494C107.845 367.854 106.051 360.542 106.603 353.311C106.738 351.539 107.113 349.571 108.387 348.504C108.737 348.211 109.162 348 109.582 348.048C110.258 348.125 110.716 348.825 111.032 349.503C112.707 353.099 112.606 357.504 112.131 361.652C111.656 365.799 111.777 368.952 111.556 373.494Z" fill="#BAE9F4"/>
<path d="M65.8069 315.835C58.3429 315.841 50.7489 313.051 44.8459 308.133C43.3989 306.928 41.9479 305.382 41.8999 303.55C41.8869 303.046 41.9969 302.524 42.3279 302.164C42.8619 301.584 43.7859 301.586 44.5939 301.706C48.8759 302.343 52.6349 305.121 55.9119 308.088C59.1889 311.055 62.0119 312.864 65.8069 315.835Z" fill="#BAE9F4"/>
<path d="M72.8017 328.934C65.5547 330.722 57.5147 329.825 50.6077 326.458C48.9147 325.633 47.1367 324.478 46.6527 322.71C46.5197 322.224 46.5017 321.69 46.7377 321.262C47.1177 320.572 48.0157 320.352 48.8287 320.276C53.1387 319.873 57.4527 321.673 61.3427 323.772C65.2327 325.871 68.4067 326.954 72.8017 328.934Z" fill="#BAE9F4"/>
<path d="M83.876 344.689C77.133 347.89 69.076 348.62 61.635 346.703C59.811 346.233 57.838 345.457 57.01 343.822C56.783 343.373 56.658 342.853 56.804 342.386C57.038 341.634 57.874 341.239 58.656 341.002C62.798 339.744 67.385 340.645 71.616 341.924C75.848 343.202 79.174 343.628 83.876 344.689Z" fill="#BAE9F4"/>
<path d="M99.912 363.414C92.627 365.04 84.609 363.964 77.779 360.445C76.105 359.582 74.353 358.388 73.909 356.61C73.787 356.121 73.781 355.587 74.026 355.164C74.421 354.482 75.324 354.283 76.139 354.225C80.457 353.917 84.73 355.813 88.572 357.998C92.413 360.184 95.562 361.337 99.912 363.414Z" fill="#BAE9F4"/>
<path d="M113.483 374.865C107.71 379.597 100.066 382.246 92.3832 382.178C90.5002 382.161 88.3982 381.884 87.2012 380.496C86.8722 380.115 86.6262 379.641 86.6552 379.152C86.7012 378.365 87.4172 377.781 88.1192 377.363C91.8362 375.144 96.5052 374.913 100.92 375.135C105.333 375.356 108.664 374.968 113.483 374.865Z" fill="#BAE9F4"/>
<path d="M377.579 315.094L364.665 393.2" stroke="#3E89CC" stroke-width="3" stroke-miterlimit="10" stroke-linecap="round" stroke-linejoin="round"/>
<path d="M409.615 315.094L422.529 393.2" stroke="#3E89CC" stroke-width="3" stroke-miterlimit="10" stroke-linecap="round" stroke-linejoin="round"/>
<path d="M459.656 233.625H331.724V326.869H459.656V233.625Z" fill="#3E89CC"/>
<path d="M454.656 237.27H336.724V323.226H454.656V237.27Z" fill="#EEFBFF"/>
<path d="M370.33 358.938H416.864" stroke="#3E89CC" stroke-width="3" stroke-miterlimit="10"/>
<path d="M381.217 287.291L381.353 275.423L383.177 275.444L383.04 287.312L381.217 287.291ZM382.303 273.456C381.948 273.452 381.642 273.327 381.388 273.082C381.138 272.837 381.015 272.544 381.019 272.204C381.023 271.864 381.153 271.575 381.408 271.336C381.668 271.096 381.976 270.979 382.331 270.983C382.687 270.987 382.989 271.112 383.239 271.357C383.494 271.602 383.619 271.894 383.615 272.234C383.611 272.574 383.479 272.864 383.219 273.103C382.964 273.342 382.658 273.46 382.303 273.456ZM390.859 287.649C389.87 287.638 388.999 287.378 388.248 286.87C387.496 286.356 386.912 285.639 386.495 284.717C386.078 283.79 385.877 282.698 385.892 281.441C385.906 280.194 386.132 279.115 386.57 278.203C387.008 277.291 387.611 276.59 388.379 276.099C389.148 275.608 390.031 275.368 391.031 275.38C391.803 275.389 392.412 275.524 392.857 275.787C393.308 276.045 393.65 276.337 393.883 276.664C394.121 276.987 394.306 277.251 394.438 277.459L394.592 277.461L394.66 271.619L396.483 271.64L396.301 287.465L394.539 287.444L394.56 285.621L394.344 285.618C394.208 285.833 394.014 286.104 393.763 286.431C393.512 286.753 393.156 287.04 392.694 287.292C392.233 287.539 391.621 287.658 390.859 287.649ZM391.125 286.014C391.856 286.023 392.477 285.839 392.986 285.464C393.495 285.083 393.885 284.555 394.155 283.878C394.426 283.195 394.566 282.406 394.577 281.51C394.587 280.624 394.467 279.847 394.217 279.18C393.967 278.507 393.592 277.983 393.092 277.606C392.591 277.224 391.97 277.029 391.228 277.02C390.455 277.011 389.809 277.202 389.29 277.593C388.775 277.979 388.385 278.507 388.12 279.179C387.86 279.846 387.725 280.597 387.715 281.431C387.706 282.276 387.826 283.045 388.075 283.738C388.33 284.426 388.71 284.977 389.215 285.389C389.726 285.797 390.362 286.005 391.125 286.014ZM404.867 287.811C403.724 287.797 402.74 287.534 401.917 287.019C401.098 286.5 400.47 285.782 400.033 284.865C399.6 283.943 399.391 282.874 399.405 281.658C399.419 280.443 399.653 279.374 400.106 278.452C400.565 277.524 401.197 276.805 402.001 276.294C402.811 275.778 403.751 275.526 404.823 275.538C405.441 275.545 406.05 275.656 406.651 275.868C407.251 276.081 407.796 276.423 408.285 276.892C408.774 277.356 409.161 277.968 409.446 278.729C409.731 279.49 409.867 280.424 409.854 281.531L409.845 282.304L400.697 282.199L400.715 280.622L408.009 280.706C408.017 280.037 407.89 279.438 407.628 278.909C407.371 278.381 407 277.962 406.514 277.652C406.033 277.343 405.463 277.184 404.804 277.176C404.078 277.168 403.447 277.341 402.912 277.696C402.383 278.045 401.973 278.504 401.683 279.072C401.394 279.641 401.245 280.252 401.237 280.907L401.225 281.957C401.215 282.854 401.361 283.615 401.663 284.242C401.97 284.864 402.4 285.34 402.952 285.671C403.505 285.997 404.149 286.164 404.886 286.172C405.365 286.178 405.799 286.116 406.186 285.987C406.58 285.852 406.919 285.65 407.206 285.38C407.492 285.105 407.715 284.763 407.874 284.352L409.63 284.867C409.438 285.462 409.12 285.984 408.677 286.432C408.234 286.876 407.689 287.22 407.043 287.465C406.396 287.705 405.671 287.82 404.867 287.811ZM416.047 287.97C415.295 287.961 414.614 287.812 414.005 287.522C413.395 287.226 412.913 286.806 412.559 286.261C412.204 285.711 412.032 285.049 412.041 284.276C412.048 283.597 412.189 283.047 412.461 282.628C412.734 282.203 413.096 281.872 413.547 281.635C413.998 281.398 414.494 281.224 415.037 281.112C415.584 280.994 416.134 280.903 416.686 280.837C417.408 280.753 417.994 280.69 418.442 280.648C418.896 280.602 419.227 280.521 419.434 280.405C419.647 280.289 419.755 280.084 419.758 279.79L419.759 279.729C419.768 278.966 419.566 278.371 419.153 277.944C418.746 277.517 418.123 277.299 417.283 277.289C416.413 277.279 415.728 277.462 415.229 277.837C414.73 278.213 414.378 278.616 414.172 279.046L412.448 278.408C412.765 277.69 413.184 277.134 413.704 276.738C414.229 276.337 414.799 276.06 415.413 275.907C416.033 275.75 416.642 275.674 417.24 275.681C417.621 275.686 418.058 275.737 418.552 275.835C419.05 275.929 419.53 276.117 419.99 276.401C420.456 276.684 420.84 277.108 421.143 277.673C421.445 278.238 421.591 278.992 421.58 279.935L421.49 287.754L419.667 287.733L419.685 286.126L419.593 286.125C419.466 286.381 419.257 286.655 418.965 286.945C418.673 287.235 418.286 287.481 417.805 287.681C417.324 287.882 416.738 287.978 416.047 287.97ZM416.344 286.335C417.066 286.343 417.675 286.209 418.173 285.931C418.676 285.654 419.056 285.292 419.314 284.847C419.576 284.402 419.71 283.932 419.716 283.437L419.735 281.768C419.657 281.86 419.486 281.943 419.222 282.018C418.964 282.087 418.665 282.148 418.324 282.2C417.989 282.248 417.661 282.291 417.341 282.328C417.026 282.361 416.771 282.389 416.575 282.412C416.1 282.468 415.656 282.564 415.243 282.698C414.834 282.827 414.502 283.027 414.247 283.297C413.996 283.562 413.868 283.927 413.863 284.39C413.856 285.024 414.085 285.506 414.55 285.835C415.02 286.16 415.618 286.327 416.344 286.335Z" fill="#3E89CC"/>
<path d="M163.619 393.28H90.2023L77.8703 260.511C77.7133 258.823 78.8193 257.347 80.2393 257.347H173.581C175.002 257.347 176.107 258.823 175.95 260.511L163.619 393.28Z" fill="#81D9FC"/>
<path d="M236.195 366.756V393.485H102.424C100.04 393.485 98.0121 392.014 97.2001 389.922C96.9461 389.288 96.8071 388.591 96.8071 387.868V368.57C96.8071 367.936 96.9091 367.327 97.1111 366.757L236.195 366.756Z" fill="#2775AF"/>
<path d="M236.195 366.756V389.922H97.2001C96.9461 389.288 96.8071 388.591 96.8071 387.868V368.57C96.8071 367.936 96.9091 367.327 97.1111 366.757L236.195 366.756Z" fill="white"/>
<path d="M250.091 369.431H96.8062V370.902H250.091V369.431Z" fill="#C3ECFE"/>
<path d="M250.091 372.741H96.8062V374.212H250.091V372.741Z" fill="#C3ECFE"/>
<path d="M250.091 376.05H96.8062V377.521H250.091V376.05Z" fill="#C3ECFE"/>
<path d="M250.091 379.359H96.8062V380.83H250.091V379.359Z" fill="#C3ECFE"/>
<path d="M250.091 382.669H96.8062V384.153H250.091V382.669Z" fill="#C3ECFE"/>
<path d="M250.091 385.978H96.8062V387.462H250.091V385.978Z" fill="#C3ECFE"/>
<path opacity="0.2" d="M200.611 365.688H194.799V382.164L200.611 377.383L206.422 382.164V368.089L200.611 365.688Z" fill="#595959"/>
<path d="M201.444 364.355L195.632 366.756V380.83L201.444 376.05L207.256 380.83V366.756L201.444 364.355Z" fill="#FF8736"/>
<path d="M236.195 362.939V366.756H97.1113C97.8593 364.537 99.9513 362.939 102.424 362.939H236.195Z" fill="#2775AF"/>
<path d="M245.866 336.425V363.155H112.096C109.716 363.155 107.686 361.685 106.876 359.595C106.616 358.955 106.476 358.265 106.476 357.535V338.235C106.476 337.605 106.586 336.995 106.786 336.425H245.866Z" fill="#3E89CC"/>
<path d="M245.866 336.425V359.595H106.876C106.616 358.955 106.476 358.265 106.476 357.535V338.235C106.476 337.605 106.586 336.995 106.786 336.425H245.866Z" fill="white"/>
<path d="M259.766 339.105H106.476V340.575H259.766V339.105Z" fill="#C3ECFE"/>
<path d="M259.766 342.415H106.476V343.885H259.766V342.415Z" fill="#C3ECFE"/>
<path d="M259.766 345.725H106.476V347.195H259.766V345.725Z" fill="#C3ECFE"/>
<path d="M259.766 349.025H106.476V350.505H259.766V349.025Z" fill="#C3ECFE"/>
<path d="M259.766 352.335H106.476V353.825H259.766V352.335Z" fill="#C3ECFE"/>
<path d="M259.766 355.645H106.476V357.135H259.766V355.645Z" fill="#C3ECFE"/>
<path opacity="0.2" d="M127.251 335.644L121.44 334.907V352.119L127.251 347.339L133.063 352.119V338.045L127.251 335.644Z" fill="#595959"/>
<path d="M128.535 334.025L122.724 336.426V350.5L128.535 345.72L134.347 350.5V336.426L128.535 334.025Z" fill="#FFC840"/>
<path d="M245.866 332.605V336.425H106.786C107.536 334.205 109.626 332.605 112.096 332.605H245.866Z" fill="#3E89CC"/>
<path d="M443.361 281.097C443.721 281.052 444.004 280.757 444.004 280.384C444.004 279.981 443.677 279.654 443.274 279.654C442.871 279.654 442.544 279.981 442.544 280.384C442.544 280.72 442.775 280.991 443.084 281.076C442.581 284.818 438.048 287.764 432.5 287.852H431.995C426.448 287.764 421.915 284.818 421.412 281.076C421.72 280.99 421.951 280.72 421.951 280.384C421.951 279.981 421.624 279.654 421.221 279.654C420.818 279.654 420.491 279.981 420.491 280.384C420.491 280.756 420.774 281.052 421.134 281.097C421.562 284.34 424.877 287.005 429.273 287.852H421.555C421.485 287.522 421.205 287.27 420.854 287.27C420.451 287.27 420.124 287.597 420.124 288C420.124 288.403 420.451 288.73 420.854 288.73C421.204 288.73 421.484 288.478 421.554 288.149H441.922C441.993 288.478 442.272 288.73 442.622 288.73C443.025 288.73 443.352 288.403 443.352 288C443.352 287.597 443.025 287.27 442.622 287.27C442.271 287.27 441.992 287.523 441.922 287.852H435.223C439.618 287.005 442.933 284.34 443.361 281.097Z" fill="#3E89CC"/>
<path d="M438.076 280.08L432.285 288.002L431.865 277.022C433.061 277.006 434.028 276.032 434.028 274.832C434.028 273.624 433.046 272.642 431.838 272.642C430.63 272.642 429.651 273.624 429.651 274.832C429.651 276.04 430.629 277.022 431.838 277.022H431.858L431.759 288.002C431.759 288.002 427.83 282.457 425.75 279.831C426.665 277.316 427.73 270.321 428.063 268.007C428.134 267.532 428.174 267.254 428.174 267.254C428.174 267.254 428.309 267.254 435.834 267.254C435.854 267.484 435.881 267.737 435.913 268.007C436.393 272.078 438.076 280.08 438.076 280.08Z" fill="#71606E"/>
<path opacity="0.2" d="M435.914 268.007H428.063C428.134 267.532 428.174 267.254 428.174 267.254C428.174 267.254 428.309 267.254 435.834 267.254C435.854 267.484 435.882 267.737 435.914 268.007Z" fill="#71606E"/>
<path d="M437.319 264.495V266.796C437.319 267.228 436.971 267.576 436.539 267.576H427.286C426.874 267.576 426.537 267.259 426.51 266.851C426.506 266.835 426.506 266.815 426.506 266.796V264.495C426.506 264.063 426.855 263.715 427.286 263.715H436.539C436.971 263.715 437.319 264.064 437.319 264.495Z" fill="#FF8736"/>
<path opacity="0.2" d="M437.319 264.495V266.796C437.319 267.228 436.971 267.576 436.539 267.576H427.286C426.874 267.576 426.537 267.259 426.51 266.851C434.139 267.303 433.949 264.641 433.656 263.714H436.54C436.971 263.715 437.319 264.064 437.319 264.495Z" fill="#71606E"/>
<path d="M304.636 356.065V362.405C304.636 366.355 301.426 369.565 297.476 369.565H234.136C230.196 369.565 226.996 366.375 226.976 362.435V356.065C226.976 352.105 230.186 348.905 234.136 348.905H297.476C301.426 348.905 304.636 352.105 304.636 356.065Z" fill="#71606E"/>
<path d="M304.636 380.235V386.565C304.636 390.525 301.426 393.735 297.476 393.735H234.136C230.666 393.735 227.766 391.255 227.116 387.965C227.026 387.515 226.976 387.045 226.976 386.565V380.235C226.976 376.275 230.186 373.065 234.136 373.065H297.476C301.426 373.065 304.636 376.275 304.636 380.235Z" fill="#71606E"/>
<path d="M360.636 233.735C360.636 243.795 359.036 253.475 356.086 262.545C354.646 266.925 352.896 271.175 350.856 275.245C347.906 281.145 344.336 286.695 340.226 291.795C337.226 295.555 333.916 299.085 330.356 302.315C325.726 306.555 320.666 310.315 315.256 313.535C303.166 320.735 295.076 333.305 294.056 347.345C294.026 347.855 293.996 348.375 293.976 348.905C268.976 348.905 265.806 348.905 265.806 348.905C265.806 348.905 262.636 348.905 237.636 348.905C237.246 339.205 234.026 331.375 230.226 325.425C229.136 323.705 227.986 322.145 226.846 320.735C221.766 314.465 216.816 311.315 216.816 311.315C191.776 294.825 175.196 266.555 174.976 234.385C174.626 183.625 215.726 141.615 266.486 140.915C270.046 140.865 273.556 141.015 277.016 141.355C323.956 145.965 360.636 185.565 360.636 233.735Z" fill="#FFC840"/>
<path d="M298.392 369.407H233.221V373.067H298.392V369.407Z" fill="#443A43"/>
<path opacity="0.2" d="M360.636 233.735C360.636 267.665 342.436 297.345 315.256 313.535C302.746 320.985 294.822 334.25 293.748 348.735C275.117 349.018 256.482 349.018 237.852 348.737C237.334 340.706 234.751 332.818 230.418 326.036C255.756 322.8 281.233 315.542 301.619 300.15C341.321 270.173 344.09 217.046 318.085 176.813C308.11 161.38 293.701 149.025 277.015 141.354C323.956 145.965 360.636 185.565 360.636 233.735Z" fill="#FFB839"/>
<path opacity="0.2" d="M304.636 356.065V362.405C304.636 366.355 301.426 369.565 297.476 369.565H234.136C230.196 369.565 226.996 366.375 226.976 362.435C275.116 367.295 279.896 353.005 280.296 348.905H297.476C301.426 348.905 304.636 352.105 304.636 356.065Z" fill="#71606E"/>
<path opacity="0.2" d="M304.636 380.235V386.565C304.636 390.525 301.426 393.735 297.476 393.735H234.136C230.666 393.735 227.766 391.255 227.116 387.965C285.586 392.935 275.306 373.065 275.306 373.065H297.476C301.426 373.065 304.636 376.275 304.636 380.235Z" fill="#71606E"/>
<g opacity="0.5">
<path d="M205.496 190.781C197.471 203.274 191.458 221.814 193.574 248.951" stroke="#FFE1B0" stroke-width="16" stroke-miterlimit="10" stroke-linecap="round" stroke-linejoin="round"/>
<path d="M234.546 166.771C234.546 166.771 228.034 168.71 220.176 174.74" stroke="#FFE1B0" stroke-width="16" stroke-miterlimit="10" stroke-linecap="round" stroke-linejoin="round"/>
</g>
<path d="M155.675 263.641C156.399 263.934 156.951 264.619 157.083 265.389C157.215 266.159 156.924 266.989 156.34 267.507C157.013 267.527 157.463 268.299 157.381 268.967C157.299 269.635 156.849 270.194 156.388 270.684C155.858 271.247 155.213 271.807 154.44 271.822C153.882 271.833 153.353 271.547 152.942 271.17C152.648 270.899 152.398 270.575 152.246 270.205C152.074 269.785 152.033 269.324 151.995 268.871C151.861 267.281 151.727 265.692 151.592 264.103C151.565 263.779 151.552 263.411 151.78 263.179" fill="#0B0B3A"/>
<path d="M141.972 274.142C141.867 276.209 142.014 279.808 141.423 280.341C140.831 280.874 136.665 280.854 136.665 280.854C136.665 280.854 145.75 289.425 146.36 288.95C146.971 288.475 155.046 281.895 153.231 281.555C151.416 281.215 149.64 281.288 149.692 280.348C149.744 279.409 149.795 278.469 149.847 277.53" fill="#ED9C80"/>
<path d="M134.185 320.249C134.185 320.249 147.507 321.762 150.574 321.825C153.641 321.888 153.489 320.287 153.489 320.287C153.645 316.911 154.217 308.956 154.851 306.26C155.443 303.743 155.706 302.813 156.222 300.421C157.368 295.105 157.317 294.09 158.531 287.528L150.574 281.132C150.574 281.132 149.751 283.58 146.415 283.622C141.957 283.679 140.57 280.556 140.57 280.556L129.717 287.762L128.699 305.291L132.778 318.713" fill="#0094BC"/>
<path d="M141.822 272.27C142.063 273.311 142.377 274.335 142.761 275.333C143.464 277.161 144.502 277.818 146.437 277.864C147.797 277.897 149.156 277.929 150.516 277.961C151.56 277.986 152.86 278.021 153.702 277.289C154.538 276.563 154.556 275.34 154.741 274.335C154.978 273.048 155.171 271.753 155.32 270.453C155.611 267.907 155.731 265.341 155.679 262.779C155.672 262.427 155.661 262.073 155.588 261.729C155.558 261.589 155.514 261.445 155.413 261.344C155.287 261.218 155.099 261.183 154.923 261.155C152.375 260.753 149.79 260.587 147.212 260.661C145.391 260.713 143.461 260.926 142.019 262.04C140.568 263.162 139.88 264.984 139.26 266.71C139.16 266.987 139.086 267.357 139.327 267.527" fill="#ED9C80"/>
<path d="M170.969 365.137C170.969 365.137 170.542 367.697 170.201 368.572C169.861 369.447 166.988 368.64 166.799 368.075C166.609 367.509 167.703 363.346 167.703 363.346" fill="#ED9C80"/>
<path d="M165.798 368.798C165.549 369.742 165.236 371.553 165.236 371.553L168.106 372.803L168.577 372.36C168.577 372.36 169.289 373.223 170.169 373.63C170.823 373.932 172.232 374.323 172.948 374.401C175.454 374.671 177.298 374.2 177.447 373.852C178.069 372.4 174.744 372.011 174.084 371.838C172.189 371.339 171.136 369.731 170.934 368.682C170.788 367.921 170.976 367.787 170.551 367.811C170.551 367.811 170.179 367.792 169.833 368.148C169.303 368.695 168.504 368.945 167.794 368.622C167.388 368.438 167.002 368.168 166.776 367.775C166.776 367.775 166.047 367.854 165.798 368.798Z" fill="#3A3A3A"/>
<path d="M158.281 331.672C162.769 332.554 168.201 333.208 172.736 332.61C172.102 334.427 170.748 336.167 170.156 338.727C168.2 347.18 167.521 358.534 167.025 365.559C167.025 365.559 167.964 367.362 170.972 365.989C175.467 354.888 183.315 332.389 183.242 327.508C183.15 321.294 167.64 319.794 156.274 318.263" fill="#243A6C"/>
<g opacity="0.5">
<path d="M138.469 319.231C134.895 321.841 158.281 331.672 158.281 331.672C160.875 332.182 163.401 332.41 165.946 332.404C166.187 331.94 166.412 331.465 166.516 330.953C166.654 330.274 166.58 329.568 166.699 328.885C166.93 327.557 167.883 326.435 169.035 325.736C170.187 325.037 171.526 324.712 172.857 324.498C176.019 323.988 181.54 324.346 181.54 324.346C174.512 319.165 160.841 320.333 154.143 319.907C152.859 322.021 138.981 318.857 138.469 319.231Z" fill="#40536D"/>
</g>
<g opacity="0.2">
<path d="M168.976 367.505C168.876 368.045 168.736 368.725 168.596 369.275C168.666 369.265 168.726 369.265 168.726 369.265C169.156 369.245 168.966 369.375 169.106 370.135C169.316 371.185 170.366 372.795 172.256 373.295C172.916 373.465 176.246 373.855 175.626 375.305C175.476 375.655 173.626 376.125 171.126 375.855C170.406 375.775 168.996 375.385 168.346 375.085C167.466 374.675 166.756 373.815 166.756 373.815L166.276 374.255L163.406 373.005C163.406 373.005 163.726 371.195 163.976 370.255C164.216 369.305 164.956 369.225 164.956 369.225C164.976 368.775 165.126 367.965 165.306 367.165C165.236 367.075 165.196 367.005 165.196 367.005C165.696 359.985 166.376 348.635 168.326 340.175C168.666 338.715 169.256 337.515 169.816 336.425C170.236 335.605 170.636 334.845 170.906 334.065C168.816 334.335 166.526 334.335 164.226 334.185C164.206 334.895 164.176 335.645 164.146 336.425C163.696 346.395 162.036 361.345 162.276 373.185C162.276 373.185 162.086 373.345 161.726 373.505C161.716 374.045 161.696 374.695 161.656 375.245C161.726 375.215 161.786 375.205 161.786 375.205C162.196 375.105 162.036 375.275 162.316 375.995C162.696 376.995 164.006 378.395 165.966 378.555C166.646 378.615 169.986 378.425 169.626 379.955C169.536 380.325 167.806 381.105 165.286 381.275C164.566 381.325 163.116 381.185 162.416 381.005C161.476 380.755 160.626 380.025 160.626 380.025L160.236 380.545L157.196 379.805C157.196 379.805 157.196 377.975 157.276 376.995C157.356 376.025 158.056 375.825 158.056 375.825H158.066C158.006 375.355 158.016 374.465 158.056 373.595C157.776 373.505 157.496 373.405 157.196 373.275C156.446 365.135 151.936 346.755 154.146 336.425C154.316 335.615 154.526 334.865 154.786 334.165C146.346 335.285 139.076 336.335 131.406 333.795C130.586 333.525 130.046 333.135 129.586 332.605H180.866C180.626 333.725 180.296 335.015 179.896 336.425C177.406 345.395 172.406 359.405 169.146 367.435C169.086 367.465 169.036 367.485 168.976 367.505Z" fill="#595959"/>
</g>
<path d="M163.555 371.045C163.555 371.045 163.578 373.64 163.395 374.561C163.211 375.482 160.243 375.185 159.958 374.661C159.673 374.137 160.028 369.847 160.028 369.847" fill="#ED9C80"/>
<path d="M159.099 375.547C159.018 376.52 159.023 378.358 159.023 378.358L162.067 379.092L162.454 378.575C162.454 378.575 163.304 379.302 164.242 379.55C164.938 379.734 166.394 379.875 167.112 379.827C169.626 379.659 171.361 378.875 171.447 378.507C171.808 376.97 168.466 377.163 167.786 377.106C165.833 376.943 164.518 375.542 164.137 374.544C163.861 373.82 164.023 373.656 163.608 373.753C163.608 373.753 163.238 373.799 162.959 374.209C162.531 374.84 161.788 375.224 161.033 375.029C160.601 374.918 160.175 374.719 159.884 374.371C159.886 374.37 159.18 374.574 159.099 375.547Z" fill="#3A3A3A"/>
<path d="M130.669 318.714C129.473 321.498 128.687 326.53 129.887 328.685C130.94 330.575 131.439 331.744 133.234 332.339C140.903 334.881 148.171 333.834 156.608 332.713C153.034 342.37 158.215 363.055 159.022 371.824C162.267 373.264 164.102 371.732 164.102 371.732C163.734 353.882 167.712 328.95 165.304 324.685C163.84 322.092 146.37 318.669 146.023 318.715" fill="#243A6C"/>
<path d="M144.059 269.14C143.911 268.527 142.958 268.481 142.525 268.94C142.092 269.399 142.044 270.089 142.02 270.72C141.99 271.502 142.376 272.297 142.789 272.962C143.202 273.627 143.816 274.01 144.38 273.467C144.427 274.612 143.507 275.535 142.709 275.584C141.911 275.634 141.114 275.083 140.879 274.318C137.424 275.587 136.333 270.586 136.122 268.086C135.957 266.127 136.608 263.745 137.678 262.095C138.26 261.197 139.137 260.452 140.179 260.208C140.286 258.938 141.214 257.854 142.319 257.221C143.425 256.587 144.421 256.301 145.67 256.05C146.441 255.895 148.539 256.459 148.933 257.246C150.4 256.402 151.706 257.215 152.871 257.352C154.036 257.489 155.333 258.568 154.835 259.63C156.662 259.075 158.647 261.157 158.099 262.987C157.551 264.817 154.904 265.529 153.44 264.301C152.905 265.497 151.54 266.172 150.23 266.179C148.92 266.186 147.667 265.627 146.567 264.915C146.936 265.592 147.052 266.518 146.696 267.305C146.34 268.092 146.045 268.676 144.88 268.436C144.88 268.436 144.983 270.252 144.571 270.081C144.16 269.911 144.059 269.14 144.059 269.14Z" fill="#0B0B3A"/>
<path d="M167.41 314.19C162.757 307.484 160.272 302.2 156.222 295.114L150.574 281.133C150.574 281.133 152.477 281.238 152.848 281.268C154.435 281.394 156.051 281.603 157.552 282.158C159.711 282.957 161.939 284.426 162.99 286.534C163.927 288.415 164.499 290.458 165.293 292.4C166.179 294.569 167.119 296.716 168.066 298.86C169.945 303.115 171.871 307.358 173.454 311.734" fill="#0094BC"/>
<path opacity="0.2" d="M157.004 296.493L157.762 291.956L163.331 304.16L161.487 304.609L157.004 296.493Z" fill="#070707"/>
<path d="M129.67 287.529C128.909 298.456 128.949 310.134 131.408 320.866C131.477 321.167 131.99 321.109 131.957 320.792C131.384 315.254 130.523 309.779 130.223 304.21C129.924 298.655 129.953 293.083 130.239 287.529C130.258 287.161 129.695 287.166 129.67 287.529Z" fill="black"/>
<path d="M180.263 319.949H137.226V321.496H180.263V319.949Z" fill="#AABDE2"/>
<path d="M187.94 321.496H153.489L159.666 301.358C160.007 300.246 161.034 299.487 162.197 299.487H192.367C193.522 299.487 194.347 300.604 194.009 301.708L187.94 321.496Z" fill="#AABDE2"/>
<path d="M188.372 321.496H154.44L160.617 301.358C160.958 300.246 161.985 299.487 163.148 299.487H193.318C194.473 299.487 195.299 300.604 194.96 301.708L189.043 321C188.953 321.295 188.681 321.496 188.372 321.496Z" fill="#E1E8F9"/>
<g opacity="0.2">
<path d="M134.713 291.173C136.487 299.196 137.226 308.454 137.727 314.19C144.382 314.681 146.248 317.235 152.344 319.949C152.344 319.949 157.158 319.149 157.664 320.965C157.956 322.012 152.028 322.846 152.028 322.846C146.378 322.872 132.687 320.226 131.678 319.949C130.669 319.672 126.525 299.249 126.408 288.97C126.391 287.51 126.443 285.926 127.356 284.787C127.836 284.188 128.511 283.777 129.195 283.428C133.171 281.395 136.115 280.84 140.571 280.557" fill="#070707"/>
</g>
<path d="M151.503 321.192C152.173 320.349 153.393 320.227 154.47 320.253C155.267 320.273 156.062 320.336 156.852 320.443C157.212 320.492 157.626 320.576 157.664 320.966C157.702 321.356 155.918 320.965 154.982 321.236C156.815 321.393 158.657 321.443 160.495 321.386C160.709 321.379 160.93 321.372 161.129 321.451C161.328 321.53 161.5 321.72 161.486 321.934C161.476 322.101 161.358 322.241 161.234 322.353C160.72 322.815 160.018 322.998 159.338 323.117C156.527 323.609 153.572 323.524 150.958 322.377" fill="#ED9C80"/>
<path d="M134.891 291.178C135.038 299.755 136.263 307.541 136.096 316.117C142.751 316.608 146.133 317.901 152.228 320.614C152.228 320.614 152.591 321.824 152.027 322.845C151.562 323.015 132.121 322.194 130.522 320.721C129.084 319.396 126.524 299.248 126.406 288.968C126.389 287.508 126.441 285.924 127.354 284.785C127.834 284.186 128.509 283.775 129.193 283.426C133.169 281.393 136.113 280.838 140.569 280.555" fill="#0094BC"/>
<path d="M154.485 268.729C154.485 268.729 156.536 272.331 156.223 272.792C155.909 273.254 153.497 272.792 153.497 272.792" fill="#ED9C80"/>
<path d="M172.736 309.97C172.736 311.955 174.345 313.564 176.33 313.564C178.315 313.564 179.924 311.955 179.924 309.97C179.924 307.985 178.315 306.376 176.33 306.376C174.345 306.376 172.736 307.985 172.736 309.97Z" fill="white"/>
<path opacity="0.2" d="M350.856 275.245C352.896 271.175 354.646 266.925 356.086 262.545C355.516 262.475 355.046 262.375 354.806 262.235C349.366 259.085 349.866 264.685 350.636 266.795C350.896 267.515 351.486 268.425 351.606 268.755C351.726 269.075 351.476 270.515 351.476 271.165C351.486 271.815 352.046 272.155 352.056 272.165C351.716 273.205 351.376 274.155 351.146 274.485C350.976 274.735 350.876 274.995 350.856 275.245ZM352.676 270.095C352.686 270.075 352.696 270.035 352.706 269.995C352.696 270.045 352.676 270.095 352.666 270.145C352.666 270.125 352.676 270.105 352.676 270.095ZM338.866 292.135C336.726 292.665 335.996 292.135 335.996 292.135V292.145C334.786 291.565 333.306 291.075 331.796 290.545C330.676 290.155 329.236 289.575 327.716 288.935L305.656 266.665L303.836 264.835C303.846 264.835 303.846 264.835 303.846 264.835C303.846 264.835 303.926 264.175 303.856 263.215C303.716 261.205 302.906 257.875 299.326 256.775C295.686 255.665 293.066 257.065 290.506 256.095L287.096 253.045C287.056 252.975 287.016 252.915 286.966 252.845C286.966 252.845 286.976 252.885 286.986 252.945C288.226 258.685 288.006 270.885 298.606 270.265L300.296 271.975L311.266 283.045C312.426 285.225 315.576 287.475 315.836 287.655L330.356 302.315C333.916 299.085 337.226 295.555 340.226 291.795C339.816 291.895 339.396 292.005 338.986 292.115C338.946 292.125 338.916 292.125 338.866 292.135Z" fill="black"/>
<path d="M333.641 419.268C333.641 420.527 347.768 421.548 365.196 421.548C382.622 421.548 396.748 420.527 396.748 419.268C396.748 418.009 382.621 416.988 365.196 416.988C347.768 416.988 333.641 418.009 333.641 419.268Z" fill="#AFE1F2"/>
<path d="M359.833 288.841C359.701 289.481 359.366 290.029 358.909 290.435C358.411 290.902 357.741 291.207 357.03 291.288C355.172 291.481 352.298 291.877 349.262 292.283C344.388 292.933 339.077 293.603 336.843 293.481C336.335 293.461 334.284 293.522 332.893 292.933C332.852 292.923 332.812 292.913 332.771 292.892C332.761 292.882 332.761 292.882 332.751 292.872C332.416 292.577 332.406 291.795 332.507 291.014C332.598 290.161 332.822 289.298 332.842 289.074C333.065 286.759 334.985 285.987 335.919 285.753C336.224 285.672 336.427 285.651 336.427 285.651C336.539 285.62 336.651 285.58 336.772 285.539C341.342 284.087 346.51 283.731 349.841 283.173C351.445 282.899 353.111 282.98 354.654 283.417C355.71 283.711 356.715 284.179 357.629 284.808C359.061 285.805 360.188 287.155 359.833 288.841Z" fill="#35AAD3"/>
<path d="M337.442 291.024C337.32 291.359 337.158 291.643 336.975 291.887C336.884 291.999 336.792 292.1 336.701 292.192C335.513 293.339 333.665 293.126 333.319 293.076H333.309C333.177 293.035 333.045 292.985 332.893 292.934C332.852 292.914 332.802 292.893 332.751 292.873C329.827 291.634 323.632 287.095 319.398 283.856C319.368 283.846 319.357 283.836 319.357 283.836C316.829 281.886 315.001 280.424 315.001 280.424L315.377 279.845L316.88 277.641C316.88 277.641 326.293 282.089 330.741 283.642C332.691 284.322 334.6 284.942 335.92 285.754C336.093 285.856 336.245 285.957 336.397 286.069C336.397 286.069 338.396 288.353 337.442 291.024Z" fill="#35AAD3"/>
<path d="M349.262 292.283C344.388 292.933 339.077 293.603 336.843 293.481C336.335 293.461 334.284 293.522 332.893 292.933C332.852 292.923 332.812 292.913 332.771 292.892C332.761 292.882 332.761 292.882 332.751 292.872C329.827 291.633 323.632 287.094 319.398 283.855C320.007 284.221 328.029 288.881 332.508 291.014C333.635 291.552 334.539 291.928 335.036 292.04C335.473 292.131 336.041 292.182 336.701 292.192C336.784 292.193 336.868 292.193 336.953 292.193C341.083 292.176 344.849 289.936 347.043 286.437C348.12 284.718 349.019 283.724 349.019 283.724C349.019 283.724 349.171 288.729 349.262 292.283Z" fill="#2496B5"/>
<path d="M334.941 285.232C334.941 285.232 335.67 285.758 337.811 285.232C339.952 284.706 337.699 287.325 337.699 287.325L334.328 287.113L334.042 286.243L334.941 285.232Z" fill="#35AAD3"/>
<path d="M369.027 309.779C368.124 312.124 367.907 314.682 368.455 317.14C369.539 322.019 368.305 322.346 368.305 322.346C368.305 322.346 361.692 326.543 356.193 328.259C352.252 329.485 348.892 329.278 348.986 324.926L348.989 324.866C348.996 324.602 349.002 324.349 349.009 324.103C349.195 314.322 347.155 313.825 346.653 302.873C346.134 291.637 346.245 284.985 349.844 283.172C353.764 281.198 359.158 279.84 366.807 281.648C372.553 283.002 374.446 284.527 374.399 288.779C374.384 290.192 374.155 291.908 373.781 294.014C372.83 299.363 370.565 305.787 369.027 309.779Z" fill="#35AAD3"/>
<path d="M369.027 309.779C368.124 312.124 367.907 314.682 368.455 317.14C369.539 322.019 368.305 322.346 368.305 322.346C368.305 322.346 361.692 326.543 356.193 328.259L351.054 327.772L348.997 326.156L348.989 324.867C348.996 324.603 349.002 324.35 349.009 324.104C350.183 324.216 352.854 324.353 356.769 323.902C359.794 323.557 362.545 322.694 364.378 321.996C365.714 321.49 366.498 320.109 366.249 318.7C365.916 316.776 365.522 314.019 365.537 311.878C365.553 309.724 366.55 306.085 367.365 303.46C367.988 301.445 368.2 299.337 368.05 297.236C367.795 293.601 368.056 290.142 368.056 290.142L372.13 287.935L374.399 288.781C374.384 290.194 374.155 291.91 373.781 294.016C372.83 299.363 370.565 305.787 369.027 309.779Z" fill="#2496B5"/>
<path d="M350.626 269.749C351.378 270.052 351.064 272.6 351.21 273.419C351.345 274.25 351.94 277.437 353.623 277.92C355.296 278.403 356.339 278.537 356.339 278.818C356.35 278.941 356.305 279.525 356.26 280.109C356.238 280.356 356.215 280.603 356.204 280.805C356.204 280.861 356.193 280.917 356.193 280.962C356.182 281.007 356.182 281.052 356.182 281.097C356.16 281.299 356.205 282.13 356.328 282.287L357.428 283.016C357.574 283.184 357.776 283.297 358 283.308L359.156 283.398C359.246 283.398 359.324 283.398 359.403 283.375L360.054 283.184C360.144 282.791 360.211 282.488 360.222 282.477C360.244 282.443 362.276 281.119 363.455 280.344C363.522 279.132 363.623 277.729 363.713 277.37C363.791 277.067 364.656 275.395 365.554 273.408C365.633 273.24 365.711 273.071 365.779 272.903C365.981 272.454 366.172 271.994 366.363 271.534C366.397 271.478 366.419 271.411 366.442 271.354C367.082 269.726 367.587 268.121 367.598 267.044C367.598 264.103 367.497 261.028 365.679 259.512C363.883 258.008 352.468 252.598 352.086 261.465C352.075 261.521 352.075 261.566 352.064 261.622C351.896 262.228 350.661 266.751 350.089 267.582C349.481 268.469 349.874 269.457 350.626 269.749Z" fill="#ED9C80"/>
<path d="M356.328 282.286L356.44 282.836C356.519 283.229 356.867 283.498 357.259 283.487L359.212 283.409C359.268 283.409 359.335 283.398 359.403 283.375L360.054 283.184C360.144 282.791 360.211 282.488 360.222 282.477C360.244 282.443 362.276 281.119 363.455 280.344C363.522 279.132 363.623 277.729 363.713 277.37C363.791 277.067 364.656 275.395 365.554 273.408C365.633 273.24 365.711 273.071 365.779 272.903C365.981 272.454 366.172 271.994 366.363 271.534C366.408 271.411 366.43 271.287 366.419 271.152L366.34 270.277C366.306 269.895 366.015 269.581 365.633 269.547C364.668 269.435 362.939 269.244 362.849 269.255C362.726 269.266 361.671 271.287 361.671 271.399C361.671 271.489 362.154 272.97 362.288 273.374C362.311 273.441 362.322 273.497 362.333 273.576C362.344 274.025 362.412 275.866 362.355 277.561C362.321 278.785 361.648 279.873 360.615 280.435C360.615 280.435 360.559 280.469 360.469 280.514C359.943 280.782 358.124 281.714 356.328 282.286Z" fill="#F29D77"/>
<path d="M350.143 270.557C347.696 272.779 350.345 277.595 351.131 278.279C351.917 278.964 357.529 280.67 360.751 277.572C361.368 276.999 361.806 276.315 362.132 275.608C362.132 275.608 362.132 275.597 362.143 275.585C362.233 275.383 362.951 273.643 362.895 271.174L363.815 271.399C363.815 271.399 363.983 274.261 363.658 276.035C363.669 276.731 364.511 277.09 365.005 276.608C366.464 275.182 368.675 272.051 369.427 265.765C370.583 256.101 360.896 255.439 358.719 255.663C357.159 255.831 354.465 255.742 353.746 255.326C348.302 252.183 348.807 257.784 349.582 259.894C349.84 260.612 350.424 261.522 350.547 261.847C350.671 262.173 350.412 263.609 350.412 264.26C350.423 264.911 350.996 265.259 350.996 265.259C350.996 265.259 351.546 263.452 351.613 263.194C351.669 263.003 351.894 262.195 351.995 261.836C352.029 261.724 352.118 261.634 352.219 261.589C352.556 261.465 352.892 261.398 352.892 261.398C353.251 261.297 354.654 261.218 355.754 261.162C356.473 261.128 357.112 261.678 357.135 262.408C357.27 265.427 358.819 265.977 359.526 266.067C359.728 266.089 359.885 266.246 359.908 266.449C360.379 270.131 358.965 272.196 358.359 272.297C357.73 272.409 355.811 270.759 355.811 270.759C355.811 270.759 352.579 268.334 350.143 270.557Z" fill="#0B0B3A"/>
<path d="M362.602 268.712C362.602 268.712 362.751 267.06 364.018 267.29C365.523 267.563 366.264 271.071 363.951 271.923C363.445 272.109 362.905 271.717 362.895 271.178C362.88 270.495 362.817 269.544 362.602 268.712Z" fill="#F29D77"/>
<path d="M355.15 285.716C355.15 285.716 349.19 305.254 350.382 314.614L352.578 318.609L354.979 314.252C354.979 314.252 353.027 295.54 356.764 286.046L355.15 285.716Z" fill="#16405A"/>
<path d="M354.737 284.053L354.768 284.309C354.827 284.794 354.956 285.267 355.15 285.716L356.763 286.046L358.169 284.999L356.557 283.125L356.307 283.189C355.729 283.336 355.198 283.626 354.761 284.032L354.737 284.053Z" fill="#103649"/>
<path d="M363.502 279.573C363.502 279.573 363.905 280.056 364.676 281.214C364.676 281.214 363.553 281.635 362.632 282.198C361.791 282.712 357.747 285.568 357.747 285.568L356.558 283.126C356.558 283.126 361.216 280.213 363.502 279.573Z" fill="#2496B5"/>
<path d="M356.557 283.125C356.557 283.125 355.142 283.609 354.707 284.666C354.707 284.666 354.023 282.57 354.599 281.418C354.599 281.418 355.013 280.329 356.281 279.815L356.557 283.125Z" fill="#2496B5"/>
<path d="M350.259 412.725C350.259 412.725 349.699 414.16 349.769 415.104C349.839 416.049 352.848 416.119 353.198 415.629C353.548 415.139 353.723 410.8 353.723 410.8" fill="#FEAF84"/>
<path d="M353.994 416.463C353.994 417.448 353.72 419.052 353.72 419.052H350.252L350.081 418.473C350.081 418.473 348.957 419.052 348.073 419.052H345.146C343.003 419.052 341.787 418.779 341.733 418.402C341.507 416.826 344.066 416.898 344.733 416.898C346.647 416.898 348.719 416.002 349.17 415.031C349.498 414.326 349.353 414.148 349.749 414.28C349.749 414.28 350.105 414.357 350.343 414.793C350.708 415.463 351.4 415.912 352.151 415.779C352.581 415.703 353.012 415.539 353.323 415.214C353.323 415.214 353.994 415.478 353.994 416.463Z" fill="#3A3A3A"/>
<path d="M383.997 409.455C383.997 409.455 384.639 411.994 385.054 412.845C385.469 413.697 388.29 412.647 388.434 412.062C388.578 411.477 387.133 407.382 387.133 407.382" fill="#FEAF84"/>
<path d="M389.48 412.542C389.845 413.457 390.385 415.23 390.385 415.23L387.757 416.798L387.241 416.409C387.241 416.409 386.661 417.35 385.858 417.854C385.262 418.228 383.942 418.776 383.256 418.932C380.855 419.48 379 419.215 378.81 418.885C378.016 417.505 381.199 416.747 381.818 416.5C383.596 415.791 384.41 414.069 384.47 412.999C384.513 412.223 384.313 412.111 384.729 412.087C384.729 412.087 385.089 412.026 385.471 412.344C386.058 412.831 386.867 412.991 387.516 412.59C387.887 412.361 388.227 412.049 388.395 411.631C388.395 411.631 389.115 411.627 389.48 412.542Z" fill="#3A3A3A"/>
<path d="M371.812 341.821C371.812 341.821 376.524 330.538 368.305 322.346C368.305 322.346 361.292 325.485 355.676 325.864C351.254 326.162 349.008 325.704 349.008 325.704C349.008 325.704 347.292 334.569 347.838 347.444L371.812 341.821Z" fill="#243A6C"/>
<path d="M354.136 413.814C353.994 413.824 353.852 413.824 353.72 413.824C350.796 413.854 349.13 413.509 349.13 413.509V412.666C349.293 399.749 347.729 378.638 347.424 371.966C347.404 371.499 347.414 371.073 347.464 370.687C347.972 365.803 353.019 366.442 355.141 370.931C355.639 371.977 356.035 373.135 356.339 374.384C356.715 375.887 356.969 377.522 357.121 379.258C358.107 390.407 354.999 405.487 354.136 413.814Z" fill="#243A6C"/>
<path d="M362.889 347.027C362.869 347.159 362.838 347.301 362.808 347.444C361.691 353.324 358.066 369.215 356.34 374.374V374.384C356.086 375.105 355.223 375.714 354.116 376.009C351.577 376.7 347.79 375.755 347.465 370.688C347.425 370.129 347.435 369.52 347.485 368.86C347.7 366.219 347.886 354.942 347.839 347.445C347.813 343.19 348.841 340.613 348.907 339.828C349.08 337.635 349.476 334.436 350.633 334.03C356.411 332.029 364.402 338.802 362.889 347.027Z" fill="#243A6C"/>
<path d="M357.122 379.258C358.107 390.408 355 405.487 354.136 413.814C353.994 413.824 353.852 413.824 353.72 413.824C353.72 413.824 354.441 400.633 355.619 391.494C356.533 384.437 354.908 378.395 354.116 376.008C353.882 375.297 353.72 374.911 353.72 374.911L355.142 370.93C356.726 365.751 356.767 353.667 356.767 353.667C352.908 345.157 352.37 334.444 352.37 334.444L355.67 334.901L361.58 341.989L362.809 347.442C361.692 353.322 358.067 369.213 356.341 374.372V374.382C356.715 375.886 356.969 377.521 357.122 379.258Z" fill="#1C3059"/>
<path d="M357.497 370.421C357.497 370.421 356.506 374.891 357.122 379.258C357.738 383.624 355.03 375.416 355.03 375.416L356.469 372.454L357.497 370.421Z" fill="#1C3059"/>
<path d="M374.4 370.601C370.488 366.921 365.047 368.663 367.589 374.374C370.307 380.48 378.711 397.432 383.267 409.515L383.581 410.301C383.581 410.301 385.412 409.985 388.35 408.756C386.182 400.912 384.605 387.394 380.099 377.975C378.65 374.947 376.428 372.509 374.4 370.601Z" fill="#243A6C"/>
<path d="M352.365 334.448C351.605 325.364 362.928 331.397 368.358 334.397C370.644 335.659 371.48 338.185 371.787 340.563C372.095 342.941 375.029 367.421 375.618 371.887C376.947 381.956 368.152 376.45 367.321 373.66C365.224 366.616 352.779 339.398 352.365 334.448Z" fill="#243A6C"/>
<path d="M374.84 365.646C374.84 365.646 375.199 370.464 379.246 376.405C379.246 376.405 372.623 373.347 372.302 372.897C371.981 372.447 370.824 367.781 370.952 367.286C371.08 366.792 374.84 365.646 374.84 365.646Z" fill="#243A6C"/>
<path d="M363.814 325.927L363.825 325.938L364.341 326.387C364.341 326.387 368.348 322.907 371.469 319.967C374.354 317.228 377.295 314.175 379.124 310.516C379.214 310.348 379.304 310.157 379.382 309.988C379.382 309.977 379.382 309.977 379.382 309.966C379.404 309.899 379.438 309.786 379.461 309.64C379.472 309.584 379.495 309.528 379.495 309.46C379.517 309.404 379.517 309.337 379.529 309.269C379.551 309.089 379.563 308.91 379.574 308.73C379.585 308.64 379.585 308.55 379.585 308.461C379.608 307.316 379.405 306.194 379.372 305.834C379.035 302.22 375.466 290.906 374.254 286.191C374.074 285.495 373.682 284.878 373.143 284.451C372.671 284.058 372.088 283.811 371.448 283.777C371.437 283.777 371.437 283.777 371.426 283.766C371.336 283.766 371.246 283.755 371.157 283.766C371.909 284.978 372.975 287.425 374.176 292.33C375.77 298.874 376.892 302.825 377.341 305.362C377.566 306.529 377.633 307.405 377.543 308.09C377.487 308.516 377.072 309.358 376.398 310.469C373.647 315.028 366.665 323.974 363.814 325.927Z" fill="#2496B5"/>
<path d="M297.561 263.358C301.691 260.508 302.785 257.928 302.785 257.928C302.785 257.928 302.864 257.269 302.795 256.314C302.652 254.299 301.851 250.965 298.265 249.866C292.975 248.254 289.827 251.951 285.908 245.944C285.908 245.944 285.917 245.977 285.931 246.039C287.165 251.781 286.943 263.992 297.561 263.358Z" fill="white"/>
<path d="M297.561 263.358C301.691 260.508 302.785 257.928 302.785 257.928C302.785 257.928 302.864 257.269 302.795 256.314C291.481 268.235 286.302 247.605 285.931 246.039C287.165 251.781 286.943 263.992 297.561 263.358Z" fill="#FFE7C5"/>
<path d="M285.931 246.039C286.742 247.779 288.024 249.249 289.553 250.345C290.319 250.887 291.151 251.355 292.036 251.602C292.922 251.868 293.862 251.943 294.814 252.011C295.769 252.075 296.741 252.155 297.708 252.46C298.656 252.792 299.532 253.348 300.177 254.116C300.829 254.876 301.25 255.816 301.404 256.788C301.549 257.761 301.443 258.755 301.122 259.659C301.518 257.793 301.117 255.758 299.818 254.437C299.203 253.76 298.402 253.263 297.54 252.983C296.671 252.728 295.715 252.673 294.768 252.574C293.817 252.485 292.834 252.388 291.888 252.082C290.94 251.762 290.098 251.241 289.331 250.646C287.789 249.458 286.578 247.846 285.931 246.039Z" fill="#FFE7C5"/>
<path d="M285.931 246.039C286.48 247.745 287.285 249.357 288.302 250.801C289.338 252.227 290.595 253.503 292.123 254.357C292.883 254.803 293.686 255.074 294.544 255.421C295.383 255.77 296.206 256.182 296.963 256.708C297.711 257.243 298.374 257.922 298.837 258.723C299.293 259.529 299.5 260.45 299.498 261.346C299.268 259.544 298.185 258.011 296.682 257.119C295.955 256.638 295.157 256.259 294.335 255.939C293.524 255.642 292.615 255.337 291.839 254.847C290.256 253.906 288.917 252.579 287.955 251.035C286.979 249.503 286.275 247.804 285.931 246.039Z" fill="#FFE7C5"/>
<path d="M379.604 344.642C379.33 344.642 379.059 344.598 378.791 344.51C375.648 343.486 374.454 336.598 374.328 335.817L374.185 334.926L375.057 335.154C375.829 335.356 382.626 337.214 383.434 340.318C383.696 341.327 383.332 342.314 382.354 343.253C381.423 344.175 380.5 344.642 379.604 344.642ZM375.665 336.553C376.152 338.851 377.345 342.802 379.156 343.392C379.848 343.617 380.648 343.287 381.533 342.409C382.197 341.772 382.444 341.187 382.296 340.614C381.828 338.817 377.935 337.26 375.665 336.553Z" fill="#0B0B3A"/>
<path d="M304.596 259.767L299.241 265.072L372.565 339.084L377.92 333.779L304.596 259.767Z" fill="#FFC25B"/>
<path d="M302.746 257.9L297.391 263.205L299.24 265.072L304.595 259.767L302.746 257.9Z" fill="#FFA92C"/>
<path d="M304.595 259.767L299.24 265.072L372.564 339.084L377.919 333.779L304.595 259.767Z" fill="#FF8736"/>
<path d="M302.746 257.9L297.391 263.205L299.24 265.072L304.595 259.767L302.746 257.9Z" fill="#0B0B3A"/>
<path d="M377.916 333.776L375.885 335.785L302.578 261.782L300.726 259.919L297.392 263.207L302.746 257.898L304.598 259.762L377.916 333.776Z" fill="#FFC25B"/>
<path d="M376.885 332.734L371.53 338.039L372.565 339.084L377.92 333.779L376.885 332.734Z" fill="#0B0B3A"/>
<path d="M365.677 325.28L362.519 322.654C362.519 322.654 361.589 324.194 360.906 324.406C360.747 324.455 360.239 324.308 360.072 324.308C359.172 324.305 358.626 324.593 357.521 325.099C356.777 325.44 355.797 325.75 355.758 326.048C355.718 326.346 356.235 326.815 356.754 326.777C356.817 326.772 356.906 326.753 357.01 326.723C357.015 326.807 357.025 326.9 357.069 327.037C357.283 327.699 360.384 332.027 363.465 327.32C364.163 326.252 365.677 325.28 365.677 325.28Z" fill="#FFBC9F"/>
<path d="M367.271 294.488C368.315 297.698 369.426 302.772 371.525 307.071C371.57 307.172 371.615 307.262 371.66 307.34C371.671 307.362 371.683 307.374 371.694 307.396C371.694 307.396 371.739 307.587 371.851 307.867C372.233 308.754 373.265 310.561 375.6 310.437C375.712 310.437 376.015 310.448 376.397 310.471C376.857 310.494 377.43 310.505 377.957 310.471C378.608 310.426 379.181 310.303 379.371 309.977C379.382 309.977 379.382 309.966 379.382 309.966C379.404 309.899 379.438 309.786 379.461 309.64C379.472 309.584 379.495 309.528 379.495 309.46C379.517 309.404 379.517 309.337 379.529 309.269C379.551 309.089 379.563 308.91 379.574 308.73C379.585 308.64 379.585 308.55 379.585 308.461C379.608 307.316 379.405 306.194 379.372 305.834C379.035 302.22 375.466 290.906 374.254 286.191C374.074 285.495 373.682 284.878 373.143 284.451C372.671 284.058 372.088 283.811 371.448 283.777C371.437 283.777 371.437 283.777 371.426 283.766C371.336 283.766 371.246 283.755 371.157 283.766C369.575 283.811 368.486 285.057 367.756 286.55C367.273 287.538 366.948 288.604 366.824 289.682C366.609 291.277 366.778 292.939 367.271 294.488Z" fill="#35AAD3"/>
<path d="M361.693 323.784L363.815 325.927L363.826 325.938L364.342 326.387C364.342 326.387 368.349 322.907 371.47 319.967C374.355 317.228 377.296 314.175 379.125 310.516C379.215 310.348 379.305 310.157 379.383 309.988C379.383 309.977 379.383 309.977 379.383 309.966C379.405 309.899 379.439 309.786 379.462 309.64C379.473 309.584 379.496 309.528 379.496 309.46C379.518 309.404 379.518 309.337 379.53 309.269C379.552 309.089 379.564 308.91 379.575 308.73C379.586 308.64 379.586 308.55 379.586 308.461C379.575 307.776 379.406 307.002 378.856 306.351C378.811 306.295 378.755 306.239 378.71 306.183C378.497 305.97 378.239 305.779 377.924 305.61C377.733 305.509 377.531 305.419 377.34 305.363C375.028 304.555 372.873 305.969 372.873 305.969C372.749 306.092 372.615 306.227 372.491 306.373C372.222 306.665 371.941 306.99 371.66 307.338C370.885 308.326 370.111 309.527 369.505 310.941C367.597 315.354 361.693 323.784 361.693 323.784Z" fill="#35AAD3"/>
<path d="M314.802 280.77C314.802 280.77 309.99 277.42 309.775 274.86C309.537 272.032 311.525 270.673 312.834 272.233C314.892 274.687 314.338 279.119 314.338 279.119L314.802 280.77Z" fill="#FFD4C5"/>
<path d="M422.801 244.095H410.926V257.899H422.801V244.095Z" fill="#FFDC8F"/>
<path d="M417.713 245.517C417.713 245.974 417.342 246.345 416.885 246.345C416.428 246.345 416.057 245.974 416.057 245.517C416.057 245.06 416.428 244.689 416.885 244.689C417.342 244.688 417.713 245.059 417.713 245.517Z" fill="#FF8736"/>
<path d="M439.938 239.443H428.063V253.247H439.938V239.443Z" fill="#FFDC8F"/>
<path d="M434.849 240.865C434.849 241.322 434.478 241.693 434.021 241.693C433.564 241.693 433.193 241.322 433.193 240.865C433.193 240.408 433.564 240.037 434.021 240.037C434.479 240.037 434.849 240.407 434.849 240.865Z" fill="#FF8736"/>
<path d="M286.966 242.095C286.966 242.095 282.297 234.498 285.931 233.845C289.64 233.178 287.626 240.97 286.966 242.095Z" fill="white"/>
<path d="M288.106 242.095C288.106 242.095 289.704 236.806 291.869 239.032C294.056 241.282 288.106 242.095 288.106 242.095Z" fill="white"/>
<path opacity="0.35" d="M417.713 164.667C417.713 164.671 416.727 202.334 448.392 205.834C454.547 206.43 465.849 206.145 465.06 197.148C464.644 192.412 460.728 186.916 456.225 185.25C452.338 183.812 448.257 182.894 444.427 181.296C442.481 180.484 440.599 179.282 439.539 177.458C437.55 174.035 438.438 169.502 436.992 165.799C435.557 162.123 432.995 158.877 429.774 156.601C425.128 153.317 419.29 153.306 417.967 159.778C417.633 161.415 417.756 163.016 417.713 164.667Z" fill="#C3ECFE"/>
<path opacity="0.35" d="M161.257 130.59C160.437 131.262 159.528 131.84 158.649 132.439C149.167 138.901 140.715 149.643 140.254 161.517C139.664 176.715 116.98 162.166 123.02 140.459C129.06 118.751 148.269 118.751 153.512 119.459C156.606 119.877 162.481 121.309 163.683 124.739C164.232 126.304 163.596 128.082 162.53 129.353C162.147 129.807 161.716 130.213 161.257 130.59Z" fill="#C3ECFE"/>
</g>
<defs>
<clipPath id="clip0_116_332">
<rect width="500" height="500" fill="white"/>
</clipPath>
</defs>
</svg>
