<svg width="180" height="200" viewBox="0 0 255 296" fill="none" xmlns="http://www.w3.org/2000/svg">
<path d="M68.2493 90.1959C66.4298 90.8887 64.5718 91.476 62.6846 91.9548C60.1918 92.5621 58.7844 92.8435 56.3783 91.9102C56.2938 91.8774 56.2132 91.845 56.1371 91.8132C51.5766 89.8751 47.6782 86.6538 44.9163 82.5413C42.1544 78.4287 40.6483 73.6024 40.5812 68.6498C40.5692 68.4799 40.5692 68.3013 40.5692 68.127C40.5668 67.2876 40.607 66.4487 40.6894 65.6134C40.7949 64.4755 40.977 63.3461 41.2345 62.2327L41.2105 62.2284C39.2625 60.2375 38.513 57.5103 38.7615 54.7701C38.9317 52.9123 39.5216 51.1174 40.4867 49.5207C41.4518 47.9239 42.7669 46.5668 44.3329 45.5518C46.7871 44.0095 49.5544 43.0333 52.4335 42.694C53.2066 42.6049 53.9841 42.5598 54.7623 42.5589H62.0732C63.5832 42.2056 65.1172 41.9639 66.6627 41.8357H66.6747C81.3888 40.6159 92.9926 50.3657 91.9104 62.2284C91.9024 62.2414 91.8904 62.2545 91.8823 62.2676C91.5697 62.7773 91.2931 63.2608 91.0486 63.7226C90.8121 64.1539 90.6117 64.5678 90.4394 64.9599C89.0966 67.992 95.4777 115.035 93.189 115.749C91.8863 116.155 86.6356 81.1486 87.5775 87.8052C88.764 96.1565 75.028 87.6914 68.2493 90.1959Z" fill="#2F2E41"/>
<path d="M90.4153 175.236L110.812 218.667L32.3505 210.725L48.729 169.031L90.4153 175.236Z" fill="#FFB6B6"/>
<path d="M131.36 262.314C117.716 266.853 103.338 268.778 88.9794 267.987L82.7357 257.867C82.7357 257.867 82.4743 261.636 82.0843 267.398C75.2494 266.606 68.5037 265.177 61.9353 263.128C49.479 259.235 37.8026 253.203 25.9667 247.64C23.5693 233.357 22.6698 211.331 35.9237 198.509L107.263 211.575C107.263 211.575 118.709 220.132 115.647 223.196C112.585 226.257 112.111 225.783 114.122 227.794C116.134 229.805 120.481 232.493 120.526 234.251C120.543 234.938 125.422 247.388 131.36 262.314Z" fill="#2F2E41"/>
<path d="M77.9578 91.3116L60.7225 92.5135L49.5827 103.273L45.6813 103.969C42.1744 104.594 39.0189 106.483 36.8131 109.279C34.6073 112.074 33.5046 115.582 33.7141 119.136C34.5166 132.725 36.3134 153.03 40.0689 159.618C45.8921 169.833 50.702 166.628 45.8921 169.833C41.0822 173.038 37.8531 170.519 40.0689 175.584C42.2847 180.649 37.074 187.146 37.074 187.146L34.9998 189.219L37.1998 190.121L107.301 199.238C107.301 199.238 101.24 171.998 105.03 165.307C108.821 158.615 118.012 138.389 109.809 130.474L101.789 102.264L87.9925 98.1971L77.9578 91.3116Z" fill="url(#paint0_linear_46_480)"/>
<path d="M182.291 203.11C181.138 203.074 180.006 202.787 178.974 202.27C177.943 201.754 177.035 201.019 176.316 200.117C175.596 199.216 175.081 198.169 174.806 197.049C174.53 195.928 174.502 194.762 174.722 193.63L141.84 171.371L145.763 160.767L184.625 187.489C186.504 188.001 188.13 189.185 189.195 190.815C190.259 192.446 190.688 194.41 190.4 196.336C190.113 198.261 189.128 200.014 187.634 201.263C186.139 202.511 184.238 203.169 182.291 203.11Z" fill="#FFB6B6"/>
<path d="M89.4131 100.932L84.6348 102.823L110.124 152.58L162.892 188.53L170.498 175.681L130.331 141.004L114.25 110.178C111.987 105.84 108.195 102.494 103.609 100.787C99.0215 99.0788 93.9641 99.1305 89.4131 100.932Z" fill="url(#paint1_linear_46_480)"/>
<path d="M68.4433 86.9357C78.0015 86.9357 85.75 79.1911 85.75 69.6377C85.75 60.0844 78.0015 52.3398 68.4433 52.3398C58.8851 52.3398 51.1366 60.0844 51.1366 69.6377C51.1366 79.1911 58.8851 86.9357 68.4433 86.9357Z" fill="#FFB6B6"/>
<path d="M83.4932 62.323C83.2046 62.4753 82.92 62.6155 82.6314 62.7557C82.3308 62.8999 82.0302 63.0441 81.7256 63.1803C75.9337 65.8044 71.216 66.0969 68.3541 62.323C68.2758 60.3376 67.8287 58.3841 67.0354 56.5622C67.1756 58.5982 66.6387 60.6235 65.5083 62.323H59.7445C53.8083 66.2611 50.7621 69.8787 54.8825 82.8066C55.1511 83.6559 56.9909 113.83 57.5159 116.15C48.5295 112.705 40.7776 76.1243 40.5812 66.4854C40.5692 66.3292 40.5692 66.165 40.5692 66.0047C40.5669 65.2326 40.607 64.4609 40.6895 63.6931C40.7952 62.645 40.9774 61.606 41.2346 60.5843L41.2105 60.5803C40.2962 59.7067 39.5987 58.6316 39.1735 57.4409C38.7483 56.2501 38.6072 54.9766 38.7615 53.7218C40.269 51.7489 42.1346 50.0773 44.2608 48.7942C46.1941 47.8584 48.2094 47.1021 50.2811 46.5347C50.3332 46.5227 50.3773 46.5106 50.4294 46.4986C51.0627 46.3263 51.712 46.1701 52.3614 46.0339C53.6995 45.7534 55.0524 45.5488 56.4137 45.421C56.5139 45.417 56.6101 45.4089 56.6982 45.4089C57.2427 45.4093 57.7771 45.556 58.2454 45.8336C58.2494 45.8336 58.2494 45.8376 58.2574 45.8376C58.7074 46.1063 59.0806 46.4863 59.341 46.941C59.6015 47.3957 59.7404 47.9097 59.7445 48.4336H66.1656C66.4021 48.4336 66.6386 48.4416 66.8751 48.4536C75.8174 48.8102 83.0042 52.6321 83.4651 61.4176C83.4851 61.7221 83.4932 62.0186 83.4932 62.323Z" fill="#2F2E41"/>
<path d="M45.5301 63.0184C51.8271 63.0184 56.9319 57.9162 56.9319 51.6224C56.9319 45.3286 51.8271 40.2264 45.5301 40.2264C39.2331 40.2264 34.1284 45.3286 34.1284 51.6224C34.1284 57.9162 39.2331 63.0184 45.5301 63.0184Z" fill="#2F2E41"/>
<path d="M61.1835 46.3515C59.8881 52.5107 53.4974 56.1945 47.3835 54.6876C44.4475 53.964 41.9194 52.1043 40.3553 49.5176C38.7912 46.9309 38.3192 43.8291 39.0432 40.8946C40.5508 34.7839 47.9708 36.5455 52.8432 32.5586C59.7358 26.9184 62.9303 38.0453 61.1835 46.3515Z" fill="#2F2E41"/>
<path d="M35.8504 217.8C45.5679 178.192 64.8222 144.149 96.7099 117.476C97.944 115.447 99.9331 113.99 102.241 113.425C104.548 112.86 106.986 113.232 109.019 114.461L184.824 160.4C186.854 161.634 188.312 163.622 188.877 165.928C189.443 168.235 189.07 170.671 187.841 172.703C175.669 213.345 157.44 248.611 126.981 273.027C125.747 275.056 123.758 276.513 121.451 277.078C119.143 277.643 116.705 277.271 114.672 276.042L38.8672 230.103C36.837 228.869 35.3792 226.881 34.8137 224.575C34.2481 222.268 34.621 219.832 35.8504 217.8Z" fill="#F2F2F2"/>
<path opacity="0.2" d="M49.3241 231.148C47.294 229.915 45.8362 227.927 45.2707 225.621C44.7051 223.314 45.078 220.878 46.3075 218.846C56.025 179.238 75.2793 145.195 107.167 118.522C107.984 117.194 109.137 116.105 110.511 115.365L109.019 114.461C106.986 113.232 104.548 112.86 102.241 113.425C99.9331 113.99 97.9441 115.447 96.71 117.476C64.8223 144.149 45.5681 178.192 35.8506 217.8C34.6211 219.832 34.2482 222.268 34.8137 224.575C35.3793 226.881 36.837 228.869 38.8672 230.103L114.672 276.042C116.021 276.853 117.561 277.294 119.136 277.319C120.71 277.343 122.263 276.952 123.637 276.184L49.3241 231.148Z" fill="black"/>
<path d="M138.224 209.02L87.3402 178.376C86.5318 177.887 85.9504 177.098 85.7236 176.182C85.4968 175.266 85.6432 174.297 86.1306 173.488C86.6181 172.679 87.4068 172.097 88.3234 171.869C89.24 171.641 90.2097 171.786 91.0193 172.273L141.903 202.917C142.71 203.406 143.289 204.195 143.515 205.11C143.74 206.026 143.594 206.993 143.107 207.801C142.62 208.608 141.833 209.19 140.917 209.419C140.002 209.647 139.034 209.504 138.224 209.02Z" fill="white"/>
<path d="M108.623 168.383L97.4287 161.641C96.6174 161.156 96.0322 160.369 95.8017 159.452C95.5712 158.536 95.7144 157.566 96.1998 156.755C96.6851 155.944 97.4728 155.359 98.3896 155.129C99.3064 154.898 100.277 155.042 101.089 155.527L101.108 155.538L112.302 162.28C113.109 162.769 113.689 163.558 113.914 164.473C114.14 165.389 113.993 166.357 113.507 167.165C113.02 167.972 112.232 168.554 111.317 168.782C110.401 169.011 109.433 168.867 108.623 168.383Z" fill="white"/>
<path d="M130.137 222.435L79.253 191.791C78.4437 191.304 77.861 190.515 77.6329 189.599C77.4048 188.683 77.55 187.713 78.0366 186.904C78.5232 186.095 79.3114 185.511 80.228 185.282C81.1446 185.054 82.1146 185.198 82.9248 185.683L82.9321 185.688L133.816 216.332C134.622 216.821 135.202 217.61 135.428 218.525C135.653 219.441 135.506 220.408 135.02 221.216C134.533 222.023 133.745 222.605 132.83 222.834C131.915 223.062 130.946 222.919 130.137 222.435Z" fill="white"/>
<path d="M144.686 151.24C152.894 151.24 159.548 144.589 159.548 136.385C159.548 128.181 152.894 121.531 144.686 121.531C136.478 121.531 129.824 128.181 129.824 136.385C129.824 144.589 136.478 151.24 144.686 151.24Z" fill="#3F3D56"/>
<path d="M119.068 295.557C136.611 295.557 150.833 281.342 150.833 263.808C150.833 246.273 136.611 232.058 119.068 232.058C101.524 232.058 87.3019 246.273 87.3019 263.808C87.3019 281.342 101.524 295.557 119.068 295.557Z" fill="white"/>
<path d="M119.068 296C112.697 296 106.47 294.112 101.173 290.575C95.8766 287.037 91.7484 282.01 89.3106 276.127C86.8728 270.245 86.2349 263.772 87.4777 257.527C88.7204 251.283 91.788 245.546 96.2925 241.044C100.797 236.542 106.536 233.476 112.784 232.234C119.032 230.992 125.508 231.629 131.393 234.066C137.279 236.502 142.309 240.628 145.848 245.922C149.387 251.216 151.276 257.44 151.276 263.807C151.267 272.342 147.87 280.525 141.832 286.56C135.794 292.596 127.607 295.99 119.068 296ZM119.068 232.501C112.873 232.501 106.817 234.337 101.666 237.777C96.5147 241.217 92.5 246.107 90.1293 251.827C87.7586 257.548 87.1383 263.842 88.3469 269.915C89.5555 275.988 92.5387 281.567 96.9193 285.945C101.3 290.323 106.881 293.305 112.957 294.513C119.033 295.721 125.331 295.101 131.054 292.731C136.778 290.362 141.67 286.349 145.111 281.201C148.553 276.052 150.39 269.999 150.39 263.807C150.381 255.507 147.078 247.55 141.206 241.681C135.333 235.812 127.372 232.51 119.068 232.501Z" fill="#3F3D56"/>
<path d="M114.734 280.332C114.186 280.332 113.644 280.204 113.154 279.959C112.663 279.713 112.237 279.357 111.908 278.919L103.241 267.369C102.963 266.998 102.76 266.576 102.644 266.127C102.529 265.677 102.503 265.209 102.568 264.75C102.634 264.291 102.789 263.849 103.026 263.449C103.262 263.05 103.575 262.701 103.946 262.423C104.318 262.144 104.741 261.942 105.19 261.827C105.64 261.712 106.108 261.686 106.568 261.752C107.027 261.818 107.469 261.974 107.869 262.21C108.268 262.447 108.617 262.76 108.895 263.132L114.565 270.687L129.127 248.855C129.384 248.47 129.715 248.138 130.1 247.88C130.486 247.622 130.919 247.442 131.374 247.351C131.829 247.26 132.297 247.26 132.752 247.35C133.208 247.44 133.641 247.619 134.027 247.876C134.413 248.133 134.744 248.464 135.003 248.849C135.261 249.235 135.441 249.667 135.532 250.122C135.623 250.577 135.623 251.045 135.533 251.5C135.443 251.955 135.264 252.388 135.007 252.774L117.674 278.759C117.361 279.229 116.939 279.617 116.445 279.89C115.95 280.164 115.397 280.315 114.832 280.33C114.8 280.331 114.767 280.332 114.734 280.332Z" fill="url(#paint2_linear_46_480)"/>
<path d="M221.655 102.916C222.917 102.808 223.88 102.009 223.805 101.131C223.73 100.253 222.645 99.6294 221.383 99.7373C220.121 99.8452 219.159 100.644 219.234 101.522C219.309 102.399 220.393 103.023 221.655 102.916Z" fill="white"/>
<path d="M235.858 98.1002C237.12 97.9923 238.082 97.1934 238.007 96.3157C237.932 95.438 236.848 94.814 235.586 94.9219C234.323 95.0297 233.361 95.8287 233.436 96.7063C233.511 97.584 234.595 98.208 235.858 98.1002Z" fill="#3F3D56"/>
<path d="M214.923 92.0855C216.185 91.9776 217.148 91.1787 217.073 90.301C216.997 89.4234 215.913 88.7993 214.651 88.9072C213.389 89.0151 212.426 89.814 212.501 90.6917C212.576 91.5694 213.661 92.1934 214.923 92.0855Z" fill="#FF6584"/>
<path d="M208.965 88.5958C209.509 88.4731 209.806 87.7409 209.63 86.9603C209.453 86.1797 208.87 85.6464 208.326 85.769C207.783 85.8917 207.486 86.624 207.662 87.4046C207.839 88.1852 208.422 88.7185 208.965 88.5958Z" fill="#E6E6E6"/>
<path d="M204.724 80.1238C205.267 80.0011 205.565 79.2688 205.388 78.4882C205.212 77.7076 204.628 77.1743 204.085 77.297C203.542 77.4197 203.244 78.152 203.421 78.9325C203.597 79.7131 204.181 80.2465 204.724 80.1238Z" fill="#3F3D56"/>
<path d="M225.074 92.0213C225.617 91.8986 225.915 91.1664 225.738 90.3858C225.562 89.6052 224.978 89.0719 224.435 89.1946C223.892 89.3173 223.594 90.0495 223.771 90.8301C223.947 91.6107 224.531 92.144 225.074 92.0213Z" fill="#E6E6E6"/>
<path d="M218.871 97.1685C219.414 97.0459 219.711 96.3136 219.535 95.533C219.359 94.7524 218.775 94.2191 218.232 94.3418C217.689 94.4645 217.391 95.1968 217.568 95.9773C217.744 96.7579 218.328 97.2912 218.871 97.1685Z" fill="#FF6584"/>
<path d="M230.164 101.361C230.707 101.238 231.005 100.506 230.828 99.7252C230.652 98.9446 230.068 98.4113 229.525 98.5339C228.982 98.6566 228.684 99.3889 228.861 100.169C229.037 100.95 229.621 101.483 230.164 101.361Z" fill="#3F3D56"/>
<path d="M163.018 37.2894C163.234 36.4355 162.414 35.4911 161.186 35.1801C159.958 34.869 158.787 35.309 158.571 36.1629C158.354 37.0168 159.174 37.9611 160.402 38.2722C161.63 38.5833 162.801 38.1432 163.018 37.2894Z" fill="white"/>
<path d="M148.021 37.1927C148.237 36.3388 147.417 35.3944 146.189 35.0833C144.961 34.7723 143.79 35.2123 143.574 36.0662C143.357 36.9201 144.177 37.8645 145.405 38.1755C146.633 38.4866 147.804 38.0465 148.021 37.1927Z" fill="#3F3D56"/>
<path d="M165.832 49.7253C166.049 48.8714 165.229 47.927 164.001 47.616C162.773 47.3049 161.602 47.7449 161.385 48.5988C161.169 49.4527 161.989 50.3971 163.217 50.7081C164.445 51.0192 165.616 50.5792 165.832 49.7253Z" fill="#FF6584"/>
<path d="M169.328 54.4146C169.417 53.6193 169.04 52.9244 168.487 52.8626C167.933 52.8008 167.413 53.3954 167.324 54.1907C167.235 54.986 167.611 55.6809 168.165 55.7427C168.718 55.8045 169.239 55.2099 169.328 54.4146Z" fill="#E6E6E6"/>
<path d="M170.561 63.8076C170.65 63.0123 170.274 62.3175 169.72 62.2557C169.167 62.1938 168.646 62.7884 168.557 63.5838C168.468 64.3791 168.845 65.0739 169.398 65.1357C169.952 65.1976 170.472 64.6029 170.561 63.8076Z" fill="#3F3D56"/>
<path d="M155.229 45.9072C155.318 45.1119 154.941 44.4171 154.388 44.3553C153.834 44.2934 153.313 44.8881 153.224 45.6834C153.136 46.4787 153.512 47.1735 154.066 47.2353C154.619 47.2972 155.14 46.7026 155.229 45.9072Z" fill="#E6E6E6"/>
<path d="M162.776 43.0734C162.865 42.2781 162.489 41.5832 161.935 41.5214C161.381 41.4596 160.861 42.0542 160.772 42.8495C160.683 43.6448 161.059 44.3397 161.613 44.4015C162.167 44.4633 162.687 43.8687 162.776 43.0734Z" fill="#FF6584"/>
<path d="M153.478 35.4171C153.567 34.6218 153.191 33.927 152.637 33.8652C152.084 33.8033 151.563 34.3979 151.474 35.1933C151.385 35.9886 151.762 36.6834 152.315 36.7452C152.869 36.8071 153.39 36.2124 153.478 35.4171Z" fill="#3F3D56"/>
<path d="M40.5772 218.22C39.4445 217.756 38.4262 217.052 37.5926 216.156C36.7591 215.26 36.1301 214.194 35.7494 213.031C35.3686 211.868 35.2451 210.637 35.3874 209.421C35.5297 208.206 35.9343 207.036 36.5734 205.993L12.1547 171.685L19.9884 162.602L48.6928 203.561C50.37 204.767 51.5465 206.546 51.9992 208.561C52.452 210.576 52.1495 212.686 51.1491 214.493C50.1488 216.3 48.5201 217.677 46.5716 218.364C44.6231 219.051 42.4902 219 40.5772 218.22Z" fill="#FFB6B6"/>
<path d="M41.1383 109.5C39.9029 108.773 38.4489 108.511 37.0373 108.759C35.6256 109.007 34.3488 109.751 33.4359 110.855L0.443085 156.974L31.0189 200.378L42.9833 187.534L24.372 158.303L49.1066 134.764C51.1392 130.314 51.4497 125.268 49.978 120.602C48.5064 115.936 45.3571 111.981 41.1383 109.5Z" fill="url(#paint3_linear_46_480)"/>
<defs>
<linearGradient id="paint0_linear_46_480" x1="33.6889" y1="91.3116" x2="117.874" y2="95.1622" gradientUnits="userSpaceOnUse">
<stop offset="0.615621" stop-color="#1728C1"/>
<stop offset="1" stop-color="#006DFF"/>
</linearGradient>
<linearGradient id="paint1_linear_46_480" x1="84.6348" y1="99.5422" x2="175.508" y2="104.992" gradientUnits="userSpaceOnUse">
<stop offset="0.615621" stop-color="#1728C1"/>
<stop offset="1" stop-color="#006DFF"/>
</linearGradient>
<linearGradient id="paint2_linear_46_480" x1="102.533" y1="247.283" x2="137.52" y2="249.458" gradientUnits="userSpaceOnUse">
<stop offset="0.615621" stop-color="#1728C1"/>
<stop offset="1" stop-color="#006DFF"/>
</linearGradient>
<linearGradient id="paint3_linear_46_480" x1="0.443085" y1="108.668" x2="53.9668" y2="110.498" gradientUnits="userSpaceOnUse">
<stop offset="0.615621" stop-color="#1728C1"/>
<stop offset="1" stop-color="#006DFF"/>
</linearGradient>
</defs>
</svg>
